<?xml version="1.0" encoding="utf-8"?>
<!-- Generator: Adobe Illustrator 16.0.3, SVG Export Plug-In . SVG Version: 6.00 Build 0)  -->
<!DOCTYPE svg PUBLIC "-//W3C//DTD SVG 1.1//EN" "http://www.w3.org/Graphics/SVG/1.1/DTD/svg11.dtd">
<svg version="1.1" id="Lag_2" xmlns="http://www.w3.org/2000/svg" xmlns:xlink="http://www.w3.org/1999/xlink" x="0px" y="0px"
	 width="841.89px" height="595.276px" viewBox="0 0 841.89 595.276" enable-background="new 0 0 841.89 595.276"
	 xml:space="preserve">
<path fill="#1D1D1B" d="M822.438,151.202c-10.66-4.299-21.95-1.497-26.466,0c-3.211,1.071-8.827,4.362-14.646,7.771
	c-7.295,4.277-26.985,14.383-31.593,16.432c-4.794,2.132-17.999,7.969-19.832,8.665l-3.039,1.15l0.246-3.238
	c0.803-10.656,1.908-25.246,7.647-44.588c1.339-4.52,3.128-10.009,5.197-16.36c4.719-14.467,10.59-32.457,14.146-48.46
	c0.057-0.207,4.181-17.316,4.665-27.853c0.265-5.837-1.146-14.471-5.656-19.237c-1.982-2.093-4.524-3.582-7.479-3.441
	c-8.774,0.428-12.419-4.761-16.224-9.66c-2.657-3.414-6.158-7.63-11.084-9.07c-4.718-1.379-8.294-1.723-13.572-1.723
	c-4.511,0-9.215,0.52-13.981,1.55c-8.329,1.802-16.554,10.85-19.008,18.18c-2.153,6.432-8.929,31.826-11.664,63.094
	c-1.296,14.832-2.578,24.038-3.815,32.937c-0.771,5.515-1.563,11.22-2.356,18.22c-0.775,6.845-1.524,12.347-2.247,17.668
	c-1.233,9.026-2.766,25.259-4,34.884c-1.483,11.55-6.432,39.598-6.432,39.598s-2.678,1.55-3.377,1.96
	c-1.992,1.172-3.19,1.885-7.102,3.796c-8.237,4.035-9.863,20.061-8.647,33.717c1.145,12.818,2.485,21.51,10.365,25.36l1.309,0.639
	l-0.158,1.449c-0.204,1.771-0.485,3.982-0.807,6.537c-0.683,5.366-1.524,12.048-2.233,19.308
	c-1.093,11.251-1.814,18.687-6.916,37.764c-3.049,12.582-0.538,22.054,1.669,25.04c2.877,3.894,6.427,6.378,12.26,8.567
	c3.902,1.467,10.097,2.52,17.73,1.906c16.206-1.304,25.593-6.857,28.77-16.976c2.105-11.08,4.035-22.017,5.735-32.511
	c1.709-10.634,3.48-21.505,5.295-32.627l0.612-3.719l2.806,2.511c28.871,25.792,48.351,40.976,68.534,47.293
	c6.378,1.418,12.088,2.137,16.959,2.137c5.159,0,9.499-0.807,12.898-2.392c6.643-3.124,10.895-7.264,12.986-12.669
	c2.048-5.3,3.243-14.911,1.604-21.207c-1.704-6.559-5.224-15.902-16.008-21.324c-8.555-4.305-17.664-7.176-24.316-9.277
	c-3.532-1.115-6.325-1.996-8.321-2.837c-7.783-3.286-18.373-14.646-18.884-20.259l-0.098-1.004l0.74-0.696
	c0.202-0.184,20.281-18.95,26.439-24.382c5.122-4.524,13.655-10.858,20.502-15.946c3.673-2.727,6.841-5.08,8.885-6.7
	c3.242-2.687,6.329-5.194,9.224-7.546c19.969-16.232,29.985-24.382,29.985-39.518C839.685,163.039,829.98,154.247,822.438,151.202z"
	/>
<path fill="#1D1D1B" d="M529.506,169.276c-30.941,0.49-48.769,9.484-66.794,20.435c-15.568,9.431-30.312,22.109-41.531,39.98
	c-13.017,20.616-20.955,40.884-25.893,57.944c-11,36.597-11.021,67.626-0.062,92.251c10.202,22.625,31.302,32.037,39.896,35.038
	c7.44,2.595,19.638,5.683,35.496,5.683c8.968,0,20.422-0.996,29.443-2.97c9.718-2.102,21.687-5.444,33.544-10.21
	c10.158-4.084,16.705-6.979,22.731-10.838c1.7-1.083,12.945-7.422,18.514-18.69c2.423-4.898,2.723-10.004,2.172-15.073
	c-0.55-5.07-2.877-7.432-4.842-9.141c-5.299-4.621-10.58-2.635-17.021-5.392c-4.24-1.812-6.382-8.146-16.338-5.021
	c-4.902,1.537-9.677,4.594-14.938,6.959c-6.418,2.891-13.052,5.872-20.928,8.097c-4.031,1.141-9.158,1.374-12.753,1.374
	c-3.56,0-6.626-0.229-8.092-0.458c-12.784-2.026-19.969-11.885-21.479-15.175l-1.494-3.265l3.573,0.349
	c1.951,0.188,4.014,0.286,6.127,0.286c10.748,0,22.96-2.4,36.289-7.137c6.388-2.281,11.841-4.594,17.646-7.163
	c5.556-2.462,14.019-7.308,19.005-10.571c13.857-9.665,20.131-20.378,26.196-30.735l0.11-0.189
	c6.008-10.603,9.734-28.219,11.065-52.324c0.079-18.236-2.705-32.166-8.265-41.398C561.227,176.667,546.945,169.003,529.506,169.276
	z M508.186,263.501c-1.788,5.444-4.749,11.589-7.854,17.003c-11.378,19.813-28.228,24.254-35.395,18.867
	c-5.616-4.221-2.396-14.89,0.617-21.312c7.197-15.321,21.681-32.483,33.848-32.483c1.956,0,3.806,0.353,5.476,1.045
	C511.265,249.264,509.991,257.98,508.186,263.501z"/>
<path fill="#1D1D1B" d="M183.052,525.333c-1.476-2.427-6.095-8.339-13.41-12.634c-3.759-2.206-10.228-3.647-15.321-3.555
	c-5.308,0.098-16.525,2.555-24.893,12.123c-12,13.726-11.801,34.693,0.462,48.776c11.727,13.868,29.633,21.709,53.242,23.321
	c3.751,0.216,7.174,0.321,10.44,0.321c20.546,0,35.785-4.492,52.599-15.497c21.114-14.364,43.002-50.12,60.033-98.075
	c16.986-47.843,31.479-124.474,43.082-227.767c1.304-10.15-1.608-12.948-3.171-14.449c-1.428-1.366-4.365-2.899-8.723-4.551
	c-6.308-2.396-8.356-6.194-10.528-10.215c-0.806-1.498-1.639-3.048-2.757-4.635c-1.7-2.432-5.872-3.766-11.744-3.766
	c-3.348,0-7.181,0.426-11.388,1.273c-6.903,1.348-14.995,6.286-21.655,13.207c-9.391,9.752-13.431,25.501-16.612,46.152
	c-1.391,9.065-3.814,27.518-6.614,48.892c-3.315,25.286-7.074,53.944-10.535,77.917c-6.878,47.609-22.336,89.863-28.937,107.902
	c-1.014,2.771-1.813,4.955-2.324,6.458c-4.766,14.029-9.932,20.849-15.79,20.849c-4.308,0-7.687-2.854-10.151-4.999
	C185.673,530.047,184.583,527.845,183.052,525.333z"/>
<path fill="#1D1D1B" d="M198.214,205.675c0.54-0.176,3.02-1.083,3.02-1.083c4.535-1.661,12.125-4.439,17.591-5.796
	c6.423-1.594,12.136-4.019,16.724-5.965l1.069-0.448c3.618-1.53,10.111-4.898,12.908-10.291c2.817-5.449,4.784-11.379,5.848-17.629
	c1.062-6.242,2.058-12.476,2.965-18.527c0.938-6.334,3.33-11.181,7.109-14.405c6.555-5.057,9.476-10.123,8.758-15.123
	c-0.75-5.207-4.273-11.026-9.194-15.185c-4.85-4.092-9.911-6.188-17.574-8.18c-3.299-0.85-6.603-1.11-9.704-1.11
	c-3.507,0-7.033,0.485-11.945,1.309c-9.059,1.529-64.439,17.66-99.142,32.655c-32.062,13.91-57.482,27.848-73.228,37.332
	c-11.308,6.806-26.681,18.757-34.505,26.461c-8.543,8.414-14.64,19.752-16.51,27.576c-2.542,10.638-2.394,30.624,10.944,34.624
	c2.236,0.674,6.418,1.41,11.147,1.41c12.739,0,50.072-11.471,61.003-14.907l14.875-4.533l-2.347,11.85
	c-2.787,14.035-4.548,24.757-6.416,36.104c-1.34,8.145-2.725,16.573-4.602,26.964c-3.066,16.973-4.028,24.118-5.358,34.007
	c-0.648,4.819-1.383,10.286-2.491,17.881c-3.353,22.978-6.656,65.909-7.471,79.942c-0.584,10.256,1.487,16.775,2.895,24.202
	c2.418,12.774,10.838,19.955,24.945,22.185c28.19,4.448,39.25-24.044,41.012-31.655c4.249-14.995,9.33-45.086,14.242-74.187
	c3.737-22.144,7.269-43.059,10.402-57.415c2.205-10.114,4.511-21.977,6.952-34.541c5.515-28.381,11.765-60.547,18.309-78.819
	c0.04-0.146,0.24-0.736,0.406-1.089C191.644,207.618,194.172,206.984,198.214,205.675z"/>
<path fill="#1D1D1B" d="M293.614,160.916c0.877,8.924,9.04,16.145,22.959,18.871c1.868,0.388,3.912,0.582,6.114,0.582
	c11.806,0,25.796-5.432,34.95-10.514c12.087-6.709,19.316-18.414,19.347-31.312c0.149-12.475-4.247-27.668-17.03-32.977
	c-3.119-1.299-6.788-1.964-10.93-1.964c-11.708,0.004-24.373,5.136-32.328,9.933C304.01,120.851,291.632,141.635,293.614,160.916"/>
</svg>
