<svg width="1200" height="800" viewBox="0 0 1200 800" fill="none" xmlns="http://www.w3.org/2000/svg">
<path d="M644.147 162.915L710 162.897C709.991 136.431 709.982 109.965 709.58 83L673.446 91.4468C645.597 98.7524 617.705 105.897 589.826 113.088C563.054 119.994 536.256 126.795 509.508 133.79C478.176 141.984 446.893 150.364 415.57 158.596C410.669 159.884 405.673 160.812 400.288 162.165C399.878 162.625 399.901 162.826 400.387 163C422.404 162.97 443.957 162.97 465.51 162.964C525.055 162.948 584.601 162.932 644.147 162.915Z" fill="#F6ADBF"/>
<path d="M291.811 720C291.056 720 290.395 719.717 289.828 719.15C289.261 718.583 288.978 717.922 288.978 717.167C288.978 716.695 289.025 716.175 289.12 715.609L324.251 623.955C324.629 623.01 325.149 622.255 325.81 621.688C326.471 621.121 327.462 620.838 328.785 620.838H338.417C339.645 620.838 340.59 621.121 341.251 621.688C342.006 622.255 342.573 623.01 342.951 623.955L377.941 715.609C378.129 716.175 378.224 716.695 378.224 717.167C378.224 717.922 377.941 718.583 377.374 719.15C376.807 719.717 376.146 720 375.391 720H368.166C367.033 720 366.183 719.717 365.616 719.15C365.144 718.583 364.813 718.064 364.624 717.592L356.833 697.476H310.369L302.577 717.592C302.483 718.064 302.152 718.583 301.586 719.15C301.019 719.717 300.169 720 299.036 720H291.811ZM314.477 685.293H352.725L333.601 635.004L314.477 685.293ZM395.212 720C394.173 720 393.37 719.717 392.804 719.15C392.237 718.489 391.954 717.686 391.954 716.742V624.238C391.954 623.199 392.237 622.396 392.804 621.83C393.37 621.169 394.173 620.838 395.212 620.838H431.194C438.182 620.838 444.226 621.971 449.326 624.238C454.52 626.504 458.534 629.904 461.367 634.437C464.2 638.876 465.617 644.448 465.617 651.153C465.617 657.858 464.2 663.43 461.367 667.869C458.534 672.308 454.52 675.66 449.326 677.927C444.226 680.194 438.182 681.327 431.194 681.327H406.12V716.742C406.12 717.686 405.789 718.489 405.128 719.15C404.562 719.717 403.759 720 402.72 720H395.212ZM405.978 669.427H430.485C437.474 669.427 442.715 667.869 446.21 664.753C449.704 661.636 451.451 657.103 451.451 651.153C451.451 645.298 449.751 640.765 446.351 637.554C442.951 634.343 437.663 632.737 430.485 632.737H405.978V669.427ZM484.685 720C483.646 720 482.843 719.717 482.276 719.15C481.71 718.489 481.426 717.686 481.426 716.742V624.096C481.426 623.152 481.71 622.396 482.276 621.83C482.843 621.169 483.646 620.838 484.685 620.838H492.193C493.137 620.838 493.893 621.169 494.459 621.83C495.12 622.396 495.451 623.152 495.451 624.096V716.742C495.451 717.686 495.12 718.489 494.459 719.15C493.893 719.717 493.137 720 492.193 720H484.685ZM546.244 731.899C545.488 731.899 544.827 731.616 544.26 731.049C543.694 730.483 543.41 729.822 543.41 729.066C543.41 728.594 543.552 728.027 543.835 727.366L592.283 611.205C592.566 610.638 592.944 610.072 593.416 609.505C593.983 608.939 594.833 608.655 595.966 608.655H601.491C602.247 608.655 602.908 608.939 603.474 609.505C604.041 610.072 604.324 610.733 604.324 611.488C604.324 611.866 604.23 612.433 604.041 613.188L555.452 729.35C555.263 729.822 554.838 730.341 554.177 730.908C553.61 731.569 552.807 731.899 551.768 731.899H546.244ZM684.017 721.417C675.801 721.417 668.906 720.189 663.335 717.733C657.763 715.184 653.466 711.925 650.443 707.959C647.516 703.898 645.958 699.601 645.769 695.068C645.769 694.312 646.052 693.651 646.619 693.085C647.28 692.424 648.035 692.093 648.885 692.093H656.11C657.243 692.093 658.093 692.376 658.66 692.943C659.226 693.51 659.604 694.171 659.793 694.926C660.265 697.193 661.399 699.459 663.193 701.726C665.082 703.898 667.679 705.74 670.984 707.251C674.384 708.667 678.728 709.375 684.017 709.375C692.139 709.375 698.088 707.959 701.866 705.126C705.738 702.198 707.674 698.326 707.674 693.51C707.674 690.204 706.635 687.56 704.558 685.577C702.574 683.499 699.505 681.657 695.35 680.052C691.194 678.446 685.811 676.699 679.2 674.81C672.306 672.827 666.593 670.655 662.06 668.294C657.526 665.933 654.127 663.005 651.86 659.511C649.688 656.017 648.602 651.578 648.602 646.195C648.602 641.095 649.971 636.562 652.71 632.596C655.449 628.535 659.368 625.324 664.468 622.963C669.662 620.602 675.942 619.421 683.309 619.421C689.164 619.421 694.264 620.224 698.608 621.83C703.047 623.341 706.73 625.418 709.657 628.063C712.585 630.613 714.804 633.399 716.315 636.421C717.826 639.348 718.629 642.229 718.724 645.062C718.724 645.723 718.487 646.384 718.015 647.045C717.543 647.612 716.788 647.895 715.749 647.895H708.241C707.58 647.895 706.871 647.706 706.116 647.328C705.455 646.951 704.935 646.242 704.558 645.204C703.991 641.331 701.819 638.073 698.041 635.429C694.264 632.785 689.353 631.462 683.309 631.462C677.17 631.462 672.165 632.643 668.293 635.004C664.515 637.365 662.626 641.048 662.626 646.053C662.626 649.264 663.523 651.956 665.318 654.128C667.112 656.206 669.945 658.047 673.817 659.653C677.689 661.258 682.742 662.958 688.975 664.753C696.53 666.83 702.716 669.05 707.532 671.411C712.349 673.677 715.89 676.558 718.157 680.052C720.518 683.452 721.698 687.843 721.698 693.226C721.698 699.176 720.14 704.276 717.024 708.526C713.907 712.681 709.516 715.892 703.849 718.158C698.277 720.331 691.667 721.417 684.017 721.417ZM742.107 720C741.069 720 740.266 719.717 739.699 719.15C739.133 718.489 738.849 717.686 738.849 716.742V624.238C738.849 623.199 739.133 622.396 739.699 621.83C740.266 621.169 741.069 620.838 742.107 620.838H774.264C783.992 620.838 791.83 622.302 797.78 625.229C803.73 628.157 808.074 632.501 810.813 638.262C813.551 643.929 814.968 650.917 815.062 659.228C815.157 663.478 815.204 667.208 815.204 670.419C815.204 673.63 815.157 677.313 815.062 681.468C814.873 690.157 813.41 697.382 810.671 703.142C808.027 708.809 803.777 713.059 797.921 715.892C792.161 718.631 784.511 720 774.973 720H742.107ZM752.732 707.959H774.264C780.781 707.959 785.975 707.062 789.847 705.267C793.719 703.473 796.505 700.593 798.205 696.626C799.999 692.66 800.944 687.418 801.038 680.902C801.227 678.069 801.321 675.613 801.321 673.536C801.321 671.363 801.321 669.238 801.321 667.161C801.321 664.989 801.227 662.533 801.038 659.794C800.849 650.634 798.677 643.881 794.522 639.537C790.366 635.098 783.378 632.879 773.556 632.879H752.732V707.959ZM838.359 720C837.32 720 836.517 719.717 835.951 719.15C835.384 718.489 835.101 717.686 835.101 716.742V624.238C835.101 623.199 835.384 622.396 835.951 621.83C836.517 621.169 837.32 620.838 838.359 620.838H845.442C846.481 620.838 847.283 621.169 847.85 621.83C848.511 622.396 848.842 623.199 848.842 624.238V659.37L886.665 623.105C887.043 622.727 887.656 622.255 888.506 621.688C889.451 621.121 890.679 620.838 892.19 620.838H899.839C900.595 620.838 901.256 621.121 901.822 621.688C902.389 622.255 902.672 622.916 902.672 623.671C902.672 624.427 902.484 625.041 902.106 625.513L858.333 668.294L904.939 715.184C905.411 715.75 905.647 716.411 905.647 717.167C905.647 717.922 905.364 718.583 904.797 719.15C904.231 719.717 903.57 720 902.814 720H894.881C893.276 720 892.048 719.717 891.198 719.15C890.348 718.489 889.734 718.017 889.356 717.733L848.842 677.785V716.742C848.842 717.686 848.511 718.489 847.85 719.15C847.283 719.717 846.481 720 845.442 720H838.359Z" fill="#1D1D1B"/>
<path d="M400 163H732C767.346 163 796 191.654 796 227V465C796 500.346 767.346 529 732 529H464C428.654 529 400 500.346 400 465V163Z" fill="#E8325F"/>
<path d="M526.5 305.657V387.471C526.5 388.117 526.812 388.723 527.338 389.098L535.955 395.254C536.592 395.708 537.435 395.75 538.114 395.36L582.996 369.577C583.617 369.22 584 368.558 584 367.842V346.143C584 344.565 582.258 343.609 580.926 344.456L569.081 351.994C568.192 352.56 567.016 352.338 566.393 351.488L553.671 334.101C553.023 333.214 553.21 331.971 554.091 331.315L598.312 298.385C599.018 297.859 599.984 297.857 600.693 298.379L645.345 331.28C646.251 331.948 646.428 333.233 645.735 334.121L632.15 351.526C631.503 352.356 630.323 352.542 629.452 351.951L618.622 344.615C617.294 343.715 615.5 344.666 615.5 346.271V387.315C615.5 388.046 615.102 388.718 614.461 389.069L541.008 429.304C538.524 430.665 535.506 430.611 533.073 429.162L498.908 408.826C496.485 407.384 495 404.772 495 401.952V290.632C495 287.767 496.532 285.12 499.017 283.694L595.517 228.287C597.983 226.871 601.017 226.871 603.483 228.287L699.983 283.694C702.468 285.12 704 287.767 704 290.632V402.302C704 405.202 702.43 407.876 699.897 409.288L600.988 464.449C600.375 464.791 599.628 464.786 599.019 464.437L572.533 449.24C571.192 448.471 571.194 446.534 572.538 445.768L671.99 389.075C672.615 388.72 673 388.056 673 387.338V305.661C673 304.943 672.615 304.28 671.992 303.924L600.496 263.069C599.879 262.717 599.122 262.718 598.506 263.072L527.503 303.923C526.882 304.28 526.5 304.941 526.5 305.657Z" fill="white"/>
</svg>
