<svg width="1200" height="800" viewBox="0 0 1200 800" fill="none" xmlns="http://www.w3.org/2000/svg">
<path d="M300.147 256.915L366 256.897C365.991 230.431 365.982 203.965 365.58 177L329.446 185.447C301.597 192.752 273.705 199.897 245.826 207.088C219.054 213.994 192.256 220.795 165.508 227.79C134.176 235.984 102.893 244.364 71.5704 252.596C66.6693 253.884 61.6727 254.812 56.288 256.165C55.8783 256.625 55.9008 256.826 56.387 257C78.4037 256.97 99.9566 256.97 121.51 256.964C181.055 256.948 240.601 256.932 300.147 256.915Z" fill="#F6ADBF"/>
<path d="M527.666 481C526.911 481 526.25 480.717 525.683 480.15C525.117 479.583 524.833 478.922 524.833 478.167C524.833 477.695 524.88 477.175 524.975 476.609L560.107 384.955C560.484 384.01 561.004 383.255 561.665 382.688C562.326 382.121 563.318 381.838 564.64 381.838H574.273C575.5 381.838 576.445 382.121 577.106 382.688C577.861 383.255 578.428 384.01 578.806 384.955L613.796 476.609C613.985 477.175 614.079 477.695 614.079 478.167C614.079 478.922 613.796 479.583 613.229 480.15C612.662 480.717 612.001 481 611.246 481H604.021C602.888 481 602.038 480.717 601.471 480.15C600.999 479.583 600.669 479.064 600.48 478.592L592.688 458.476H546.224L538.433 478.592C538.338 479.064 538.008 479.583 537.441 480.15C536.874 480.717 536.024 481 534.891 481H527.666ZM550.332 446.293H588.58L569.456 396.004L550.332 446.293ZM631.067 481C630.028 481 629.226 480.717 628.659 480.15C628.092 479.489 627.809 478.686 627.809 477.742V385.238C627.809 384.199 628.092 383.396 628.659 382.83C629.226 382.169 630.028 381.838 631.067 381.838H667.049C674.037 381.838 680.081 382.971 685.181 385.238C690.375 387.504 694.389 390.904 697.222 395.437C700.056 399.876 701.472 405.448 701.472 412.153C701.472 418.858 700.056 424.43 697.222 428.869C694.389 433.308 690.375 436.66 685.181 438.927C680.081 441.194 674.037 442.327 667.049 442.327H641.975V477.742C641.975 478.686 641.644 479.489 640.983 480.15C640.417 480.717 639.614 481 638.575 481H631.067ZM641.833 430.427H666.34C673.329 430.427 678.57 428.869 682.065 425.753C685.559 422.636 687.306 418.103 687.306 412.153C687.306 406.298 685.606 401.765 682.206 398.554C678.807 395.343 673.518 393.737 666.34 393.737H641.833V430.427ZM720.54 481C719.501 481 718.698 480.717 718.132 480.15C717.565 479.489 717.282 478.686 717.282 477.742V385.096C717.282 384.152 717.565 383.396 718.132 382.83C718.698 382.169 719.501 381.838 720.54 381.838H728.048C728.992 381.838 729.748 382.169 730.314 382.83C730.975 383.396 731.306 384.152 731.306 385.096V477.742C731.306 478.686 730.975 479.489 730.314 480.15C729.748 480.717 728.992 481 728.048 481H720.54ZM782.099 492.899C781.343 492.899 780.682 492.616 780.116 492.049C779.549 491.483 779.266 490.822 779.266 490.066C779.266 489.594 779.407 489.027 779.691 488.366L828.138 372.205C828.422 371.638 828.799 371.072 829.272 370.505C829.838 369.939 830.688 369.655 831.821 369.655H837.346C838.102 369.655 838.763 369.939 839.329 370.505C839.896 371.072 840.179 371.733 840.179 372.488C840.179 372.866 840.085 373.433 839.896 374.188L791.307 490.35C791.118 490.822 790.693 491.341 790.032 491.908C789.465 492.569 788.662 492.899 787.624 492.899H782.099ZM919.872 482.417C911.656 482.417 904.762 481.189 899.19 478.733C893.618 476.184 889.321 472.925 886.299 468.959C883.371 464.898 881.813 460.601 881.624 456.068C881.624 455.312 881.907 454.651 882.474 454.085C883.135 453.424 883.89 453.093 884.74 453.093H891.965C893.098 453.093 893.948 453.376 894.515 453.943C895.082 454.51 895.459 455.171 895.648 455.926C896.12 458.193 897.254 460.459 899.048 462.726C900.937 464.898 903.534 466.74 906.839 468.251C910.239 469.667 914.583 470.375 919.872 470.375C927.994 470.375 933.944 468.959 937.721 466.126C941.593 463.198 943.529 459.326 943.529 454.51C943.529 451.204 942.49 448.56 940.413 446.577C938.43 444.499 935.36 442.657 931.205 441.052C927.049 439.446 921.666 437.699 915.056 435.81C908.161 433.827 902.448 431.655 897.915 429.294C893.382 426.933 889.982 424.005 887.715 420.511C885.543 417.017 884.457 412.578 884.457 407.195C884.457 402.095 885.826 397.562 888.565 393.596C891.304 389.535 895.223 386.324 900.323 383.963C905.517 381.602 911.797 380.421 919.164 380.421C925.019 380.421 930.119 381.224 934.463 382.83C938.902 384.341 942.585 386.418 945.513 389.063C948.44 391.613 950.66 394.399 952.171 397.421C953.682 400.348 954.484 403.229 954.579 406.062C954.579 406.723 954.343 407.384 953.87 408.045C953.398 408.612 952.643 408.895 951.604 408.895H944.096C943.435 408.895 942.727 408.706 941.971 408.328C941.31 407.951 940.791 407.242 940.413 406.204C939.846 402.331 937.674 399.073 933.896 396.429C930.119 393.785 925.208 392.462 919.164 392.462C913.025 392.462 908.02 393.643 904.148 396.004C900.37 398.365 898.481 402.048 898.481 407.053C898.481 410.264 899.379 412.956 901.173 415.128C902.967 417.206 905.8 419.047 909.673 420.653C913.545 422.258 918.597 423.958 924.83 425.753C932.385 427.83 938.571 430.05 943.388 432.411C948.204 434.677 951.746 437.558 954.012 441.052C956.373 444.452 957.554 448.843 957.554 454.226C957.554 460.176 955.995 465.276 952.879 469.526C949.762 473.681 945.371 476.892 939.704 479.158C934.132 481.331 927.522 482.417 919.872 482.417ZM977.963 481C976.924 481 976.121 480.717 975.554 480.15C974.988 479.489 974.704 478.686 974.704 477.742V385.238C974.704 384.199 974.988 383.396 975.554 382.83C976.121 382.169 976.924 381.838 977.963 381.838H1010.12C1019.85 381.838 1027.69 383.302 1033.63 386.229C1039.58 389.157 1043.93 393.501 1046.67 399.262C1049.41 404.929 1050.82 411.917 1050.92 420.228C1051.01 424.478 1051.06 428.208 1051.06 431.419C1051.06 434.63 1051.01 438.313 1050.92 442.468C1050.73 451.157 1049.26 458.382 1046.53 464.142C1043.88 469.809 1039.63 474.059 1033.78 476.892C1028.02 479.631 1020.37 481 1010.83 481H977.963ZM988.587 468.959H1010.12C1016.64 468.959 1021.83 468.062 1025.7 466.267C1029.57 464.473 1032.36 461.593 1034.06 457.626C1035.85 453.66 1036.8 448.418 1036.89 441.902C1037.08 439.069 1037.18 436.613 1037.18 434.536C1037.18 432.363 1037.18 430.238 1037.18 428.161C1037.18 425.989 1037.08 423.533 1036.89 420.794C1036.7 411.634 1034.53 404.881 1030.38 400.537C1026.22 396.098 1019.23 393.879 1009.41 393.879H988.587V468.959ZM1074.21 481C1073.18 481 1072.37 480.717 1071.81 480.15C1071.24 479.489 1070.96 478.686 1070.96 477.742V385.238C1070.96 384.199 1071.24 383.396 1071.81 382.83C1072.37 382.169 1073.18 381.838 1074.21 381.838H1081.3C1082.34 381.838 1083.14 382.169 1083.71 382.83C1084.37 383.396 1084.7 384.199 1084.7 385.238V420.37L1122.52 384.105C1122.9 383.727 1123.51 383.255 1124.36 382.688C1125.31 382.121 1126.53 381.838 1128.04 381.838H1135.69C1136.45 381.838 1137.11 382.121 1137.68 382.688C1138.24 383.255 1138.53 383.916 1138.53 384.671C1138.53 385.427 1138.34 386.041 1137.96 386.513L1094.19 429.294L1140.79 476.184C1141.27 476.75 1141.5 477.411 1141.5 478.167C1141.5 478.922 1141.22 479.583 1140.65 480.15C1140.09 480.717 1139.42 481 1138.67 481H1130.74C1129.13 481 1127.9 480.717 1127.05 480.15C1126.2 479.489 1125.59 479.017 1125.21 478.733L1084.7 438.785V477.742C1084.7 478.686 1084.37 479.489 1083.71 480.15C1083.14 480.717 1082.34 481 1081.3 481H1074.21Z" fill="#1D1D1B"/>
<path d="M56 257H388C423.346 257 452 285.654 452 321V559C452 594.346 423.346 623 388 623H120C84.6538 623 56 594.346 56 559V257Z" fill="#E8325F"/>
<path d="M180.5 399.657V481.471C180.5 482.117 180.812 482.723 181.338 483.098L189.955 489.254C190.592 489.708 191.435 489.75 192.114 489.36L236.996 463.577C237.617 463.22 238 462.558 238 461.842V440.143C238 438.565 236.258 437.609 234.926 438.456L223.081 445.994C222.192 446.56 221.016 446.338 220.393 445.488L207.671 428.101C207.023 427.214 207.21 425.971 208.091 425.315L252.312 392.385C253.018 391.859 253.984 391.857 254.693 392.379L299.345 425.28C300.251 425.948 300.428 427.233 299.735 428.121L286.15 445.526C285.503 446.356 284.323 446.542 283.452 445.951L272.622 438.615C271.294 437.715 269.5 438.666 269.5 440.271V481.315C269.5 482.046 269.102 482.718 268.461 483.069L195.008 523.304C192.524 524.665 189.506 524.611 187.073 523.162L152.908 502.826C150.485 501.384 149 498.772 149 495.952V384.632C149 381.767 150.532 379.12 153.017 377.694L249.517 322.287C251.983 320.871 255.017 320.871 257.483 322.287L353.983 377.694C356.468 379.12 358 381.767 358 384.632V496.302C358 499.202 356.43 501.876 353.897 503.288L254.988 558.449C254.375 558.791 253.628 558.786 253.019 558.437L226.533 543.24C225.192 542.471 225.194 540.534 226.538 539.768L325.99 483.075C326.615 482.72 327 482.056 327 481.338V399.661C327 398.943 326.615 398.28 325.992 397.924L254.496 357.069C253.879 356.717 253.122 356.718 252.506 357.072L181.503 397.923C180.882 398.28 180.5 398.941 180.5 399.657Z" fill="white"/>
</svg>
