<svg width="1920" height="1080" viewBox="0 0 1920 1080" fill="none" xmlns="http://www.w3.org/2000/svg">
<path d="M508 203L94 312.378L508 465V203Z" fill="#D0DAA3"/>
<path d="M628.179 401.041C628.179 352.053 588.325 312.352 539.169 312.352H94.0918V724.311C94.0918 773.284 133.94 813 183.096 813H539.169C588.336 813 628.179 773.284 628.179 724.311V401.041Z" fill="#8AA31B"/>
<path d="M430.398 411.714H291.907C231.585 411.714 182.688 460.443 182.688 520.561V604.845C182.688 664.937 231.58 713.676 291.907 713.676H430.398C481.136 713.676 523.802 679.189 536.122 632.464C536.803 629.799 536.208 626.981 534.494 624.819C532.815 622.637 530.191 621.366 527.434 621.366C507.439 621.366 465.581 621.366 449.544 621.462C445.79 621.462 442.321 623.395 440.393 626.595C433.038 638.512 419.843 646.417 404.797 646.417H317.482C294.419 646.417 275.752 627.81 275.752 604.845C275.752 604.845 275.752 604.845 275.752 604.829C275.752 602.576 276.642 600.424 278.249 598.817C279.852 597.22 282.049 596.325 284.292 596.325H522.113C531.773 596.325 539.611 588.522 539.611 578.883V520.561C539.621 460.443 490.694 411.714 430.398 411.714ZM444.02 526.568C442.417 528.16 440.261 529.07 437.977 529.07C405.087 529.07 317.197 529.07 284.292 529.07C282.049 529.07 279.852 528.16 278.249 526.568C276.652 524.981 275.752 522.804 275.752 520.545C275.752 497.575 294.414 478.963 317.482 478.963H404.787C427.85 478.963 446.532 497.575 446.532 520.545C446.532 522.804 445.627 524.981 444.02 526.568Z" fill="white"/>
<path d="M788.823 621.987C775.182 621.987 764.322 617.815 756.243 609.471C748.164 600.995 743.728 589.473 742.933 574.904C742.801 573.182 742.734 570.997 742.734 568.348C742.734 565.567 742.801 563.316 742.933 561.594C743.463 552.191 745.648 543.979 749.489 536.96C753.33 529.808 758.561 524.312 765.183 520.471C771.937 516.631 779.818 514.71 788.823 514.71C798.889 514.71 807.299 516.829 814.053 521.067C820.94 525.305 826.172 531.331 829.747 539.145C833.323 546.959 835.111 556.098 835.111 566.56V569.938C835.111 571.395 834.648 572.52 833.721 573.315C832.926 574.11 831.866 574.507 830.542 574.507H761.806C761.806 574.639 761.806 574.904 761.806 575.301C761.806 575.699 761.806 576.03 761.806 576.295C762.071 581.725 763.263 586.824 765.382 591.592C767.501 596.227 770.547 600.002 774.52 602.915C778.493 605.829 783.261 607.286 788.823 607.286C793.591 607.286 797.565 606.557 800.743 605.1C803.922 603.644 806.504 602.054 808.491 600.333C810.477 598.478 811.802 597.088 812.464 596.161C813.656 594.439 814.583 593.446 815.245 593.181C815.907 592.784 816.967 592.585 818.424 592.585H827.959C829.284 592.585 830.343 592.982 831.138 593.777C832.065 594.439 832.462 595.432 832.33 596.757C832.198 598.743 831.138 601.194 829.151 604.107C827.165 606.888 824.317 609.67 820.609 612.451C816.901 615.232 812.398 617.55 807.1 619.404C801.803 621.126 795.71 621.987 788.823 621.987ZM761.806 560.799H816.239V560.203C816.239 554.244 815.113 548.946 812.861 544.311C810.742 539.675 807.63 536.033 803.524 533.384C799.419 530.603 794.518 529.212 788.823 529.212C783.129 529.212 778.228 530.603 774.123 533.384C770.149 536.033 767.103 539.675 764.984 544.311C762.865 548.946 761.806 554.244 761.806 560.203V560.799ZM858.07 620C856.614 620 855.488 619.603 854.693 618.808C853.899 617.881 853.501 616.755 853.501 615.431V485.706C853.501 484.249 853.899 483.123 854.693 482.329C855.488 481.402 856.614 480.938 858.07 480.938H906.543C921.509 480.938 933.363 484.448 942.104 491.467C950.845 498.486 955.215 508.883 955.215 522.657C955.215 532.854 952.633 541.198 947.467 547.688C942.435 554.045 935.548 558.482 926.807 560.998L957.4 613.842C957.798 614.636 957.996 615.365 957.996 616.027C957.996 617.086 957.533 618.013 956.606 618.808C955.811 619.603 954.884 620 953.825 620H944.289C942.037 620 940.382 619.404 939.322 618.212C938.263 617.02 937.336 615.828 936.541 614.636L907.735 564.177H872.97V615.431C872.97 616.755 872.506 617.881 871.579 618.808C870.785 619.603 869.659 620 868.202 620H858.07ZM872.97 547.29H905.749C915.682 547.29 923.098 545.238 927.999 541.132C932.899 536.894 935.349 530.669 935.349 522.458C935.349 514.379 932.899 508.221 927.999 503.983C923.231 499.744 915.814 497.625 905.749 497.625H872.97V547.29ZM1013.11 621.987C999.466 621.987 988.606 617.815 980.527 609.471C972.448 600.995 968.012 589.473 967.217 574.904C967.085 573.182 967.018 570.997 967.018 568.348C967.018 565.567 967.085 563.316 967.217 561.594C967.747 552.191 969.932 543.979 973.773 536.96C977.614 529.808 982.845 524.312 989.467 520.471C996.221 516.631 1004.1 514.71 1013.11 514.71C1023.17 514.71 1031.58 516.829 1038.34 521.067C1045.22 525.305 1050.46 531.331 1054.03 539.145C1057.61 546.959 1059.4 556.098 1059.4 566.56V569.938C1059.4 571.395 1058.93 572.52 1058 573.315C1057.21 574.11 1056.15 574.507 1054.83 574.507H986.09C986.09 574.639 986.09 574.904 986.09 575.301C986.09 575.699 986.09 576.03 986.09 576.295C986.355 581.725 987.547 586.824 989.666 591.592C991.785 596.227 994.831 600.002 998.804 602.915C1002.78 605.829 1007.55 607.286 1013.11 607.286C1017.88 607.286 1021.85 606.557 1025.03 605.1C1028.21 603.644 1030.79 602.054 1032.77 600.333C1034.76 598.478 1036.09 597.088 1036.75 596.161C1037.94 594.439 1038.87 593.446 1039.53 593.181C1040.19 592.784 1041.25 592.585 1042.71 592.585H1052.24C1053.57 592.585 1054.63 592.982 1055.42 593.777C1056.35 594.439 1056.75 595.432 1056.61 596.757C1056.48 598.743 1055.42 601.194 1053.44 604.107C1051.45 606.888 1048.6 609.67 1044.89 612.451C1041.18 615.232 1036.68 617.55 1031.38 619.404C1026.09 621.126 1019.99 621.987 1013.11 621.987ZM986.09 560.799H1040.52V560.203C1040.52 554.244 1039.4 548.946 1037.15 544.311C1035.03 539.675 1031.91 536.033 1027.81 533.384C1023.7 530.603 1018.8 529.212 1013.11 529.212C1007.41 529.212 1002.51 530.603 998.407 533.384C994.433 536.033 991.387 539.675 989.268 544.311C987.149 548.946 986.09 554.244 986.09 560.203V560.799ZM1079.97 620C1078.65 620 1077.52 619.603 1076.59 618.808C1075.8 617.881 1075.4 616.755 1075.4 615.431V483.521C1075.4 482.196 1075.8 481.137 1076.59 480.342C1077.52 479.415 1078.65 478.951 1079.97 478.951H1089.31C1090.63 478.951 1091.69 479.415 1092.49 480.342C1093.41 481.137 1093.88 482.196 1093.88 483.521V552.654L1133.01 520.074C1134.6 518.75 1135.79 517.889 1136.59 517.491C1137.52 516.962 1138.97 516.697 1140.96 516.697H1151.49C1152.68 516.697 1153.67 517.094 1154.47 517.889C1155.26 518.683 1155.66 519.677 1155.66 520.869C1155.66 521.398 1155.46 521.994 1155.06 522.657C1154.8 523.319 1154.2 523.981 1153.28 524.643L1107.39 562.786L1158.24 612.252C1159.83 613.577 1160.63 614.769 1160.63 615.828C1160.63 617.02 1160.23 618.013 1159.43 618.808C1158.64 619.603 1157.65 620 1156.45 620H1146.12C1144.14 620 1142.68 619.801 1141.75 619.404C1140.83 618.874 1139.63 617.947 1138.18 616.623L1093.88 574.308V615.431C1093.88 616.755 1093.41 617.881 1092.49 618.808C1091.69 619.603 1090.63 620 1089.31 620H1079.97ZM1174.46 620C1173.13 620 1172.01 619.603 1171.08 618.808C1170.29 617.881 1169.89 616.755 1169.89 615.431V483.521C1169.89 482.196 1170.29 481.137 1171.08 480.342C1172.01 479.415 1173.13 478.951 1174.46 478.951H1183.8C1185.25 478.951 1186.38 479.415 1187.17 480.342C1187.97 481.137 1188.36 482.196 1188.36 483.521V615.431C1188.36 616.755 1187.97 617.881 1187.17 618.808C1186.38 619.603 1185.25 620 1183.8 620H1174.46ZM1238.86 621.987C1232.23 621.987 1226.21 620.662 1220.78 618.013C1215.35 615.365 1210.98 611.789 1207.67 607.286C1204.36 602.783 1202.7 597.684 1202.7 591.989C1202.7 582.851 1206.41 575.566 1213.83 570.136C1221.24 564.706 1230.91 561.13 1242.83 559.409L1272.43 555.237V549.476C1272.43 543.119 1270.58 538.152 1266.87 534.576C1263.29 531 1257.4 529.212 1249.19 529.212C1243.23 529.212 1238.39 530.404 1234.68 532.788C1231.11 535.172 1228.59 538.218 1227.14 541.927C1226.34 543.913 1224.95 544.907 1222.96 544.907H1214.02C1212.57 544.907 1211.44 544.509 1210.65 543.715C1209.98 542.787 1209.65 541.728 1209.65 540.536C1209.65 538.549 1210.38 536.099 1211.84 533.186C1213.43 530.272 1215.81 527.424 1218.99 524.643C1222.17 521.862 1226.21 519.544 1231.11 517.69C1236.14 515.703 1242.23 514.71 1249.39 514.71C1257.33 514.71 1264.02 515.77 1269.45 517.889C1274.88 519.875 1279.12 522.59 1282.16 526.034C1285.34 529.477 1287.59 533.384 1288.92 537.755C1290.38 542.125 1291.1 546.562 1291.1 551.065V615.431C1291.1 616.755 1290.64 617.881 1289.71 618.808C1288.92 619.603 1287.86 620 1286.54 620H1277.4C1275.94 620 1274.81 619.603 1274.02 618.808C1273.22 617.881 1272.83 616.755 1272.83 615.431V606.888C1271.11 609.272 1268.79 611.656 1265.87 614.04C1262.96 616.292 1259.32 618.212 1254.95 619.801C1250.58 621.258 1245.21 621.987 1238.86 621.987ZM1243.03 607.087C1248.46 607.087 1253.43 605.961 1257.93 603.71C1262.43 601.326 1265.94 597.684 1268.46 592.784C1271.11 587.883 1272.43 581.725 1272.43 574.308V568.746L1249.39 572.123C1239.98 573.447 1232.9 575.699 1228.13 578.877C1223.36 581.923 1220.98 585.83 1220.98 590.598C1220.98 594.307 1222.04 597.419 1224.16 599.935C1226.41 602.319 1229.19 604.107 1232.5 605.299C1235.94 606.491 1239.45 607.087 1243.03 607.087ZM1316.29 620C1314.96 620 1313.84 619.603 1312.91 618.808C1312.11 617.881 1311.72 616.755 1311.72 615.431V521.266C1311.72 519.942 1312.11 518.882 1312.91 518.087C1313.84 517.16 1314.96 516.697 1316.29 516.697H1325.23C1326.55 516.697 1327.61 517.16 1328.4 518.087C1329.33 518.882 1329.79 519.942 1329.79 521.266V528.219C1332.84 524.113 1336.68 520.869 1341.32 518.485C1345.95 515.968 1351.51 514.71 1358 514.71C1372.97 514.578 1383.57 520.67 1389.79 532.987C1392.84 527.424 1397.27 522.988 1403.1 519.677C1408.93 516.366 1415.55 514.71 1422.97 514.71C1429.85 514.71 1436.08 516.299 1441.64 519.478C1447.34 522.657 1451.77 527.491 1454.95 533.98C1458.26 540.337 1459.92 548.35 1459.92 558.018V615.431C1459.92 616.755 1459.45 617.881 1458.53 618.808C1457.73 619.603 1456.67 620 1455.35 620H1446.01C1444.69 620 1443.56 619.603 1442.63 618.808C1441.84 617.881 1441.44 616.755 1441.44 615.431V559.806C1441.44 552.389 1440.38 546.562 1438.26 542.324C1436.14 538.086 1433.3 535.106 1429.72 533.384C1426.14 531.663 1422.24 530.802 1418 530.802C1414.56 530.802 1411.05 531.663 1407.47 533.384C1403.9 535.106 1400.92 538.086 1398.53 542.324C1396.28 546.562 1395.15 552.389 1395.15 559.806V615.431C1395.15 616.755 1394.69 617.881 1393.76 618.808C1392.97 619.603 1391.91 620 1390.58 620H1381.25C1379.92 620 1378.8 619.603 1377.87 618.808C1377.08 617.881 1376.68 616.755 1376.68 615.431V559.806C1376.68 552.389 1375.55 546.562 1373.3 542.324C1371.05 538.086 1368.14 535.106 1364.56 533.384C1360.98 531.663 1357.21 530.802 1353.24 530.802C1349.79 530.802 1346.28 531.663 1342.71 533.384C1339.13 535.106 1336.15 538.086 1333.77 542.324C1331.52 546.562 1330.39 552.323 1330.39 559.607V615.431C1330.39 616.755 1329.93 617.881 1329 618.808C1328.21 619.603 1327.15 620 1325.82 620H1316.29ZM1531.37 621.987C1523.42 621.987 1516.8 620.596 1511.5 617.815C1506.21 614.901 1501.97 611.325 1498.79 607.087V615.431C1498.79 616.755 1498.33 617.881 1497.4 618.808C1496.6 619.603 1495.54 620 1494.22 620H1485.08C1483.76 620 1482.63 619.603 1481.7 618.808C1480.91 617.881 1480.51 616.755 1480.51 615.431V483.521C1480.51 482.196 1480.91 481.137 1481.7 480.342C1482.63 479.415 1483.76 478.951 1485.08 478.951H1494.62C1496.07 478.951 1497.2 479.415 1497.99 480.342C1498.79 481.137 1499.19 482.196 1499.19 483.521V529.212C1502.5 525.107 1506.74 521.663 1511.9 518.882C1517.2 516.101 1523.69 514.71 1531.37 514.71C1538.79 514.71 1545.08 516.035 1550.24 518.683C1555.54 521.2 1559.84 524.709 1563.16 529.212C1566.6 533.715 1569.18 538.814 1570.9 544.509C1572.62 550.204 1573.55 556.164 1573.68 562.389C1573.82 564.508 1573.88 566.494 1573.88 568.348C1573.88 570.203 1573.82 572.189 1573.68 574.308C1573.55 580.665 1572.62 586.691 1570.9 592.386C1569.18 598.081 1566.6 603.18 1563.16 607.683C1559.84 612.054 1555.54 615.563 1550.24 618.212C1545.08 620.728 1538.79 621.987 1531.37 621.987ZM1527.2 605.895C1534.08 605.895 1539.45 604.438 1543.29 601.525C1547.26 598.478 1550.11 594.572 1551.83 589.804C1553.55 584.903 1554.55 579.672 1554.81 574.11C1554.94 570.269 1554.94 566.428 1554.81 562.587C1554.55 557.025 1553.55 551.86 1551.83 547.092C1550.11 542.191 1547.26 538.285 1543.29 535.371C1539.45 532.325 1534.08 530.802 1527.2 530.802C1520.97 530.802 1515.81 532.258 1511.7 535.172C1507.6 538.086 1504.48 541.794 1502.37 546.297C1500.38 550.8 1499.32 555.369 1499.19 560.005C1499.05 562.124 1498.99 564.706 1498.99 567.752C1498.99 570.666 1499.05 573.182 1499.19 575.301C1499.45 580.202 1500.51 585.036 1502.37 589.804C1504.35 594.439 1507.33 598.28 1511.3 601.326C1515.41 604.372 1520.71 605.895 1527.2 605.895ZM1595.28 620C1593.96 620 1592.83 619.603 1591.91 618.808C1591.11 617.881 1590.71 616.755 1590.71 615.431V483.521C1590.71 482.196 1591.11 481.137 1591.91 480.342C1592.83 479.415 1593.96 478.951 1595.28 478.951H1604.62C1606.08 478.951 1607.2 479.415 1608 480.342C1608.79 481.137 1609.19 482.196 1609.19 483.521V615.431C1609.19 616.755 1608.79 617.881 1608 618.808C1607.2 619.603 1606.08 620 1604.62 620H1595.28ZM1659.68 621.987C1653.06 621.987 1647.03 620.662 1641.6 618.013C1636.17 615.365 1631.8 611.789 1628.49 607.286C1625.18 602.783 1623.53 597.684 1623.53 591.989C1623.53 582.851 1627.23 575.566 1634.65 570.136C1642.07 564.706 1651.74 561.13 1663.66 559.409L1693.26 555.237V549.476C1693.26 543.119 1691.4 538.152 1687.69 534.576C1684.12 531 1678.22 529.212 1670.01 529.212C1664.05 529.212 1659.22 530.404 1655.51 532.788C1651.93 535.172 1649.42 538.218 1647.96 541.927C1647.17 543.913 1645.78 544.907 1643.79 544.907H1634.85C1633.39 544.907 1632.27 544.509 1631.47 543.715C1630.81 542.787 1630.48 541.728 1630.48 540.536C1630.48 538.549 1631.21 536.099 1632.66 533.186C1634.25 530.272 1636.64 527.424 1639.82 524.643C1642.99 521.862 1647.03 519.544 1651.93 517.69C1656.97 515.703 1663.06 514.71 1670.21 514.71C1678.16 514.71 1684.85 515.77 1690.28 517.889C1695.71 519.875 1699.94 522.59 1702.99 526.034C1706.17 529.477 1708.42 533.384 1709.74 537.755C1711.2 542.125 1711.93 546.562 1711.93 551.065V615.431C1711.93 616.755 1711.47 617.881 1710.54 618.808C1709.74 619.603 1708.69 620 1707.36 620H1698.22C1696.77 620 1695.64 619.603 1694.85 618.808C1694.05 617.881 1693.65 616.755 1693.65 615.431V606.888C1691.93 609.272 1689.61 611.656 1686.7 614.04C1683.79 616.292 1680.14 618.212 1675.77 619.801C1671.4 621.258 1666.04 621.987 1659.68 621.987ZM1663.85 607.087C1669.28 607.087 1674.25 605.961 1678.75 603.71C1683.26 601.326 1686.77 597.684 1689.28 592.784C1691.93 587.883 1693.26 581.725 1693.26 574.308V568.746L1670.21 572.123C1660.81 573.447 1653.72 575.699 1648.95 578.877C1644.19 581.923 1641.8 585.83 1641.8 590.598C1641.8 594.307 1642.86 597.419 1644.98 599.935C1647.23 602.319 1650.01 604.107 1653.33 605.299C1656.77 606.491 1660.28 607.087 1663.85 607.087ZM1770.29 621.987C1763 621.987 1756.71 620.728 1751.41 618.212C1746.12 615.563 1741.75 612.054 1738.3 607.683C1734.99 603.18 1732.48 598.081 1730.75 592.386C1729.17 586.691 1728.24 580.665 1727.97 574.308C1727.84 572.189 1727.77 570.203 1727.77 568.348C1727.77 566.494 1727.84 564.508 1727.97 562.389C1728.24 556.164 1729.17 550.204 1730.75 544.509C1732.48 538.814 1734.99 533.715 1738.3 529.212C1741.75 524.709 1746.12 521.2 1751.41 518.683C1756.71 516.035 1763 514.71 1770.29 514.71C1778.1 514.71 1784.59 516.101 1789.76 518.882C1794.92 521.663 1799.16 525.107 1802.47 529.212V483.521C1802.47 482.196 1802.87 481.137 1803.66 480.342C1804.59 479.415 1805.72 478.951 1807.04 478.951H1816.58C1817.9 478.951 1818.96 479.415 1819.75 480.342C1820.68 481.137 1821.14 482.196 1821.14 483.521V615.431C1821.14 616.755 1820.68 617.881 1819.75 618.808C1818.96 619.603 1817.9 620 1816.58 620H1807.64C1806.18 620 1805.05 619.603 1804.26 618.808C1803.46 617.881 1803.07 616.755 1803.07 615.431V607.087C1799.76 611.325 1795.45 614.901 1790.15 617.815C1784.86 620.596 1778.23 621.987 1770.29 621.987ZM1774.46 605.895C1781.08 605.895 1786.38 604.372 1790.35 601.326C1794.33 598.28 1797.31 594.439 1799.29 589.804C1801.28 585.036 1802.34 580.202 1802.47 575.301C1802.6 573.182 1802.67 570.666 1802.67 567.752C1802.67 564.706 1802.6 562.124 1802.47 560.005C1802.34 555.369 1801.21 550.8 1799.09 546.297C1797.11 541.794 1794.06 538.086 1789.96 535.172C1785.98 532.258 1780.82 530.802 1774.46 530.802C1767.71 530.802 1762.34 532.325 1758.37 535.371C1754.39 538.285 1751.55 542.191 1749.83 547.092C1748.1 551.86 1747.11 557.025 1746.85 562.587C1746.71 566.428 1746.71 570.269 1746.85 574.11C1747.11 579.672 1748.1 584.903 1749.83 589.804C1751.55 594.572 1754.39 598.478 1758.37 601.525C1762.34 604.438 1767.71 605.895 1774.46 605.895Z" fill="white"/>
</svg>
