<svg width="1920" height="1080" viewBox="0 0 1920 1080" fill="none" xmlns="http://www.w3.org/2000/svg">
<path d="M1114 44L678 159.223L1114 320V44Z" fill="#D0DAA3"/>
<path d="M1240 252.585C1240 201.045 1198.07 159.277 1146.35 159.277H678.097V592.692C678.097 644.216 720.02 686 771.737 686H1146.35C1198.08 686 1240 644.216 1240 592.692V252.585Z" fill="#8AA31B"/>
<path d="M1031.92 263.814H886.213C822.75 263.814 771.307 315.081 771.307 378.33V467.003C771.307 530.225 822.745 581.503 886.213 581.503H1031.92C1085.3 581.503 1130.19 545.22 1143.15 496.062C1143.86 493.258 1143.24 490.293 1141.43 488.018C1139.67 485.723 1136.91 484.385 1134.01 484.385C1112.97 484.385 1068.93 484.385 1052.06 484.486C1048.11 484.486 1044.46 486.52 1042.43 489.886C1034.69 502.425 1020.81 510.741 1004.98 510.741H913.12C888.857 510.741 869.217 491.165 869.217 467.003C869.217 467.003 869.217 467.003 869.217 466.987C869.217 464.616 870.153 462.353 871.845 460.662C873.53 458.981 875.842 458.04 878.202 458.04H1128.41C1138.57 458.04 1146.82 449.83 1146.82 439.689V378.33C1146.83 315.081 1095.35 263.814 1031.92 263.814ZM1046.25 384.65C1044.56 386.325 1042.29 387.283 1039.89 387.283C1005.29 387.283 912.821 387.283 878.202 387.283C875.842 387.283 873.53 386.325 871.845 384.65C870.164 382.98 869.217 380.69 869.217 378.314C869.217 354.146 888.851 334.565 913.12 334.565H1004.97C1029.24 334.565 1048.89 354.146 1048.89 378.314C1048.89 380.69 1047.94 382.98 1046.25 384.65Z" fill="white"/>
<path d="M463.823 978.987C450.182 978.987 439.322 974.815 431.243 966.471C423.164 957.995 418.728 946.473 417.933 931.904C417.801 930.182 417.734 927.997 417.734 925.348C417.734 922.567 417.801 920.316 417.933 918.594C418.463 909.191 420.648 900.979 424.489 893.96C428.33 886.808 433.561 881.312 440.183 877.471C446.937 873.631 454.818 871.71 463.823 871.71C473.889 871.71 482.299 873.829 489.053 878.067C495.94 882.305 501.172 888.331 504.747 896.145C508.323 903.959 510.111 913.098 510.111 923.56V926.938C510.111 928.395 509.648 929.52 508.721 930.315C507.926 931.11 506.866 931.507 505.542 931.507H436.806C436.806 931.639 436.806 931.904 436.806 932.301C436.806 932.699 436.806 933.03 436.806 933.295C437.071 938.725 438.263 943.824 440.382 948.592C442.501 953.227 445.547 957.002 449.52 959.915C453.493 962.829 458.261 964.286 463.823 964.286C468.591 964.286 472.565 963.557 475.743 962.1C478.922 960.644 481.504 959.054 483.491 957.333C485.477 955.478 486.802 954.088 487.464 953.161C488.656 951.439 489.583 950.446 490.245 950.181C490.907 949.784 491.967 949.585 493.424 949.585H502.959C504.284 949.585 505.343 949.982 506.138 950.777C507.065 951.439 507.462 952.432 507.33 953.757C507.198 955.743 506.138 958.194 504.151 961.107C502.165 963.888 499.317 966.67 495.609 969.451C491.901 972.232 487.398 974.55 482.1 976.404C476.803 978.126 470.71 978.987 463.823 978.987ZM436.806 917.799H491.239V917.203C491.239 911.244 490.113 905.946 487.861 901.311C485.742 896.675 482.63 893.033 478.524 890.384C474.419 887.603 469.518 886.212 463.823 886.212C458.129 886.212 453.228 887.603 449.123 890.384C445.149 893.033 442.103 896.675 439.984 901.311C437.865 905.946 436.806 911.244 436.806 917.203V917.799ZM533.07 977C531.614 977 530.488 976.603 529.693 975.808C528.899 974.881 528.501 973.755 528.501 972.431V842.706C528.501 841.249 528.899 840.123 529.693 839.329C530.488 838.402 531.614 837.938 533.07 837.938H581.543C596.509 837.938 608.363 841.448 617.104 848.467C625.845 855.486 630.215 865.883 630.215 879.657C630.215 889.854 627.633 898.198 622.467 904.688C617.435 911.045 610.548 915.482 601.807 917.998L632.4 970.842C632.798 971.636 632.996 972.365 632.996 973.027C632.996 974.086 632.533 975.013 631.606 975.808C630.811 976.603 629.884 977 628.825 977H619.289C617.037 977 615.382 976.404 614.322 975.212C613.263 974.02 612.336 972.828 611.541 971.636L582.735 921.177H547.97V972.431C547.97 973.755 547.506 974.881 546.579 975.808C545.785 976.603 544.659 977 543.202 977H533.07ZM547.97 904.29H580.749C590.682 904.29 598.098 902.238 602.999 898.132C607.899 893.894 610.349 887.669 610.349 879.458C610.349 871.379 607.899 865.221 602.999 860.983C598.231 856.744 590.814 854.625 580.749 854.625H547.97V904.29ZM688.108 978.987C674.466 978.987 663.606 974.815 655.527 966.471C647.448 957.995 643.012 946.473 642.217 931.904C642.085 930.182 642.018 927.997 642.018 925.348C642.018 922.567 642.085 920.316 642.217 918.594C642.747 909.191 644.932 900.979 648.773 893.96C652.614 886.808 657.845 881.312 664.467 877.471C671.221 873.631 679.102 871.71 688.108 871.71C698.173 871.71 706.583 873.829 713.337 878.067C720.224 882.305 725.456 888.331 729.031 896.145C732.607 903.959 734.395 913.098 734.395 923.56V926.938C734.395 928.395 733.932 929.52 733.005 930.315C732.21 931.11 731.151 931.507 729.826 931.507H661.09C661.09 931.639 661.09 931.904 661.09 932.301C661.09 932.699 661.09 933.03 661.09 933.295C661.355 938.725 662.547 943.824 664.666 948.592C666.785 953.227 669.831 957.002 673.804 959.915C677.777 962.829 682.545 964.286 688.108 964.286C692.875 964.286 696.849 963.557 700.027 962.1C703.206 960.644 705.788 959.054 707.775 957.333C709.761 955.478 711.086 954.088 711.748 953.161C712.94 951.439 713.867 950.446 714.529 950.181C715.191 949.784 716.251 949.585 717.708 949.585H727.244C728.568 949.585 729.627 949.982 730.422 950.777C731.349 951.439 731.746 952.432 731.614 953.757C731.482 955.743 730.422 958.194 728.435 961.107C726.449 963.888 723.601 966.67 719.893 969.451C716.185 972.232 711.682 974.55 706.384 976.404C701.087 978.126 694.994 978.987 688.108 978.987ZM661.09 917.799H715.523V917.203C715.523 911.244 714.397 905.946 712.145 901.311C710.026 896.675 706.914 893.033 702.808 890.384C698.703 887.603 693.802 886.212 688.108 886.212C682.413 886.212 677.512 887.603 673.407 890.384C669.433 893.033 666.387 896.675 664.268 901.311C662.149 905.946 661.09 911.244 661.09 917.203V917.799ZM754.971 977C753.646 977 752.52 976.603 751.593 975.808C750.799 974.881 750.401 973.755 750.401 972.431V840.521C750.401 839.196 750.799 838.137 751.593 837.342C752.52 836.415 753.646 835.951 754.971 835.951H764.308C765.632 835.951 766.692 836.415 767.486 837.342C768.413 838.137 768.877 839.196 768.877 840.521V909.654L808.013 877.074C809.602 875.75 810.794 874.889 811.589 874.491C812.516 873.962 813.973 873.697 815.959 873.697H826.488C827.68 873.697 828.673 874.094 829.468 874.889C830.263 875.683 830.66 876.677 830.66 877.869C830.66 878.398 830.461 878.994 830.064 879.657C829.799 880.319 829.203 880.981 828.276 881.643L782.386 919.786L833.243 969.252C834.832 970.577 835.627 971.769 835.627 972.828C835.627 974.02 835.229 975.013 834.435 975.808C833.64 976.603 832.647 977 831.455 977H821.124C819.138 977 817.681 976.801 816.754 976.404C815.827 975.874 814.635 974.947 813.178 973.623L768.877 931.308V972.431C768.877 973.755 768.413 974.881 767.486 975.808C766.692 976.603 765.632 977 764.308 977H754.971ZM849.458 977C848.134 977 847.008 976.603 846.081 975.808C845.286 974.881 844.889 973.755 844.889 972.431V840.521C844.889 839.196 845.286 838.137 846.081 837.342C847.008 836.415 848.134 835.951 849.458 835.951H858.795C860.252 835.951 861.378 836.415 862.172 837.342C862.967 838.137 863.364 839.196 863.364 840.521V972.431C863.364 973.755 862.967 974.881 862.172 975.808C861.378 976.603 860.252 977 858.795 977H849.458ZM913.857 978.987C907.235 978.987 901.209 977.662 895.779 975.013C890.349 972.365 885.978 968.789 882.667 964.286C879.356 959.783 877.701 954.684 877.701 948.989C877.701 939.851 881.409 932.566 888.826 927.136C896.242 921.706 905.91 918.13 917.83 916.409L947.43 912.237V906.476C947.43 900.119 945.576 895.152 941.868 891.576C938.292 888 932.398 886.212 924.187 886.212C918.227 886.212 913.393 887.404 909.685 889.788C906.109 892.172 903.593 895.218 902.136 898.927C901.341 900.913 899.95 901.907 897.964 901.907H889.024C887.567 901.907 886.442 901.509 885.647 900.715C884.985 899.787 884.654 898.728 884.654 897.536C884.654 895.549 885.382 893.099 886.839 890.186C888.428 887.272 890.812 884.424 893.991 881.643C897.169 878.862 901.209 876.544 906.109 874.69C911.142 872.703 917.234 871.71 924.386 871.71C932.332 871.71 939.02 872.77 944.45 874.889C949.88 876.875 954.118 879.59 957.165 883.034C960.343 886.477 962.595 890.384 963.919 894.755C965.376 899.125 966.104 903.562 966.104 908.065V972.431C966.104 973.755 965.641 974.881 964.714 975.808C963.919 976.603 962.859 977 961.535 977H952.397C950.94 977 949.814 976.603 949.019 975.808C948.225 974.881 947.828 973.755 947.828 972.431V963.888C946.106 966.272 943.788 968.656 940.874 971.04C937.961 973.292 934.319 975.212 929.948 976.801C925.578 978.258 920.214 978.987 913.857 978.987ZM918.029 964.087C923.459 964.087 928.425 962.961 932.928 960.71C937.431 958.326 940.941 954.684 943.457 949.784C946.106 944.883 947.43 938.725 947.43 931.308V925.746L924.386 929.123C914.982 930.447 907.897 932.699 903.129 935.877C898.361 938.923 895.977 942.83 895.977 947.598C895.977 951.307 897.037 954.419 899.156 956.935C901.407 959.319 904.189 961.107 907.5 962.299C910.943 963.491 914.453 964.087 918.029 964.087ZM991.286 977C989.962 977 988.836 976.603 987.909 975.808C987.114 974.881 986.717 973.755 986.717 972.431V878.266C986.717 876.942 987.114 875.882 987.909 875.087C988.836 874.16 989.962 873.697 991.286 873.697H1000.23C1001.55 873.697 1002.61 874.16 1003.4 875.087C1004.33 875.882 1004.79 876.942 1004.79 878.266V885.219C1007.84 881.113 1011.68 877.869 1016.32 875.485C1020.95 872.968 1026.51 871.71 1033 871.71C1047.97 871.578 1058.57 877.67 1064.79 889.987C1067.84 884.424 1072.27 879.988 1078.1 876.677C1083.93 873.366 1090.55 871.71 1097.97 871.71C1104.85 871.71 1111.08 873.299 1116.64 876.478C1122.34 879.657 1126.77 884.491 1129.95 890.98C1133.26 897.337 1134.92 905.35 1134.92 915.018V972.431C1134.92 973.755 1134.45 974.881 1133.53 975.808C1132.73 976.603 1131.67 977 1130.35 977H1121.01C1119.69 977 1118.56 976.603 1117.63 975.808C1116.84 974.881 1116.44 973.755 1116.44 972.431V916.806C1116.44 909.389 1115.38 903.562 1113.26 899.324C1111.14 895.086 1108.3 892.106 1104.72 890.384C1101.14 888.663 1097.24 887.802 1093 887.802C1089.56 887.802 1086.05 888.663 1082.47 890.384C1078.9 892.106 1075.92 895.086 1073.53 899.324C1071.28 903.562 1070.15 909.389 1070.15 916.806V972.431C1070.15 973.755 1069.69 974.881 1068.76 975.808C1067.97 976.603 1066.91 977 1065.58 977H1056.25C1054.92 977 1053.8 976.603 1052.87 975.808C1052.08 974.881 1051.68 973.755 1051.68 972.431V916.806C1051.68 909.389 1050.55 903.562 1048.3 899.324C1046.05 895.086 1043.14 892.106 1039.56 890.384C1035.98 888.663 1032.21 887.802 1028.24 887.802C1024.79 887.802 1021.28 888.663 1017.71 890.384C1014.13 892.106 1011.15 895.086 1008.77 899.324C1006.52 903.562 1005.39 909.323 1005.39 916.607V972.431C1005.39 973.755 1004.93 974.881 1004 975.808C1003.21 976.603 1002.15 977 1000.82 977H991.286ZM1206.37 978.987C1198.42 978.987 1191.8 977.596 1186.5 974.815C1181.21 971.901 1176.97 968.325 1173.79 964.087V972.431C1173.79 973.755 1173.33 974.881 1172.4 975.808C1171.6 976.603 1170.54 977 1169.22 977H1160.08C1158.76 977 1157.63 976.603 1156.7 975.808C1155.91 974.881 1155.51 973.755 1155.51 972.431V840.521C1155.51 839.196 1155.91 838.137 1156.7 837.342C1157.63 836.415 1158.76 835.951 1160.08 835.951H1169.62C1171.07 835.951 1172.2 836.415 1172.99 837.342C1173.79 838.137 1174.19 839.196 1174.19 840.521V886.212C1177.5 882.107 1181.74 878.663 1186.9 875.882C1192.2 873.101 1198.69 871.71 1206.37 871.71C1213.79 871.71 1220.08 873.035 1225.24 875.683C1230.54 878.2 1234.84 881.709 1238.16 886.212C1241.6 890.715 1244.18 895.814 1245.9 901.509C1247.62 907.204 1248.55 913.164 1248.68 919.389C1248.82 921.508 1248.88 923.494 1248.88 925.348C1248.88 927.203 1248.82 929.189 1248.68 931.308C1248.55 937.665 1247.62 943.691 1245.9 949.386C1244.18 955.081 1241.6 960.18 1238.16 964.683C1234.84 969.054 1230.54 972.563 1225.24 975.212C1220.08 977.728 1213.79 978.987 1206.37 978.987ZM1202.2 962.895C1209.08 962.895 1214.45 961.438 1218.29 958.525C1222.26 955.478 1225.11 951.572 1226.83 946.804C1228.55 941.903 1229.55 936.672 1229.81 931.11C1229.94 927.269 1229.94 923.428 1229.81 919.587C1229.55 914.025 1228.55 908.86 1226.83 904.092C1225.11 899.191 1222.26 895.285 1218.29 892.371C1214.45 889.325 1209.08 887.802 1202.2 887.802C1195.97 887.802 1190.81 889.258 1186.7 892.172C1182.6 895.086 1179.48 898.794 1177.37 903.297C1175.38 907.8 1174.32 912.369 1174.19 917.005C1174.05 919.124 1173.99 921.706 1173.99 924.752C1173.99 927.666 1174.05 930.182 1174.19 932.301C1174.45 937.202 1175.51 942.036 1177.37 946.804C1179.35 951.439 1182.33 955.28 1186.3 958.326C1190.41 961.372 1195.71 962.895 1202.2 962.895ZM1270.28 977C1268.96 977 1267.83 976.603 1266.91 975.808C1266.11 974.881 1265.71 973.755 1265.71 972.431V840.521C1265.71 839.196 1266.11 838.137 1266.91 837.342C1267.83 836.415 1268.96 835.951 1270.28 835.951H1279.62C1281.08 835.951 1282.2 836.415 1283 837.342C1283.79 838.137 1284.19 839.196 1284.19 840.521V972.431C1284.19 973.755 1283.79 974.881 1283 975.808C1282.2 976.603 1281.08 977 1279.62 977H1270.28ZM1334.68 978.987C1328.06 978.987 1322.03 977.662 1316.6 975.013C1311.17 972.365 1306.8 968.789 1303.49 964.286C1300.18 959.783 1298.53 954.684 1298.53 948.989C1298.53 939.851 1302.23 932.566 1309.65 927.136C1317.07 921.706 1326.74 918.13 1338.66 916.409L1368.26 912.237V906.476C1368.26 900.119 1366.4 895.152 1362.69 891.576C1359.12 888 1353.22 886.212 1345.01 886.212C1339.05 886.212 1334.22 887.404 1330.51 889.788C1326.93 892.172 1324.42 895.218 1322.96 898.927C1322.17 900.913 1320.78 901.907 1318.79 901.907H1309.85C1308.39 901.907 1307.27 901.509 1306.47 900.715C1305.81 899.787 1305.48 898.728 1305.48 897.536C1305.48 895.549 1306.21 893.099 1307.66 890.186C1309.25 887.272 1311.64 884.424 1314.82 881.643C1317.99 878.862 1322.03 876.544 1326.93 874.69C1331.97 872.703 1338.06 871.71 1345.21 871.71C1353.16 871.71 1359.85 872.77 1365.28 874.889C1370.71 876.875 1374.94 879.59 1377.99 883.034C1381.17 886.477 1383.42 890.384 1384.74 894.755C1386.2 899.125 1386.93 903.562 1386.93 908.065V972.431C1386.93 973.755 1386.47 974.881 1385.54 975.808C1384.74 976.603 1383.69 977 1382.36 977H1373.22C1371.77 977 1370.64 976.603 1369.85 975.808C1369.05 974.881 1368.65 973.755 1368.65 972.431V963.888C1366.93 966.272 1364.61 968.656 1361.7 971.04C1358.79 973.292 1355.14 975.212 1350.77 976.801C1346.4 978.258 1341.04 978.987 1334.68 978.987ZM1338.85 964.087C1344.28 964.087 1349.25 962.961 1353.75 960.71C1358.26 958.326 1361.77 954.684 1364.28 949.784C1366.93 944.883 1368.26 938.725 1368.26 931.308V925.746L1345.21 929.123C1335.81 930.447 1328.72 932.699 1323.95 935.877C1319.19 938.923 1316.8 942.83 1316.8 947.598C1316.8 951.307 1317.86 954.419 1319.98 956.935C1322.23 959.319 1325.01 961.107 1328.33 962.299C1331.77 963.491 1335.28 964.087 1338.85 964.087ZM1445.29 978.987C1438 978.987 1431.71 977.728 1426.41 975.212C1421.12 972.563 1416.75 969.054 1413.3 964.683C1409.99 960.18 1407.48 955.081 1405.75 949.386C1404.17 943.691 1403.24 937.665 1402.97 931.308C1402.84 929.189 1402.77 927.203 1402.77 925.348C1402.77 923.494 1402.84 921.508 1402.97 919.389C1403.24 913.164 1404.17 907.204 1405.75 901.509C1407.48 895.814 1409.99 890.715 1413.3 886.212C1416.75 881.709 1421.12 878.2 1426.41 875.683C1431.71 873.035 1438 871.71 1445.29 871.71C1453.1 871.71 1459.59 873.101 1464.76 875.882C1469.92 878.663 1474.16 882.107 1477.47 886.212V840.521C1477.47 839.196 1477.87 838.137 1478.66 837.342C1479.59 836.415 1480.72 835.951 1482.04 835.951H1491.58C1492.9 835.951 1493.96 836.415 1494.75 837.342C1495.68 838.137 1496.14 839.196 1496.14 840.521V972.431C1496.14 973.755 1495.68 974.881 1494.75 975.808C1493.96 976.603 1492.9 977 1491.58 977H1482.64C1481.18 977 1480.05 976.603 1479.26 975.808C1478.46 974.881 1478.07 973.755 1478.07 972.431V964.087C1474.76 968.325 1470.45 971.901 1465.15 974.815C1459.86 977.596 1453.23 978.987 1445.29 978.987ZM1449.46 962.895C1456.08 962.895 1461.38 961.372 1465.35 958.326C1469.33 955.28 1472.31 951.439 1474.29 946.804C1476.28 942.036 1477.34 937.202 1477.47 932.301C1477.6 930.182 1477.67 927.666 1477.67 924.752C1477.67 921.706 1477.6 919.124 1477.47 917.005C1477.34 912.369 1476.21 907.8 1474.09 903.297C1472.11 898.794 1469.06 895.086 1464.96 892.172C1460.98 889.258 1455.82 887.802 1449.46 887.802C1442.71 887.802 1437.34 889.325 1433.37 892.371C1429.39 895.285 1426.55 899.191 1424.83 904.092C1423.1 908.86 1422.11 914.025 1421.85 919.587C1421.71 923.428 1421.71 927.269 1421.85 931.11C1422.11 936.672 1423.1 941.903 1424.83 946.804C1426.55 951.572 1429.39 955.478 1433.37 958.525C1437.34 961.438 1442.71 962.895 1449.46 962.895Z" fill="#1D1D1B"/>
</svg>
