<svg width="1920" height="1080" viewBox="0 0 1920 1080" fill="none" xmlns="http://www.w3.org/2000/svg">
<path d="M760.742 561.06H814.265V560.474C814.265 554.609 813.186 549.396 811.044 544.836C808.894 540.276 805.798 536.662 801.757 534.001C797.724 531.349 792.904 529.993 787.307 529.993C781.701 529.993 776.915 531.332 772.941 534.001C768.967 536.67 765.946 540.276 763.854 544.836C761.779 549.396 760.734 554.609 760.734 560.474L760.742 561.06ZM787.508 621.226C773.962 621.226 763.21 617.093 755.262 608.81C747.321 600.543 742.954 589.248 742.176 574.915C742.042 573.233 742 571.041 742 568.381C742 565.72 742.05 563.528 742.176 561.846C742.703 552.609 744.853 544.493 748.627 537.515C752.4 530.554 757.562 525.191 764.147 521.4C770.724 517.627 778.446 515.728 787.307 515.728C797.197 515.728 805.505 517.803 812.215 521.986C818.917 526.153 824.029 532.068 827.552 539.766C831.074 547.447 832.84 556.416 832.84 566.732V570.046C832.84 571.485 832.396 572.598 831.568 573.367C830.715 574.154 829.644 574.53 828.347 574.53H760.742V575.325V576.304C761.001 581.651 762.181 586.621 764.256 591.247C766.331 595.883 769.368 599.614 773.343 602.484C777.317 605.346 781.969 606.785 787.315 606.785C792.001 606.785 795.908 606.065 799.029 604.626C802.15 603.204 804.702 601.631 806.643 599.865C808.601 598.092 809.914 596.686 810.55 595.657C811.738 594.084 812.642 593.138 813.295 592.812C813.939 592.502 814.976 592.31 816.415 592.31H825.996C827.167 592.31 828.171 592.695 829.016 593.398C829.869 594.117 830.221 595.13 830.095 596.427C829.953 598.368 828.916 600.752 826.958 603.547C825.025 606.358 822.247 609.119 818.675 611.864C815.077 614.583 810.659 616.833 805.371 618.599C800.108 620.348 794.159 621.226 787.508 621.226Z" fill="#1D1D1B"/>
<path d="M872.688 619.27C871.383 619.27 870.304 618.843 869.459 617.998C868.597 617.162 868.195 616.082 868.195 614.777V499.908H830.686C829.381 499.908 828.31 499.481 827.457 498.653C826.603 497.782 826.193 496.711 826.193 495.415V487.215C826.193 485.776 826.612 484.646 827.457 483.801C828.302 482.956 829.373 482.538 830.686 482.538H924.848C926.279 482.538 927.425 482.965 928.27 483.801C929.115 484.663 929.542 485.776 929.542 487.215V495.415C929.542 496.703 929.107 497.782 928.27 498.653C927.416 499.489 926.279 499.908 924.848 499.908H887.54V614.777C887.54 616.082 887.105 617.162 886.268 617.998C885.423 618.86 884.285 619.27 882.846 619.27H872.688Z" fill="#1D1D1B"/>
<path d="M951.171 619.271C949.866 619.271 948.786 618.845 947.941 618C947.088 617.163 946.678 616.084 946.678 614.778V522.173C946.678 520.893 947.096 519.805 947.941 518.969C948.786 518.115 949.857 517.68 951.171 517.68H960.55C961.847 517.68 962.926 518.132 963.772 518.969C964.617 519.805 965.043 520.885 965.043 522.173V614.778C965.043 616.084 964.608 617.163 963.772 618C962.926 618.861 961.855 619.271 960.55 619.271H951.171ZM949.606 498.738C948.301 498.738 947.222 498.328 946.385 497.466C945.523 496.629 945.113 495.55 945.113 494.245V483.702C945.113 482.397 945.532 481.284 946.385 480.372C947.222 479.485 948.301 479 949.606 479H961.914C963.203 479 964.315 479.485 965.227 480.372C966.131 481.284 966.583 482.397 966.583 483.702V494.245C966.583 495.55 966.131 496.629 965.227 497.466C964.315 498.336 963.203 498.738 961.914 498.738H949.606Z" fill="#1D1D1B"/>
<path d="M993.587 619.267C992.29 619.267 991.219 618.84 990.366 617.995C989.512 617.159 989.094 616.079 989.094 614.774V485.053C989.094 483.765 989.52 482.686 990.366 481.832C991.211 480.979 992.282 480.56 993.587 480.56H1002.78C1004.21 480.56 1005.32 480.987 1006.1 481.832C1006.87 482.686 1007.28 483.756 1007.28 485.053V614.774C1007.28 616.079 1006.87 617.159 1006.1 617.995C1005.31 618.857 1004.2 619.267 1002.78 619.267H993.587Z" fill="#1D1D1B"/>
<path d="M1077.43 605.412C1084.21 605.412 1089.51 603.923 1093.35 601.003C1097.19 598.074 1099.96 594.234 1101.65 589.482C1103.34 584.738 1104.32 579.625 1104.59 574.153C1104.73 570.372 1104.73 566.598 1104.59 562.825C1104.33 557.378 1103.35 552.249 1101.65 547.496C1099.96 542.752 1097.19 538.912 1093.35 535.958C1089.51 533.022 1084.2 531.574 1077.43 531.574C1071.32 531.574 1066.22 533.013 1062.19 535.875C1058.16 538.753 1055.13 542.393 1053.12 546.827C1051.09 551.253 1050.02 555.746 1049.88 560.306C1049.75 562.398 1049.7 564.883 1049.7 567.82C1049.7 570.748 1049.75 573.25 1049.88 575.325C1050.14 580.144 1051.22 584.88 1053.12 589.482C1055 594.117 1057.92 597.924 1061.91 600.919C1065.88 603.906 1071.05 605.412 1077.43 605.412ZM1081.53 621.226C1073.72 621.226 1067.21 619.82 1062 617.009C1056.79 614.214 1052.62 610.734 1049.5 606.567V614.758C1049.5 616.063 1049.07 617.126 1048.23 618.004C1047.37 618.841 1046.31 619.251 1045.01 619.251H1036.02C1034.72 619.251 1033.65 618.824 1032.79 618.004C1031.94 617.134 1031.53 616.08 1031.53 614.758V485.037C1031.53 483.757 1031.95 482.669 1032.79 481.816C1033.65 480.971 1034.71 480.544 1036.02 480.544H1045.6C1046.89 480.544 1047.94 480.996 1048.72 481.816C1049.51 482.669 1049.89 483.732 1049.89 485.037V529.976C1053.15 525.952 1057.36 522.529 1062.49 519.81C1067.63 517.083 1073.99 515.71 1081.54 515.71C1088.83 515.71 1095.04 516.974 1100.2 519.517C1105.34 522.069 1109.58 525.55 1112.89 529.976C1116.21 534.394 1118.72 539.422 1120.41 545.011C1122.11 550.634 1123.07 556.482 1123.35 562.607C1123.48 564.699 1123.53 566.632 1123.53 568.472C1123.53 570.305 1123.47 572.237 1123.35 574.329C1123.08 580.571 1122.12 586.486 1120.41 592.092C1118.72 597.698 1116.21 602.693 1112.89 607.044C1109.58 611.403 1105.35 614.867 1100.2 617.377C1095.04 619.954 1088.82 621.226 1081.53 621.226Z" fill="#1D1D1B"/>
<path d="M1180.86 621.23C1172.52 621.23 1165.45 619.356 1159.66 615.658C1153.87 611.951 1149.46 606.764 1146.47 600.12C1143.47 593.485 1141.98 585.871 1141.98 577.279V522.174C1141.98 520.894 1142.39 519.806 1143.24 518.969C1144.09 518.116 1145.16 517.681 1146.47 517.681H1156.24C1157.54 517.681 1158.61 518.133 1159.47 518.969C1160.31 519.806 1160.73 520.885 1160.73 522.174V576.308C1160.73 595.711 1169.2 605.417 1186.12 605.417C1194.2 605.417 1200.68 602.831 1205.57 597.685C1210.45 592.557 1212.89 585.411 1212.89 576.291V522.166C1212.89 520.877 1213.31 519.798 1214.15 518.953C1215.01 518.099 1216.07 517.673 1217.38 517.673H1227.15C1228.45 517.673 1229.49 518.116 1230.27 518.953C1231.06 519.798 1231.45 520.869 1231.45 522.166V614.762C1231.45 616.068 1231.06 617.13 1230.27 618.009C1229.49 618.845 1228.45 619.255 1227.15 619.255H1217.96C1216.66 619.255 1215.6 618.829 1214.74 618.009C1213.89 617.139 1213.47 616.084 1213.47 614.762V606.178C1209.96 610.738 1205.69 614.369 1200.68 617.13C1195.68 619.858 1189.06 621.23 1180.86 621.23Z" fill="#1D1D1B"/>
<path d="M1297.08 605.412C1303.59 605.412 1308.79 603.906 1312.69 600.919C1316.63 597.923 1319.54 594.116 1321.51 589.481C1323.44 584.854 1324.49 580.143 1324.63 575.324C1324.75 573.249 1324.82 570.731 1324.82 567.819C1324.82 564.865 1324.74 562.397 1324.63 560.306C1324.49 555.746 1323.41 551.252 1321.4 546.826C1319.39 542.4 1316.37 538.752 1312.41 535.874C1308.43 533.013 1303.34 531.573 1297.08 531.573C1290.45 531.573 1285.16 533.046 1281.25 535.958C1277.33 538.911 1274.54 542.752 1272.84 547.496C1271.17 552.248 1270.17 557.377 1269.9 562.824C1269.78 566.597 1269.78 570.371 1269.9 574.153C1270.16 579.625 1271.15 584.737 1272.84 589.481C1274.54 594.233 1277.33 598.074 1281.25 601.002C1285.16 603.922 1290.45 605.412 1297.08 605.412ZM1292.97 621.225C1285.81 621.225 1279.6 619.953 1274.39 617.401C1269.19 614.866 1264.92 611.419 1261.61 607.06C1258.29 602.701 1255.81 597.714 1254.17 592.108C1252.56 586.502 1251.61 580.587 1251.34 574.345C1251.21 572.253 1251.15 570.312 1251.15 568.48C1251.15 566.648 1251.22 564.706 1251.34 562.615C1251.61 556.515 1252.56 550.65 1254.17 545.027C1255.8 539.438 1258.28 534.418 1261.61 529.992C1264.93 525.566 1269.19 522.085 1274.39 519.533C1279.6 516.998 1285.79 515.727 1292.97 515.727C1300.65 515.727 1307.03 517.099 1312.11 519.826C1317.19 522.554 1321.35 525.951 1324.61 529.992V485.053C1324.61 483.765 1325.03 482.686 1325.88 481.832C1326.72 480.995 1327.8 480.56 1329.1 480.56H1338.48C1339.77 480.56 1340.85 481.004 1341.7 481.832C1342.55 482.686 1342.97 483.756 1342.97 485.053V614.774C1342.97 616.079 1342.53 617.142 1341.7 618.012C1340.85 618.857 1339.79 619.267 1338.48 619.267H1329.67C1328.25 619.267 1327.13 618.84 1326.36 618.012C1325.59 617.142 1325.19 616.096 1325.19 614.774V606.575C1321.92 610.741 1317.7 614.222 1312.49 617.017C1307.29 619.819 1300.8 621.225 1292.97 621.225Z" fill="#1D1D1B"/>
<path d="M1402.28 621.227C1394.97 621.227 1388.74 620.315 1383.53 618.483C1378.31 616.667 1374.07 614.467 1370.82 611.848C1367.54 609.237 1365.1 606.635 1363.5 604.033C1361.87 601.414 1360.97 599.331 1360.86 597.775C1360.72 596.344 1361.18 595.214 1362.22 594.461C1363.27 593.675 1364.3 593.282 1365.35 593.282H1374.15C1374.8 593.282 1375.36 593.382 1375.8 593.575C1376.26 593.759 1376.89 594.328 1377.66 595.214C1379.36 597.047 1381.24 598.879 1383.33 600.686C1385.41 602.519 1387.98 604.008 1391.05 605.171C1394.1 606.359 1397.91 606.937 1402.47 606.937C1409.12 606.937 1414.59 605.673 1418.89 603.138C1423.18 600.578 1425.35 596.838 1425.35 591.901C1425.35 588.646 1424.45 586.044 1422.7 584.086C1420.94 582.129 1417.81 580.363 1413.32 578.807C1408.83 577.234 1402.69 575.602 1394.86 573.921C1387.04 572.088 1380.85 569.854 1376.29 567.169C1371.73 564.508 1368.48 561.32 1366.53 557.597C1364.58 553.882 1363.6 549.682 1363.6 544.979C1363.6 540.177 1365.02 535.5 1367.89 531.007C1370.77 526.514 1374.97 522.841 1380.49 519.979C1386.05 517.118 1392.97 515.678 1401.31 515.678C1408.08 515.678 1413.87 516.54 1418.69 518.23C1423.49 519.912 1427.49 522.037 1430.61 524.581C1433.73 527.133 1436.05 529.634 1437.64 532.086C1439.21 534.571 1440.05 536.663 1440.17 538.344C1440.31 539.641 1439.93 540.729 1439.01 541.566C1438.1 542.427 1437.05 542.837 1435.87 542.837H1427.67C1426.78 542.837 1426.02 542.653 1425.43 542.252C1424.83 541.859 1424.27 541.398 1423.78 540.896C1422.46 539.206 1420.94 537.508 1419.17 535.809C1417.42 534.128 1415.14 532.722 1412.34 531.626C1409.55 530.513 1405.88 529.961 1401.32 529.961C1394.8 529.961 1389.91 531.316 1386.67 534.061C1383.4 536.788 1381.79 540.235 1381.79 544.419C1381.79 546.887 1382.49 549.096 1383.93 551.054C1385.35 552.987 1388.1 554.752 1392.13 556.317C1396.16 557.89 1402.14 559.588 1410.1 561.404C1418.69 563.085 1425.46 565.386 1430.42 568.223C1435.37 571.084 1438.87 574.398 1440.96 578.188C1443.03 581.961 1444.1 586.329 1444.1 591.265C1444.1 596.729 1442.52 601.757 1439.4 606.317C1436.26 610.877 1431.58 614.5 1425.35 617.169C1419.09 619.889 1411.38 621.227 1402.28 621.227Z" fill="#1D1D1B"/>
<path d="M1497.33 606.567C1502.64 606.567 1507.53 605.413 1511.97 603.154C1516.39 600.886 1519.87 597.322 1522.4 592.502C1524.97 587.683 1526.23 581.634 1526.23 574.346V568.874L1503.56 572.188C1494.31 573.493 1487.36 575.668 1482.66 578.722C1477.97 581.793 1475.63 585.667 1475.63 590.361C1475.63 594.008 1476.7 597.046 1478.86 599.447C1481.01 601.848 1483.75 603.647 1487.05 604.81C1490.38 605.982 1493.79 606.567 1497.33 606.567ZM1493.23 621.226C1486.72 621.226 1480.79 619.921 1475.43 617.319C1470.08 614.7 1465.82 611.194 1462.54 606.751C1459.28 602.334 1457.67 597.305 1457.67 591.699C1457.67 582.73 1461.33 575.559 1468.61 570.238C1475.9 564.892 1485.41 561.352 1497.12 559.671L1526.23 555.579V549.898C1526.23 543.656 1524.43 538.77 1520.87 535.256C1517.27 531.725 1511.44 529.976 1503.36 529.976C1497.64 529.976 1492.95 531.156 1489.31 533.491C1485.64 535.817 1483.11 538.845 1481.66 542.477C1480.89 544.426 1479.53 545.422 1477.57 545.422H1468.79C1467.35 545.422 1466.27 544.978 1465.57 544.142C1464.85 543.297 1464.49 542.284 1464.49 541.121C1464.49 539.18 1465.24 536.77 1466.73 533.9C1468.24 531.022 1470.54 528.228 1473.68 525.5C1476.8 522.772 1480.82 520.446 1485.69 518.572C1490.58 516.673 1496.54 515.728 1503.57 515.728C1511.39 515.728 1517.98 516.74 1523.31 518.748C1528.64 520.773 1532.86 523.475 1535.91 526.872C1538.95 530.253 1541.17 534.093 1542.54 538.394C1543.92 542.694 1544.6 547.053 1544.6 551.479V614.758C1544.6 616.064 1544.16 617.126 1543.33 618.005C1542.48 618.842 1541.4 619.252 1540.09 619.252H1531.11C1529.68 619.252 1528.57 618.825 1527.79 618.005C1527.01 617.135 1526.63 616.08 1526.63 614.758V606.358C1524.93 608.684 1522.63 611.044 1519.79 613.286C1516.92 615.562 1513.34 617.453 1509.06 618.959C1504.75 620.481 1499.47 621.226 1493.23 621.226Z" fill="#1D1D1B"/>
<path d="M1600.98 619.272C1599.03 619.272 1597.48 618.812 1596.39 617.917C1595.25 617.005 1594.4 615.825 1593.75 614.386L1557.62 523.739C1557.35 523.103 1557.21 522.45 1557.21 521.781C1557.21 520.618 1557.62 519.639 1558.41 518.852C1559.2 518.066 1560.16 517.673 1561.32 517.673H1570.72C1572.14 517.673 1573.25 518.066 1574.03 518.852C1574.81 519.639 1575.32 520.358 1575.6 521.011L1605.28 597.978L1634.99 521.011C1635.25 520.358 1635.74 519.639 1636.47 518.852C1637.18 518.066 1638.25 517.673 1639.69 517.673H1649.27C1650.31 517.673 1651.26 518.066 1652.11 518.852C1652.96 519.639 1653.38 520.618 1653.38 521.781C1653.38 522.45 1653.24 523.103 1652.98 523.739L1616.62 614.386C1616.1 615.825 1615.3 617.005 1614.18 617.917C1613.06 618.812 1611.51 619.272 1609.42 619.272H1600.98Z" fill="#1D1D1B"/>
<path d="M1673.94 619.271C1672.65 619.271 1671.57 618.845 1670.71 618C1669.85 617.163 1669.45 616.084 1669.45 614.778V522.173C1669.45 520.893 1669.88 519.805 1670.71 518.969C1671.57 518.115 1672.63 517.68 1673.94 517.68H1683.32C1684.62 517.68 1685.68 518.132 1686.54 518.969C1687.4 519.805 1687.81 520.885 1687.81 522.173V614.778C1687.81 616.084 1687.38 617.163 1686.54 618C1685.68 618.861 1684.63 619.271 1683.32 619.271H1673.94ZM1672.36 498.738C1671.07 498.738 1669.99 498.328 1669.13 497.466C1668.28 496.629 1667.88 495.55 1667.88 494.245V483.702C1667.88 482.397 1668.29 481.284 1669.13 480.372C1669.99 479.485 1671.06 479 1672.36 479H1684.67C1685.99 479 1687.09 479.485 1688.02 480.372C1688.89 481.284 1689.36 482.397 1689.36 483.702V494.245C1689.36 495.55 1688.89 496.629 1688.02 497.466C1687.09 498.336 1685.99 498.738 1684.67 498.738H1672.36Z" fill="#1D1D1B"/>
<path d="M1746.67 621.227C1739.38 621.227 1733.13 620.315 1727.91 618.483C1722.72 616.667 1718.48 614.467 1715.2 611.848C1711.95 609.237 1709.51 606.635 1707.88 604.033C1706.28 601.414 1705.38 599.331 1705.26 597.775C1705.1 596.344 1705.59 595.214 1706.64 594.461C1707.67 593.675 1708.71 593.282 1709.76 593.282H1718.53C1719.19 593.282 1719.74 593.382 1720.2 593.575C1720.67 593.759 1721.28 594.328 1722.07 595.214C1723.75 597.047 1725.64 598.879 1727.75 600.686C1729.82 602.519 1732.41 604.008 1735.44 605.171C1738.5 606.359 1742.32 606.937 1746.88 606.937C1753.52 606.937 1758.98 605.673 1763.29 603.138C1767.61 600.578 1769.73 596.838 1769.73 591.901C1769.73 588.646 1768.86 586.044 1767.1 584.086C1765.36 582.129 1762.22 580.363 1757.74 578.807C1753.23 577.234 1747.1 575.602 1739.28 573.921C1731.44 572.088 1725.27 569.854 1720.71 567.169C1716.15 564.508 1712.88 561.32 1710.94 557.597C1709 553.882 1708.01 549.682 1708.01 544.979C1708.01 540.177 1709.43 535.5 1712.31 531.007C1715.17 526.514 1719.37 522.841 1724.91 519.979C1730.43 517.118 1737.38 515.678 1745.73 515.678C1752.5 515.678 1758.28 516.54 1763.1 518.23C1767.93 519.912 1771.89 522.037 1775.03 524.581C1778.15 527.133 1780.48 529.634 1782.04 532.086C1783.61 534.571 1784.47 536.663 1784.62 538.344C1784.73 539.641 1784.36 540.729 1783.41 541.566C1782.5 542.427 1781.48 542.837 1780.29 542.837H1772.1C1771.19 542.837 1770.45 542.653 1769.83 542.252C1769.26 541.859 1768.7 541.398 1768.17 540.896C1766.89 539.206 1765.36 537.508 1763.59 535.809C1761.84 534.128 1759.57 532.722 1756.77 531.626C1753.94 530.513 1750.31 529.961 1745.74 529.961C1739.22 529.961 1734.33 531.316 1731.08 534.061C1727.83 536.788 1726.2 540.235 1726.2 544.419C1726.2 546.887 1726.9 549.096 1728.35 551.054C1729.77 552.987 1732.51 554.752 1736.54 556.317C1740.56 557.89 1746.56 559.588 1754.52 561.404C1763.1 563.085 1769.87 565.386 1774.83 568.223C1779.8 571.093 1783.29 574.398 1785.39 578.188C1787.48 581.961 1788.51 586.329 1788.51 591.265C1788.51 596.729 1786.93 601.757 1783.82 606.317C1780.68 610.877 1775.99 614.5 1769.73 617.169C1763.49 619.889 1755.79 621.227 1746.67 621.227Z" fill="#1D1D1B"/>
<path d="M508 203L94 312.378L508 465V203Z" fill="#D0DAA3"/>
<path d="M628.179 401.041C628.179 352.053 588.325 312.352 539.169 312.352H94.0918V724.311C94.0918 773.284 133.94 813 183.096 813H539.169C588.336 813 628.179 773.284 628.179 724.311V401.041Z" fill="#8AA31B"/>
<path d="M430.397 411.714H291.906C231.584 411.714 182.688 460.443 182.688 520.56V604.844C182.688 664.937 231.579 713.676 291.906 713.676H430.397C481.135 713.676 523.801 679.189 536.121 632.464C536.802 629.799 536.207 626.981 534.493 624.819C532.814 622.637 530.19 621.366 527.433 621.366C507.438 621.366 465.581 621.366 449.543 621.462C445.789 621.462 442.32 623.395 440.392 626.594C433.037 638.512 419.842 646.417 404.796 646.417H317.481C294.418 646.417 275.751 627.81 275.751 604.844C275.751 604.844 275.751 604.844 275.751 604.829C275.751 602.576 276.641 600.424 278.248 598.817C279.851 597.22 282.048 596.324 284.291 596.324H522.112C531.772 596.324 539.61 588.522 539.61 578.883V520.56C539.62 460.443 490.693 411.714 430.397 411.714ZM444.019 526.568C442.416 528.16 440.26 529.07 437.976 529.07C405.086 529.07 317.196 529.07 284.291 529.07C282.048 529.07 279.851 528.16 278.248 526.568C276.651 524.981 275.751 522.804 275.751 520.545C275.751 497.574 294.413 478.963 317.481 478.963H404.786C427.849 478.963 446.531 497.574 446.531 520.545C446.531 522.804 445.626 524.981 444.019 526.568Z" fill="white"/>
</svg>
