<svg width="1920" height="1080" viewBox="0 0 1920 1080" fill="none" xmlns="http://www.w3.org/2000/svg">
<path d="M455.742 919.06H509.265V918.474C509.265 912.609 508.186 907.396 506.044 902.836C503.894 898.276 500.798 894.662 496.757 892.001C492.724 889.349 487.904 887.993 482.307 887.993C476.701 887.993 471.915 889.332 467.941 892.001C463.967 894.67 460.946 898.276 458.854 902.836C456.779 907.396 455.734 912.609 455.734 918.474L455.742 919.06ZM482.508 979.226C468.962 979.226 458.21 975.093 450.262 966.81C442.321 958.543 437.954 947.248 437.176 932.915C437.042 931.233 437 929.041 437 926.381C437 923.72 437.05 921.528 437.176 919.846C437.703 910.609 439.853 902.493 443.627 895.515C447.4 888.554 452.562 883.191 459.147 879.4C465.724 875.627 473.446 873.728 482.307 873.728C492.197 873.728 500.505 875.803 507.215 879.986C513.917 884.153 519.029 890.068 522.552 897.766C526.074 905.447 527.84 914.416 527.84 924.732V928.046C527.84 929.485 527.396 930.598 526.568 931.367C525.715 932.154 524.644 932.53 523.347 932.53H455.742V933.325V934.304C456.001 939.651 457.181 944.621 459.256 949.247C461.331 953.883 464.368 957.614 468.343 960.484C472.317 963.346 476.969 964.785 482.315 964.785C487.001 964.785 490.908 964.065 494.029 962.626C497.15 961.204 499.702 959.631 501.643 957.865C503.601 956.092 504.914 954.686 505.55 953.657C506.738 952.084 507.642 951.138 508.295 950.812C508.939 950.502 509.976 950.31 511.415 950.31H520.996C522.167 950.31 523.171 950.695 524.016 951.398C524.869 952.117 525.221 953.13 525.095 954.427C524.953 956.368 523.916 958.752 521.958 961.547C520.025 964.358 517.247 967.119 513.675 969.864C510.077 972.583 505.659 974.833 500.371 976.599C495.108 978.348 489.159 979.226 482.508 979.226Z" fill="white"/>
<path d="M567.688 977.27C566.383 977.27 565.304 976.843 564.459 975.998C563.597 975.162 563.195 974.082 563.195 972.777V857.908H525.686C524.381 857.908 523.31 857.481 522.457 856.653C521.603 855.782 521.193 854.711 521.193 853.415V845.215C521.193 843.776 521.612 842.646 522.457 841.801C523.302 840.956 524.373 840.538 525.686 840.538H619.848C621.279 840.538 622.425 840.965 623.27 841.801C624.115 842.663 624.542 843.776 624.542 845.215V853.415C624.542 854.703 624.107 855.782 623.27 856.653C622.416 857.489 621.279 857.908 619.848 857.908H582.54V972.777C582.54 974.082 582.105 975.162 581.268 975.998C580.423 976.86 579.285 977.27 577.846 977.27H567.688Z" fill="white"/>
<path d="M646.17 977.271C644.865 977.271 643.785 976.845 642.94 976C642.087 975.163 641.677 974.084 641.677 972.778V880.173C641.677 878.893 642.095 877.805 642.94 876.969C643.785 876.115 644.856 875.68 646.17 875.68H655.549C656.846 875.68 657.925 876.132 658.771 876.969C659.616 877.805 660.042 878.885 660.042 880.173V972.778C660.042 974.084 659.607 975.163 658.771 976C657.925 976.861 656.855 977.271 655.549 977.271H646.17ZM644.605 856.738C643.3 856.738 642.221 856.328 641.384 855.466C640.522 854.629 640.112 853.55 640.112 852.245V841.702C640.112 840.397 640.531 839.284 641.384 838.372C642.221 837.485 643.3 837 644.605 837H656.913C658.202 837 659.314 837.485 660.226 838.372C661.13 839.284 661.582 840.397 661.582 841.702V852.245C661.582 853.55 661.13 854.629 660.226 855.466C659.314 856.336 658.202 856.738 656.913 856.738H644.605Z" fill="white"/>
<path d="M688.587 977.267C687.29 977.267 686.219 976.84 685.366 975.995C684.512 975.159 684.094 974.079 684.094 972.774V843.053C684.094 841.765 684.52 840.686 685.366 839.832C686.211 838.979 687.282 838.56 688.587 838.56H697.782C699.213 838.56 700.317 838.987 701.104 839.832C701.873 840.686 702.275 841.756 702.275 843.053V972.774C702.275 974.079 701.873 975.159 701.104 975.995C700.309 976.857 699.204 977.267 697.782 977.267H688.587Z" fill="white"/>
<path d="M772.431 963.412C779.208 963.412 784.505 961.923 788.353 959.003C792.186 956.074 794.963 952.234 796.645 947.482C798.344 942.738 799.323 937.625 799.59 932.153C799.724 928.372 799.724 924.598 799.59 920.825C799.331 915.378 798.352 910.249 796.645 905.496C794.963 900.752 792.186 896.912 788.353 893.958C784.505 891.022 779.2 889.574 772.431 889.574C766.315 889.574 761.22 891.013 757.187 893.875C753.162 896.753 750.125 900.393 748.117 904.827C746.092 909.253 745.021 913.746 744.879 918.306C744.745 920.398 744.695 922.883 744.695 925.82C744.695 928.748 744.753 931.25 744.879 933.325C745.138 938.144 746.218 942.88 748.117 947.482C749.999 952.117 752.92 955.924 756.911 958.919C760.877 961.906 766.047 963.412 772.431 963.412ZM776.531 979.226C768.716 979.226 762.207 977.82 756.994 975.009C751.79 972.214 747.623 968.734 744.502 964.567V972.758C744.502 974.063 744.067 975.126 743.231 976.004C742.369 976.841 741.306 977.251 740.009 977.251H731.023C729.718 977.251 728.647 976.824 727.785 976.004C726.94 975.134 726.53 974.08 726.53 972.758V843.037C726.53 841.757 726.949 840.669 727.785 839.816C728.647 838.971 729.71 838.544 731.023 838.544H740.595C741.892 838.544 742.938 838.996 743.716 839.816C744.511 840.669 744.887 841.732 744.887 843.037V887.976C748.15 883.952 752.359 880.529 757.488 877.81C762.634 875.083 768.992 873.71 776.539 873.71C783.827 873.71 790.044 874.974 795.198 877.517C800.343 880.069 804.577 883.55 807.89 887.976C811.212 892.394 813.722 897.422 815.412 903.011C817.111 908.634 818.073 914.482 818.349 920.607C818.474 922.699 818.533 924.632 818.533 926.472C818.533 928.305 818.466 930.237 818.349 932.329C818.081 938.571 817.119 944.486 815.412 950.092C813.722 955.698 811.212 960.693 807.89 965.044C804.577 969.403 800.352 972.867 795.198 975.377C790.035 977.954 783.819 979.226 776.531 979.226Z" fill="white"/>
<path d="M875.859 979.23C867.525 979.23 860.447 977.356 854.665 973.658C848.867 969.951 844.466 964.764 841.471 958.12C838.475 951.485 836.978 943.871 836.978 935.279V880.174C836.978 878.894 837.396 877.806 838.241 876.969C839.094 876.116 840.165 875.681 841.471 875.681H851.243C852.54 875.681 853.611 876.133 854.473 876.969C855.309 877.806 855.728 878.885 855.728 880.174V934.308C855.728 953.711 864.204 963.417 881.121 963.417C889.204 963.417 895.68 960.831 900.566 955.685C905.453 950.557 907.887 943.411 907.887 934.291V880.166C907.887 878.877 908.314 877.798 909.151 876.953C910.012 876.099 911.067 875.673 912.38 875.673H922.153C923.45 875.673 924.487 876.116 925.274 876.953C926.06 877.798 926.453 878.869 926.453 880.166V972.762C926.453 974.068 926.06 975.13 925.274 976.009C924.487 976.845 923.45 977.255 922.153 977.255H912.966C911.661 977.255 910.598 976.829 909.745 976.009C908.891 975.139 908.473 974.084 908.473 972.762V964.178C904.959 968.738 900.692 972.369 895.68 975.13C890.677 977.858 884.058 979.23 875.859 979.23Z" fill="white"/>
<path d="M992.079 963.412C998.589 963.412 1003.79 961.906 1007.69 958.919C1011.62 955.923 1014.54 952.116 1016.51 947.481C1018.44 942.854 1019.49 938.143 1019.63 933.324C1019.75 931.249 1019.82 928.731 1019.82 925.819C1019.82 922.865 1019.74 920.397 1019.63 918.306C1019.49 913.746 1018.41 909.252 1016.4 904.826C1014.39 900.4 1011.37 896.752 1007.41 893.874C1003.43 891.013 998.338 889.573 992.079 889.573C985.444 889.573 980.157 891.046 976.249 893.958C972.333 896.911 969.539 900.752 967.84 905.496C966.167 910.248 965.171 915.377 964.895 920.824C964.778 924.597 964.778 928.371 964.895 932.153C965.155 937.625 966.15 942.737 967.84 947.481C969.539 952.233 972.333 956.074 976.249 959.002C980.157 961.922 985.444 963.412 992.079 963.412ZM987.971 979.225C980.809 979.225 974.601 977.953 969.388 975.401C964.192 972.866 959.917 969.419 956.612 965.06C953.29 960.701 950.805 955.714 949.165 950.108C947.559 944.502 946.605 938.587 946.337 932.345C946.212 930.253 946.153 928.312 946.153 926.48C946.153 924.648 946.22 922.706 946.337 920.615C946.605 914.515 947.559 908.65 949.165 903.027C950.797 897.438 953.282 892.418 956.612 887.992C959.925 883.566 964.192 880.085 969.388 877.533C974.601 874.998 980.792 873.727 987.971 873.727C995.652 873.727 1002.03 875.099 1007.11 877.826C1012.19 880.554 1016.35 883.951 1019.61 887.992V843.053C1019.61 841.765 1020.03 840.686 1020.88 839.832C1021.72 838.995 1022.79 838.56 1024.1 838.56H1033.48C1034.77 838.56 1035.85 839.004 1036.7 839.832C1037.55 840.686 1037.97 841.756 1037.97 843.053V972.774C1037.97 974.079 1037.53 975.142 1036.7 976.012C1035.85 976.857 1034.78 977.267 1033.48 977.267H1024.67C1023.25 977.267 1022.13 976.84 1021.36 976.012C1020.59 975.142 1020.19 974.096 1020.19 972.774V964.575C1016.92 968.741 1012.7 972.222 1007.49 975.017C1002.29 977.819 995.794 979.225 987.971 979.225Z" fill="white"/>
<path d="M1097.28 979.227C1089.97 979.227 1083.74 978.315 1078.53 976.483C1073.31 974.667 1069.07 972.467 1065.82 969.848C1062.54 967.237 1060.1 964.635 1058.5 962.033C1056.87 959.414 1055.97 957.331 1055.86 955.775C1055.72 954.344 1056.18 953.214 1057.22 952.461C1058.27 951.675 1059.3 951.282 1060.35 951.282H1069.15C1069.8 951.282 1070.36 951.382 1070.8 951.575C1071.26 951.759 1071.89 952.328 1072.66 953.214C1074.36 955.047 1076.24 956.879 1078.33 958.686C1080.41 960.519 1082.98 962.008 1086.05 963.171C1089.1 964.359 1092.91 964.937 1097.47 964.937C1104.12 964.937 1109.59 963.673 1113.89 961.138C1118.18 958.578 1120.35 954.838 1120.35 949.901C1120.35 946.646 1119.45 944.044 1117.7 942.086C1115.94 940.129 1112.81 938.363 1108.32 936.807C1103.83 935.234 1097.69 933.602 1089.86 931.921C1082.04 930.088 1075.85 927.854 1071.29 925.169C1066.73 922.508 1063.48 919.32 1061.53 915.597C1059.58 911.882 1058.6 907.682 1058.6 902.979C1058.6 898.177 1060.02 893.5 1062.89 889.007C1065.77 884.514 1069.97 880.841 1075.49 877.979C1081.05 875.118 1087.97 873.678 1096.31 873.678C1103.08 873.678 1108.87 874.54 1113.69 876.23C1118.49 877.912 1122.49 880.037 1125.61 882.581C1128.73 885.133 1131.05 887.634 1132.64 890.086C1134.21 892.571 1135.05 894.663 1135.17 896.344C1135.31 897.641 1134.93 898.729 1134.01 899.566C1133.1 900.427 1132.05 900.837 1130.87 900.837H1122.67C1121.78 900.837 1121.02 900.653 1120.43 900.252C1119.83 899.859 1119.27 899.398 1118.78 898.896C1117.46 897.206 1115.94 895.508 1114.17 893.809C1112.42 892.128 1110.14 890.722 1107.34 889.626C1104.55 888.513 1100.88 887.961 1096.32 887.961C1089.8 887.961 1084.91 889.316 1081.67 892.061C1078.4 894.788 1076.79 898.235 1076.79 902.419C1076.79 904.887 1077.49 907.096 1078.93 909.054C1080.35 910.987 1083.1 912.752 1087.13 914.317C1091.16 915.89 1097.14 917.588 1105.1 919.404C1113.69 921.085 1120.46 923.386 1125.42 926.223C1130.37 929.084 1133.87 932.398 1135.96 936.188C1138.03 939.961 1139.1 944.329 1139.1 949.265C1139.1 954.729 1137.52 959.757 1134.4 964.317C1131.26 968.877 1126.58 972.5 1120.35 975.169C1114.09 977.889 1106.38 979.227 1097.28 979.227Z" fill="white"/>
<path d="M1192.33 964.567C1197.64 964.567 1202.53 963.413 1206.97 961.154C1211.39 958.886 1214.87 955.322 1217.4 950.502C1219.97 945.683 1221.23 939.634 1221.23 932.346V926.874L1198.56 930.188C1189.31 931.493 1182.36 933.668 1177.66 936.722C1172.97 939.793 1170.63 943.667 1170.63 948.361C1170.63 952.008 1171.7 955.046 1173.86 957.447C1176.01 959.848 1178.75 961.647 1182.05 962.81C1185.38 963.982 1188.79 964.567 1192.33 964.567ZM1188.23 979.226C1181.72 979.226 1175.79 977.921 1170.43 975.319C1165.08 972.7 1160.82 969.194 1157.54 964.751C1154.28 960.334 1152.67 955.305 1152.67 949.699C1152.67 940.73 1156.33 933.559 1163.61 928.238C1170.9 922.892 1180.41 919.352 1192.12 917.671L1221.23 913.579V907.898C1221.23 901.656 1219.43 896.77 1215.87 893.256C1212.27 889.725 1206.44 887.976 1198.36 887.976C1192.64 887.976 1187.95 889.156 1184.31 891.491C1180.64 893.817 1178.11 896.845 1176.66 900.477C1175.89 902.426 1174.53 903.422 1172.57 903.422H1163.79C1162.35 903.422 1161.27 902.978 1160.57 902.142C1159.85 901.297 1159.49 900.284 1159.49 899.121C1159.49 897.18 1160.24 894.77 1161.73 891.9C1163.24 889.022 1165.54 886.228 1168.68 883.5C1171.8 880.772 1175.82 878.446 1180.69 876.572C1185.58 874.673 1191.54 873.728 1198.57 873.728C1206.39 873.728 1212.98 874.74 1218.31 876.748C1223.64 878.773 1227.86 881.475 1230.91 884.872C1233.95 888.253 1236.17 892.093 1237.54 896.394C1238.92 900.694 1239.6 905.053 1239.6 909.479V972.758C1239.6 974.064 1239.16 975.126 1238.33 976.005C1237.48 976.842 1236.4 977.252 1235.09 977.252H1226.11C1224.68 977.252 1223.57 976.825 1222.79 976.005C1222.01 975.135 1221.63 974.08 1221.63 972.758V964.358C1219.93 966.684 1217.63 969.044 1214.79 971.286C1211.92 973.562 1208.34 975.453 1204.06 976.959C1199.75 978.481 1194.47 979.226 1188.23 979.226Z" fill="white"/>
<path d="M1295.98 977.272C1294.03 977.272 1292.48 976.812 1291.39 975.917C1290.25 975.005 1289.4 973.825 1288.75 972.386L1252.62 881.739C1252.35 881.103 1252.21 880.45 1252.21 879.781C1252.21 878.618 1252.62 877.639 1253.41 876.852C1254.2 876.066 1255.16 875.673 1256.32 875.673H1265.72C1267.14 875.673 1268.25 876.066 1269.03 876.852C1269.81 877.639 1270.32 878.358 1270.6 879.011L1300.28 955.978L1329.99 879.011C1330.25 878.358 1330.74 877.639 1331.47 876.852C1332.18 876.066 1333.25 875.673 1334.69 875.673H1344.27C1345.31 875.673 1346.26 876.066 1347.11 876.852C1347.96 877.639 1348.38 878.618 1348.38 879.781C1348.38 880.45 1348.24 881.103 1347.98 881.739L1311.62 972.386C1311.1 973.825 1310.3 975.005 1309.18 975.917C1308.06 976.812 1306.51 977.272 1304.42 977.272H1295.98Z" fill="white"/>
<path d="M1368.94 977.271C1367.65 977.271 1366.57 976.845 1365.71 976C1364.85 975.163 1364.45 974.084 1364.45 972.778V880.173C1364.45 878.893 1364.88 877.805 1365.71 876.969C1366.57 876.115 1367.63 875.68 1368.94 875.68H1378.32C1379.62 875.68 1380.68 876.132 1381.54 876.969C1382.4 877.805 1382.81 878.885 1382.81 880.173V972.778C1382.81 974.084 1382.38 975.163 1381.54 976C1380.68 976.861 1379.63 977.271 1378.32 977.271H1368.94ZM1367.36 856.738C1366.07 856.738 1364.99 856.328 1364.13 855.466C1363.28 854.629 1362.88 853.55 1362.88 852.245V841.702C1362.88 840.397 1363.29 839.284 1364.13 838.372C1364.99 837.485 1366.06 837 1367.36 837H1379.67C1380.99 837 1382.09 837.485 1383.02 838.372C1383.89 839.284 1384.36 840.397 1384.36 841.702V852.245C1384.36 853.55 1383.89 854.629 1383.02 855.466C1382.09 856.336 1380.99 856.738 1379.67 856.738H1367.36Z" fill="white"/>
<path d="M1441.67 979.227C1434.38 979.227 1428.12 978.315 1422.91 976.483C1417.72 974.667 1413.48 972.467 1410.2 969.848C1406.95 967.237 1404.51 964.635 1402.88 962.033C1401.28 959.414 1400.38 957.331 1400.26 955.775C1400.1 954.344 1400.59 953.214 1401.64 952.461C1402.66 951.675 1403.71 951.282 1404.76 951.282H1413.53C1414.19 951.282 1414.74 951.382 1415.2 951.575C1415.67 951.759 1416.28 952.328 1417.07 953.214C1418.75 955.047 1420.64 956.879 1422.74 958.686C1424.82 960.519 1427.41 962.008 1430.44 963.171C1433.5 964.359 1437.32 964.937 1441.88 964.937C1448.52 964.937 1453.98 963.673 1458.29 961.138C1462.6 958.578 1464.73 954.838 1464.73 949.901C1464.73 946.646 1463.86 944.044 1462.1 942.086C1460.35 940.129 1457.22 938.363 1452.74 936.807C1448.23 935.234 1442.1 933.602 1434.27 931.921C1426.44 930.088 1420.27 927.854 1415.71 925.169C1411.15 922.508 1407.88 919.32 1405.94 915.597C1404 911.882 1403.01 907.682 1403.01 902.979C1403.01 898.177 1404.43 893.5 1407.31 889.007C1410.17 884.514 1414.37 880.841 1419.91 877.979C1425.43 875.118 1432.38 873.678 1440.73 873.678C1447.49 873.678 1453.28 874.54 1458.1 876.23C1462.93 877.912 1466.89 880.037 1470.03 882.581C1473.15 885.133 1475.48 887.634 1477.04 890.086C1478.61 892.571 1479.47 894.663 1479.61 896.344C1479.73 897.641 1479.36 898.729 1478.41 899.566C1477.5 900.427 1476.48 900.837 1475.29 900.837H1467.1C1466.19 900.837 1465.45 900.653 1464.83 900.252C1464.26 899.859 1463.7 899.398 1463.17 898.896C1461.89 897.206 1460.35 895.508 1458.59 893.809C1456.84 892.128 1454.56 890.722 1451.77 889.626C1448.94 888.513 1445.31 887.961 1440.74 887.961C1434.22 887.961 1429.33 889.316 1426.08 892.061C1422.83 894.788 1421.2 898.235 1421.2 902.419C1421.2 904.887 1421.9 907.096 1423.35 909.054C1424.77 910.987 1427.51 912.752 1431.54 914.317C1435.56 915.89 1441.56 917.588 1449.52 919.404C1458.1 921.085 1464.86 923.386 1469.83 926.223C1474.8 929.093 1478.29 932.398 1480.38 936.188C1482.48 939.961 1483.51 944.329 1483.51 949.265C1483.51 954.729 1481.93 959.757 1478.82 964.317C1475.68 968.877 1470.99 972.5 1464.73 975.169C1458.49 977.889 1450.79 979.227 1441.67 979.227Z" fill="white"/>
<path d="M1240 249.358C1240 180.23 1183.44 123.68 1114.32 123.68H805.678C736.555 123.68 680 180.23 680 249.358V558.016C680 627.134 736.555 683.68 805.678 683.68H1114.32C1183.44 683.68 1240 627.134 1240 558.011L1240 249.358Z" fill="#8AA31B"/>
<path d="M1046 300V201L804 265.17L1046 300Z" fill="#D0DAA3"/>
<path d="M985.637 362.933C999.094 362.933 1009.95 373.848 1009.95 387.308C1009.95 388.618 1009.45 389.904 1008.52 390.832C1007.59 391.759 1006.3 392.281 1004.99 392.281C985.832 392.281 934.61 392.281 915.444 392.281C914.136 392.281 912.852 391.759 911.926 390.832C910.995 389.899 910.465 388.618 910.465 387.308C910.465 373.848 921.339 362.933 934.782 362.933H985.637ZM1057.1 446.358C1058.74 446.358 1060.26 447.099 1061.25 448.371C1062.22 449.653 1062.57 451.289 1062.18 452.873C1054.99 480.236 1030.12 500.435 1000.56 500.435H919.859C884.7 500.435 856.227 471.889 856.227 436.683V387.313C856.227 352.088 884.719 323.551 919.859 323.551H1000.56C1035.7 323.551 1064.21 352.088 1064.21 387.313V421.475C1064.21 427.105 1059.64 431.691 1054.01 431.691H915.444C914.136 431.691 912.852 432.213 911.926 433.14C910.995 434.073 910.465 435.345 910.465 436.664C910.465 450.124 921.339 461.02 934.782 461.02H985.665C994.417 461.02 1002.1 456.397 1006.4 449.392C1007.53 447.528 1009.55 446.405 1011.74 446.405C1021.07 446.358 1045.46 446.358 1057.1 446.358ZM1064.02 265H804V506.894C804 535.664 827.28 559 855.995 559H1063.99C1092.72 559 1116 535.664 1116 506.894V317.068C1116 288.298 1092.72 265 1064.02 265Z" fill="white"/>
</svg>
