<svg width="1200" height="800" viewBox="0 0 1200 800" fill="none" xmlns="http://www.w3.org/2000/svg">
<path d="M644.147 162.915L710 162.897C709.991 136.431 709.982 109.965 709.58 83L673.446 91.4468C645.597 98.7524 617.705 105.897 589.826 113.088C563.054 119.994 536.256 126.795 509.508 133.79C478.176 141.984 446.893 150.364 415.57 158.596C410.669 159.884 405.673 160.812 400.288 162.165C399.878 162.625 399.901 162.826 400.387 163C422.404 162.97 443.957 162.97 465.51 162.964C525.055 162.948 584.601 162.932 644.147 162.915Z" fill="#D5B4EF"/>
<path d="M429.583 720C428.544 720 427.741 719.717 427.174 719.15C426.608 718.489 426.324 717.686 426.324 716.742V624.096C426.324 623.152 426.608 622.396 427.174 621.83C427.741 621.169 428.544 620.838 429.583 620.838H437.091C438.035 620.838 438.791 621.169 439.357 621.83C440.018 622.396 440.349 623.152 440.349 624.096V716.742C440.349 717.686 440.018 718.489 439.357 719.15C438.791 719.717 438.035 720 437.091 720H429.583ZM465.06 720C464.115 720 463.312 719.717 462.651 719.15C462.085 718.489 461.801 717.686 461.801 716.742V649.595C461.801 648.651 462.085 647.895 462.651 647.328C463.312 646.667 464.115 646.337 465.06 646.337H471.718C472.662 646.337 473.418 646.667 473.984 647.328C474.645 647.895 474.976 648.651 474.976 649.595V655.828C477.431 652.617 480.501 650.02 484.184 648.037C487.961 645.959 492.778 644.92 498.633 644.92C504.772 644.92 509.966 646.29 514.216 649.028C518.56 651.673 521.818 655.403 523.99 660.219C526.162 664.941 527.248 670.466 527.248 676.794V716.742C527.248 717.686 526.965 718.489 526.398 719.15C525.832 719.717 525.076 720 524.132 720H517.049C516.104 720 515.302 719.717 514.641 719.15C514.074 718.489 513.791 717.686 513.791 716.742V677.502C513.791 670.891 512.185 665.744 508.974 662.061C505.763 658.283 501.041 656.395 494.808 656.395C488.953 656.395 484.231 658.283 480.642 662.061C477.148 665.744 475.401 670.891 475.401 677.502V716.742C475.401 717.686 475.07 718.489 474.409 719.15C473.842 719.717 473.087 720 472.143 720H465.06ZM576.042 721.417C569.337 721.417 563.529 720.142 558.618 717.592C553.802 714.947 550.071 711.217 547.427 706.401C544.783 701.49 543.366 695.634 543.177 688.835C543.083 687.418 543.036 685.529 543.036 683.168C543.036 680.807 543.083 678.919 543.177 677.502C543.366 670.702 544.783 664.894 547.427 660.078C550.071 655.167 553.802 651.437 558.618 648.887C563.529 646.242 569.337 644.92 576.042 644.92C581.52 644.92 586.195 645.676 590.067 647.187C594.033 648.698 597.291 650.634 599.841 652.995C602.391 655.356 604.28 657.906 605.508 660.644C606.83 663.383 607.538 665.98 607.633 668.436C607.727 669.38 607.444 670.136 606.783 670.702C606.122 671.269 605.319 671.552 604.374 671.552H597.575C596.63 671.552 595.922 671.363 595.45 670.986C594.978 670.513 594.505 669.758 594.033 668.719C592.333 664.092 590.02 660.833 587.092 658.945C584.164 657.056 580.528 656.111 576.184 656.111C570.518 656.111 565.89 657.858 562.301 661.353C558.807 664.847 556.918 670.466 556.635 678.21C556.541 681.61 556.541 684.916 556.635 688.126C556.918 695.965 558.807 701.631 562.301 705.126C565.89 708.526 570.518 710.225 576.184 710.225C580.528 710.225 584.164 709.281 587.092 707.392C590.02 705.503 592.333 702.245 594.033 697.618C594.505 696.579 594.978 695.871 595.45 695.493C595.922 695.021 596.63 694.785 597.575 694.785H604.374C605.319 694.785 606.122 695.068 606.783 695.634C607.444 696.201 607.727 696.957 607.633 697.901C607.538 699.884 607.113 701.915 606.358 703.992C605.602 706.07 604.374 708.195 602.675 710.367C601.069 712.445 599.039 714.334 596.583 716.034C594.128 717.639 591.153 718.961 587.659 720C584.259 720.944 580.387 721.417 576.042 721.417ZM626.297 720C625.353 720 624.55 719.717 623.889 719.15C623.323 718.489 623.039 717.686 623.039 716.742V649.595C623.039 648.651 623.323 647.895 623.889 647.328C624.55 646.667 625.353 646.337 626.297 646.337H633.097C634.042 646.337 634.797 646.667 635.364 647.328C635.93 647.895 636.214 648.651 636.214 649.595V716.742C636.214 717.686 635.93 718.489 635.364 719.15C634.797 719.717 634.042 720 633.097 720H626.297ZM625.164 632.596C624.22 632.596 623.417 632.312 622.756 631.746C622.189 631.085 621.906 630.282 621.906 629.338V621.688C621.906 620.744 622.189 619.988 622.756 619.421C623.417 618.76 624.22 618.43 625.164 618.43H634.089C635.033 618.43 635.789 618.76 636.355 619.421C637.016 619.988 637.347 620.744 637.347 621.688V629.338C637.347 630.282 637.016 631.085 636.355 631.746C635.789 632.312 635.033 632.596 634.089 632.596H625.164ZM684.688 720C679.399 720 675.102 719.008 671.797 717.025C668.491 714.947 666.083 712.067 664.572 708.384C663.061 704.606 662.306 700.168 662.306 695.068V657.67H651.256C650.312 657.67 649.509 657.386 648.848 656.82C648.281 656.159 647.998 655.356 647.998 654.411V649.595C647.998 648.651 648.281 647.895 648.848 647.328C649.509 646.667 650.312 646.337 651.256 646.337H662.306V622.68C662.306 621.735 662.589 620.98 663.156 620.413C663.817 619.752 664.619 619.421 665.564 619.421H672.222C673.166 619.421 673.922 619.752 674.488 620.413C675.149 620.98 675.48 621.735 675.48 622.68V646.337H693.046C693.99 646.337 694.746 646.667 695.312 647.328C695.973 647.895 696.304 648.651 696.304 649.595V654.411C696.304 655.356 695.973 656.159 695.312 656.82C694.746 657.386 693.99 657.67 693.046 657.67H675.48V694.076C675.48 698.515 676.236 702.009 677.747 704.559C679.258 707.109 681.949 708.384 685.821 708.384H694.462C695.407 708.384 696.162 708.714 696.729 709.375C697.39 709.942 697.721 710.698 697.721 711.642V716.742C697.721 717.686 697.39 718.489 696.729 719.15C696.162 719.717 695.407 720 694.462 720H684.688ZM740.024 721.417C732.846 721.417 726.849 720.047 722.033 717.308C717.217 714.57 713.533 710.792 710.984 705.976C708.434 701.065 707.017 695.493 706.734 689.26C706.639 687.654 706.592 685.624 706.592 683.168C706.592 680.619 706.639 678.588 706.734 677.077C707.017 670.75 708.434 665.178 710.984 660.361C713.628 655.545 717.358 651.767 722.175 649.028C726.991 646.29 732.941 644.92 740.024 644.92C747.107 644.92 753.057 646.29 757.873 649.028C762.689 651.767 766.373 655.545 768.922 660.361C771.567 665.178 773.031 670.75 773.314 677.077C773.408 678.588 773.456 680.619 773.456 683.168C773.456 685.624 773.408 687.654 773.314 689.26C773.031 695.493 771.614 701.065 769.064 705.976C766.514 710.792 762.831 714.57 758.015 717.308C753.198 720.047 747.201 721.417 740.024 721.417ZM740.024 710.509C745.879 710.509 750.554 708.667 754.048 704.984C757.542 701.206 759.431 695.729 759.715 688.551C759.809 687.135 759.856 685.341 759.856 683.168C759.856 680.996 759.809 679.202 759.715 677.785C759.431 670.608 757.542 665.178 754.048 661.494C750.554 657.717 745.879 655.828 740.024 655.828C734.169 655.828 729.447 657.717 725.858 661.494C722.364 665.178 720.522 670.608 720.333 677.785C720.239 679.202 720.191 680.996 720.191 683.168C720.191 685.341 720.239 687.135 720.333 688.551C720.522 695.729 722.364 701.206 725.858 704.984C729.447 708.667 734.169 710.509 740.024 710.509Z" fill="white"/>
<path d="M400 163H732C767.346 163 796 191.654 796 227V465C796 500.346 767.346 529 732 529H464C428.654 529 400 500.346 400 465V163Z" fill="#9643D6"/>
<path d="M639.205 332.68C613.385 332.7 587.565 332.693 561.746 332.693C536.592 332.693 512.438 332.7 488.284 332.69C478.031 332.686 475.585 329.902 475.172 319.804C474.428 301.636 478.887 301.548 493.56 301.612C542.033 301.82 590.508 301.688 638.983 301.699C640.979 301.699 643.039 301.534 644.956 301.956C648.876 302.82 651.489 304.929 651.318 309.507C651.137 314.331 650.993 319.185 651.332 323.992C651.69 329.073 649.022 331.354 644.666 332.33C642.907 332.724 641.029 332.678 639.205 332.68Z" fill="white"/>
<path d="M624.267 420.873C639.426 420.954 654.586 420.901 669.746 420.9C683.573 420.9 696.4 420.887 709.228 420.905C717.849 420.917 720.243 423.281 720.246 431.687C720.247 435.185 720.226 438.684 720.251 442.182C720.3 448.892 717.492 451.846 710.623 451.88C695.797 451.951 680.971 451.903 666.144 451.903C652.317 451.903 638.491 451.912 624.664 451.897C618.555 451.891 614.534 449.506 613.675 443.621C612.931 438.526 613.524 433.102 614.339 427.953C615.168 422.715 619.129 420.846 624.267 420.873Z" fill="white"/>
<path d="M710.72 394.724C704.065 394.862 697.404 394.756 690.746 394.757C668.439 394.757 647.132 394.77 625.825 394.751C616.992 394.743 613.088 390.903 613.318 381.945C613.43 377.581 613.501 372.893 615.148 369.013C616.161 366.627 620.1 364.045 622.753 364.014C652.545 363.665 682.342 363.734 712.137 363.852C717.573 363.874 720.204 366.986 720.241 372.405C720.269 376.566 720.235 380.728 720.249 384.889C720.272 391.646 717.545 394.583 710.72 394.724Z" fill="white"/>
<path d="M683.267 322.864C683.155 319.201 683.246 315.532 683.245 311.866C684.349 304.388 687.059 301.991 693.46 301.972C699.626 301.954 705.792 301.927 711.957 301.957C717.414 301.983 720.181 304.746 720.237 310.204C720.279 314.37 720.245 318.536 720.245 322.702C720.246 329.716 717.543 332.669 710.404 332.926C704.745 333.129 699.071 333.064 693.408 332.942C687.587 332.818 683.445 328.663 683.267 322.864Z" fill="#D5B4EF"/>
<path d="M475.431 440.948C475.296 436.458 475.404 431.96 475.403 427.466C475.404 409.655 475.39 392.843 475.409 376.03C475.419 366.705 478.287 363.865 487.647 363.862C515.612 363.855 543.576 363.849 571.541 363.868C579.696 363.874 582.296 366.473 582.302 374.586C582.32 396.724 582.319 418.863 582.302 441.002C582.296 448.732 579.159 451.915 571.475 451.921C543.178 451.943 514.88 451.948 486.582 451.917C479.107 451.909 475.658 448.516 475.431 440.948Z" fill="#D5B4EF"/>
<path d="M601.045 271.055L585.747 271.055C552.443 271.055 520.136 270.834 487.836 271.205C479.485 271.301 475.246 266.9 475.031 258.723C474.527 239.528 480.066 239.984 493.834 240.004C564.936 240.109 636.039 240.045 707.141 240.085C709.606 240.087 712.128 240.322 714.522 240.88C718.396 241.782 720.381 244.321 720.283 248.465C720.17 253.291 720.293 258.122 720.234 262.951C720.177 267.682 717.412 270.596 712.63 270.999C711.141 271.125 709.635 271.053 708.136 271.053C672.439 271.055 636.742 271.055 601.045 271.055Z" fill="#D5B4EF"/>
</svg>
