<svg width="1200" height="800" viewBox="0 0 1200 800" fill="none" xmlns="http://www.w3.org/2000/svg">
<path d="M433.147 257.915L499 257.897C498.991 231.431 498.982 204.965 498.58 178L462.446 186.447C434.597 193.752 406.705 200.897 378.826 208.088C352.054 214.994 325.256 221.795 298.508 228.79C267.176 236.984 235.893 245.364 204.57 253.596C199.669 254.884 194.673 255.812 189.288 257.165C188.878 257.625 188.901 257.826 189.387 258C211.404 257.97 232.957 257.97 254.51 257.964C314.055 257.948 373.601 257.932 433.147 257.915Z" fill="#EEB4E9"/>
<path d="M670.583 482C669.544 482 668.741 481.717 668.174 481.15C667.608 480.489 667.324 479.686 667.324 478.742V386.096C667.324 385.152 667.608 384.396 668.174 383.83C668.741 383.169 669.544 382.838 670.583 382.838H678.091C679.035 382.838 679.791 383.169 680.357 383.83C681.018 384.396 681.349 385.152 681.349 386.096V478.742C681.349 479.686 681.018 480.489 680.357 481.15C679.791 481.717 679.035 482 678.091 482H670.583ZM706.06 482C705.115 482 704.312 481.717 703.651 481.15C703.085 480.489 702.801 479.686 702.801 478.742V411.595C702.801 410.651 703.085 409.895 703.651 409.328C704.312 408.667 705.115 408.337 706.06 408.337H712.718C713.662 408.337 714.418 408.667 714.984 409.328C715.645 409.895 715.976 410.651 715.976 411.595V417.828C718.431 414.617 721.501 412.02 725.184 410.037C728.961 407.959 733.778 406.92 739.633 406.92C745.772 406.92 750.966 408.29 755.216 411.028C759.56 413.673 762.818 417.403 764.99 422.219C767.162 426.941 768.248 432.466 768.248 438.794V478.742C768.248 479.686 767.965 480.489 767.398 481.15C766.832 481.717 766.076 482 765.132 482H758.049C757.104 482 756.302 481.717 755.641 481.15C755.074 480.489 754.791 479.686 754.791 478.742V439.502C754.791 432.891 753.185 427.744 749.974 424.061C746.763 420.283 742.041 418.395 735.808 418.395C729.953 418.395 725.231 420.283 721.642 424.061C718.148 427.744 716.401 432.891 716.401 439.502V478.742C716.401 479.686 716.07 480.489 715.409 481.15C714.842 481.717 714.087 482 713.143 482H706.06ZM817.042 483.417C810.337 483.417 804.529 482.142 799.618 479.592C794.802 476.947 791.071 473.217 788.427 468.401C785.783 463.49 784.366 457.634 784.177 450.835C784.083 449.418 784.036 447.529 784.036 445.168C784.036 442.807 784.083 440.919 784.177 439.502C784.366 432.702 785.783 426.894 788.427 422.078C791.071 417.167 794.802 413.437 799.618 410.887C804.529 408.242 810.337 406.92 817.042 406.92C822.52 406.92 827.195 407.676 831.067 409.187C835.033 410.698 838.291 412.634 840.841 414.995C843.391 417.356 845.28 419.906 846.508 422.644C847.83 425.383 848.538 427.98 848.633 430.436C848.727 431.38 848.444 432.136 847.783 432.702C847.122 433.269 846.319 433.552 845.374 433.552H838.575C837.63 433.552 836.922 433.363 836.45 432.986C835.978 432.513 835.505 431.758 835.033 430.719C833.333 426.092 831.02 422.833 828.092 420.945C825.164 419.056 821.528 418.111 817.184 418.111C811.518 418.111 806.89 419.858 803.301 423.353C799.807 426.847 797.918 432.466 797.635 440.21C797.541 443.61 797.541 446.916 797.635 450.126C797.918 457.965 799.807 463.631 803.301 467.126C806.89 470.526 811.518 472.225 817.184 472.225C821.528 472.225 825.164 471.281 828.092 469.392C831.02 467.503 833.333 464.245 835.033 459.618C835.505 458.579 835.978 457.871 836.45 457.493C836.922 457.021 837.63 456.785 838.575 456.785H845.374C846.319 456.785 847.122 457.068 847.783 457.634C848.444 458.201 848.727 458.957 848.633 459.901C848.538 461.884 848.113 463.915 847.358 465.992C846.602 468.07 845.374 470.195 843.675 472.367C842.069 474.445 840.039 476.334 837.583 478.034C835.128 479.639 832.153 480.961 828.659 482C825.259 482.944 821.387 483.417 817.042 483.417ZM867.297 482C866.353 482 865.55 481.717 864.889 481.15C864.323 480.489 864.039 479.686 864.039 478.742V411.595C864.039 410.651 864.323 409.895 864.889 409.328C865.55 408.667 866.353 408.337 867.297 408.337H874.097C875.042 408.337 875.797 408.667 876.364 409.328C876.93 409.895 877.214 410.651 877.214 411.595V478.742C877.214 479.686 876.93 480.489 876.364 481.15C875.797 481.717 875.042 482 874.097 482H867.297ZM866.164 394.596C865.22 394.596 864.417 394.312 863.756 393.746C863.189 393.085 862.906 392.282 862.906 391.338V383.688C862.906 382.744 863.189 381.988 863.756 381.421C864.417 380.76 865.22 380.43 866.164 380.43H875.089C876.033 380.43 876.789 380.76 877.355 381.421C878.016 381.988 878.347 382.744 878.347 383.688V391.338C878.347 392.282 878.016 393.085 877.355 393.746C876.789 394.312 876.033 394.596 875.089 394.596H866.164ZM925.688 482C920.399 482 916.102 481.008 912.797 479.025C909.491 476.947 907.083 474.067 905.572 470.384C904.061 466.606 903.306 462.168 903.306 457.068V419.67H892.256C891.312 419.67 890.509 419.386 889.848 418.82C889.281 418.159 888.998 417.356 888.998 416.411V411.595C888.998 410.651 889.281 409.895 889.848 409.328C890.509 408.667 891.312 408.337 892.256 408.337H903.306V384.68C903.306 383.735 903.589 382.98 904.156 382.413C904.817 381.752 905.619 381.421 906.564 381.421H913.222C914.166 381.421 914.922 381.752 915.488 382.413C916.149 382.98 916.48 383.735 916.48 384.68V408.337H934.046C934.99 408.337 935.746 408.667 936.312 409.328C936.973 409.895 937.304 410.651 937.304 411.595V416.411C937.304 417.356 936.973 418.159 936.312 418.82C935.746 419.386 934.99 419.67 934.046 419.67H916.48V456.076C916.48 460.515 917.236 464.009 918.747 466.559C920.258 469.109 922.949 470.384 926.821 470.384H935.462C936.407 470.384 937.162 470.714 937.729 471.375C938.39 471.942 938.721 472.698 938.721 473.642V478.742C938.721 479.686 938.39 480.489 937.729 481.15C937.162 481.717 936.407 482 935.462 482H925.688ZM981.024 483.417C973.846 483.417 967.849 482.047 963.033 479.308C958.217 476.57 954.533 472.792 951.984 467.976C949.434 463.065 948.017 457.493 947.734 451.26C947.639 449.654 947.592 447.624 947.592 445.168C947.592 442.619 947.639 440.588 947.734 439.077C948.017 432.75 949.434 427.178 951.984 422.361C954.628 417.545 958.358 413.767 963.175 411.028C967.991 408.29 973.941 406.92 981.024 406.92C988.107 406.92 994.057 408.29 998.873 411.028C1003.69 413.767 1007.37 417.545 1009.92 422.361C1012.57 427.178 1014.03 432.75 1014.31 439.077C1014.41 440.588 1014.46 442.619 1014.46 445.168C1014.46 447.624 1014.41 449.654 1014.31 451.26C1014.03 457.493 1012.61 463.065 1010.06 467.976C1007.51 472.792 1003.83 476.57 999.015 479.308C994.198 482.047 988.201 483.417 981.024 483.417ZM981.024 472.509C986.879 472.509 991.554 470.667 995.048 466.984C998.542 463.206 1000.43 457.729 1000.71 450.551C1000.81 449.135 1000.86 447.341 1000.86 445.168C1000.86 442.996 1000.81 441.202 1000.71 439.785C1000.43 432.608 998.542 427.178 995.048 423.494C991.554 419.717 986.879 417.828 981.024 417.828C975.169 417.828 970.447 419.717 966.858 423.494C963.364 427.178 961.522 432.608 961.333 439.785C961.239 441.202 961.191 442.996 961.191 445.168C961.191 447.341 961.239 449.135 961.333 450.551C961.522 457.729 963.364 463.206 966.858 466.984C970.447 470.667 975.169 472.509 981.024 472.509Z" fill="white"/>
<path d="M189 258H521C556.346 258 585 286.654 585 322V560C585 595.346 556.346 624 521 624H253C217.654 624 189 595.346 189 560V258Z" fill="#D543C7"/>
<path d="M428.205 427.68C402.385 427.7 376.565 427.693 350.746 427.693C325.592 427.693 301.438 427.7 277.284 427.69C267.031 427.686 264.585 424.902 264.172 414.804C263.428 396.636 267.887 396.548 282.56 396.612C331.033 396.82 379.508 396.688 427.983 396.699C429.979 396.699 432.039 396.534 433.956 396.956C437.876 397.82 440.489 399.929 440.318 404.507C440.137 409.331 439.993 414.185 440.332 418.992C440.69 424.073 438.022 426.354 433.666 427.33C431.907 427.724 430.029 427.678 428.205 427.68Z" fill="white"/>
<path d="M413.267 515.873C428.426 515.954 443.586 515.901 458.746 515.9C472.573 515.9 485.4 515.887 498.228 515.905C506.849 515.917 509.243 518.281 509.246 526.687C509.247 530.185 509.226 533.684 509.251 537.182C509.3 543.892 506.492 546.846 499.623 546.88C484.797 546.951 469.971 546.903 455.144 546.903C441.317 546.903 427.491 546.912 413.664 546.897C407.555 546.891 403.534 544.506 402.675 538.621C401.931 533.526 402.524 528.102 403.339 522.953C404.168 517.715 408.129 515.846 413.267 515.873Z" fill="white"/>
<path d="M499.72 489.724C493.065 489.862 486.404 489.756 479.746 489.757C457.439 489.757 436.132 489.77 414.825 489.751C405.992 489.743 402.088 485.903 402.318 476.945C402.43 472.581 402.501 467.893 404.148 464.013C405.161 461.627 409.1 459.045 411.753 459.014C441.545 458.665 471.342 458.734 501.137 458.852C506.573 458.874 509.204 461.986 509.241 467.405C509.269 471.566 509.235 475.728 509.249 479.889C509.272 486.646 506.545 489.583 499.72 489.724Z" fill="white"/>
<path d="M472.267 417.864C472.155 414.201 472.246 410.532 472.245 406.866C473.349 399.388 476.059 396.991 482.46 396.972C488.626 396.954 494.792 396.927 500.957 396.957C506.414 396.983 509.181 399.746 509.237 405.204C509.279 409.37 509.245 413.536 509.245 417.702C509.246 424.716 506.543 427.669 499.404 427.926C493.745 428.129 488.071 428.064 482.408 427.942C476.587 427.818 472.445 423.663 472.267 417.864Z" fill="#EEB4E9"/>
<path d="M264.431 535.948C264.296 531.458 264.404 526.96 264.403 522.466C264.404 504.655 264.39 487.843 264.409 471.03C264.419 461.705 267.287 458.865 276.647 458.862C304.612 458.855 332.576 458.849 360.541 458.868C368.696 458.874 371.296 461.473 371.302 469.586C371.32 491.724 371.319 513.863 371.302 536.002C371.296 543.732 368.159 546.915 360.475 546.921C332.178 546.943 303.88 546.948 275.582 546.917C268.107 546.909 264.658 543.516 264.431 535.948Z" fill="#EEB4E9"/>
<path d="M390.045 366.055L374.747 366.055C341.443 366.055 309.136 365.834 276.836 366.205C268.485 366.301 264.246 361.9 264.031 353.723C263.527 334.528 269.066 334.984 282.834 335.004C353.936 335.109 425.039 335.045 496.141 335.085C498.606 335.087 501.128 335.322 503.522 335.88C507.396 336.782 509.381 339.321 509.283 343.465C509.17 348.291 509.293 353.122 509.234 357.951C509.177 362.682 506.412 365.596 501.63 365.999C500.141 366.125 498.635 366.053 497.136 366.053C461.439 366.055 425.742 366.055 390.045 366.055Z" fill="#EEB4E9"/>
</svg>
