<svg width="1200" height="800" viewBox="0 0 1200 800" fill="none" xmlns="http://www.w3.org/2000/svg">
<path d="M351.147 256.915L417 256.897C416.991 230.431 416.982 203.965 416.58 177L380.446 185.447C352.597 192.752 324.705 199.897 296.826 207.088C270.054 213.994 243.256 220.795 216.508 227.79C185.176 235.984 153.893 244.364 122.57 252.596C117.669 253.884 112.673 254.812 107.288 256.165C106.878 256.625 106.901 256.826 107.387 257C129.404 256.97 150.957 256.97 172.51 256.964C232.055 256.948 291.601 256.932 351.147 256.915Z" fill="#B3C7F3"/>
<path d="M588.583 481C587.544 481 586.741 480.717 586.174 480.15C585.608 479.489 585.324 478.686 585.324 477.742V385.096C585.324 384.152 585.608 383.396 586.174 382.83C586.741 382.169 587.544 381.838 588.583 381.838H596.091C597.035 381.838 597.791 382.169 598.357 382.83C599.018 383.396 599.349 384.152 599.349 385.096V477.742C599.349 478.686 599.018 479.489 598.357 480.15C597.791 480.717 597.035 481 596.091 481H588.583ZM624.06 481C623.115 481 622.312 480.717 621.651 480.15C621.085 479.489 620.801 478.686 620.801 477.742V410.595C620.801 409.651 621.085 408.895 621.651 408.328C622.312 407.667 623.115 407.337 624.06 407.337H630.718C631.662 407.337 632.418 407.667 632.984 408.328C633.645 408.895 633.976 409.651 633.976 410.595V416.828C636.431 413.617 639.501 411.02 643.184 409.037C646.961 406.959 651.778 405.92 657.633 405.92C663.772 405.92 668.966 407.29 673.216 410.028C677.56 412.673 680.818 416.403 682.99 421.219C685.162 425.941 686.248 431.466 686.248 437.794V477.742C686.248 478.686 685.965 479.489 685.398 480.15C684.832 480.717 684.076 481 683.132 481H676.049C675.104 481 674.302 480.717 673.641 480.15C673.074 479.489 672.791 478.686 672.791 477.742V438.502C672.791 431.891 671.185 426.744 667.974 423.061C664.763 419.283 660.041 417.395 653.808 417.395C647.953 417.395 643.231 419.283 639.642 423.061C636.148 426.744 634.401 431.891 634.401 438.502V477.742C634.401 478.686 634.07 479.489 633.409 480.15C632.842 480.717 632.087 481 631.143 481H624.06ZM730.793 482.417C725.504 482.417 720.971 481.756 717.193 480.433C713.416 479.111 710.346 477.506 707.985 475.617C705.624 473.728 703.83 471.839 702.602 469.951C701.469 468.062 700.855 466.551 700.761 465.417C700.666 464.379 700.997 463.576 701.752 463.009C702.508 462.443 703.263 462.159 704.019 462.159H710.252C710.819 462.159 711.244 462.254 711.527 462.443C711.905 462.537 712.377 462.915 712.943 463.576C714.171 464.898 715.541 466.22 717.052 467.542C718.563 468.864 720.404 469.951 722.576 470.8C724.843 471.65 727.629 472.075 730.934 472.075C735.751 472.075 739.717 471.178 742.834 469.384C745.95 467.495 747.509 464.756 747.509 461.168C747.509 458.807 746.847 456.918 745.525 455.501C744.298 454.085 742.031 452.81 738.726 451.676C735.515 450.543 731.076 449.363 725.41 448.135C719.743 446.813 715.257 445.207 711.952 443.318C708.646 441.335 706.285 439.021 704.869 436.377C703.452 433.638 702.744 430.569 702.744 427.169C702.744 423.675 703.783 420.322 705.86 417.111C707.938 413.806 710.96 411.114 714.927 409.037C718.988 406.959 724.04 405.92 730.084 405.92C734.995 405.92 739.198 406.534 742.692 407.762C746.186 408.989 749.067 410.548 751.333 412.437C753.6 414.231 755.3 416.025 756.433 417.82C757.566 419.614 758.18 421.125 758.275 422.353C758.369 423.297 758.086 424.1 757.425 424.761C756.764 425.328 756.008 425.611 755.158 425.611H749.208C748.547 425.611 747.981 425.469 747.509 425.186C747.131 424.903 746.753 424.572 746.375 424.194C745.431 422.967 744.298 421.739 742.975 420.511C741.748 419.283 740.095 418.292 738.017 417.536C736.034 416.686 733.39 416.261 730.084 416.261C725.362 416.261 721.821 417.253 719.46 419.236C717.099 421.219 715.918 423.722 715.918 426.744C715.918 428.539 716.438 430.144 717.477 431.561C718.515 432.977 720.499 434.252 723.426 435.385C726.354 436.519 730.698 437.746 736.459 439.069C742.692 440.296 747.603 441.949 751.192 444.027C754.78 446.104 757.33 448.513 758.841 451.251C760.352 453.99 761.108 457.154 761.108 460.743C761.108 464.709 759.927 468.345 757.566 471.65C755.3 474.956 751.9 477.6 747.367 479.583C742.928 481.472 737.403 482.417 730.793 482.417ZM779.349 481C778.404 481 777.602 480.717 776.941 480.15C776.374 479.489 776.091 478.686 776.091 477.742V410.595C776.091 409.651 776.374 408.895 776.941 408.328C777.602 407.667 778.404 407.337 779.349 407.337H786.149C787.093 407.337 787.848 407.667 788.415 408.328C788.982 408.895 789.265 409.651 789.265 410.595V477.742C789.265 478.686 788.982 479.489 788.415 480.15C787.848 480.717 787.093 481 786.149 481H779.349ZM778.216 393.596C777.271 393.596 776.468 393.312 775.807 392.746C775.241 392.085 774.957 391.282 774.957 390.338V382.688C774.957 381.744 775.241 380.988 775.807 380.421C776.468 379.76 777.271 379.43 778.216 379.43H787.14C788.085 379.43 788.84 379.76 789.407 380.421C790.068 380.988 790.398 381.744 790.398 382.688V390.338C790.398 391.282 790.068 392.085 789.407 392.746C788.84 393.312 788.085 393.596 787.14 393.596H778.216ZM839.156 512.165C832.734 512.165 827.445 511.315 823.29 509.615C819.229 507.915 816.018 505.838 813.657 503.382C811.391 501.021 809.738 498.613 808.699 496.158C807.755 493.797 807.235 491.908 807.141 490.491C807.046 489.547 807.33 488.744 807.991 488.083C808.746 487.422 809.549 487.091 810.399 487.091H817.199C818.049 487.091 818.757 487.28 819.324 487.658C819.89 488.036 820.362 488.839 820.74 490.066C821.307 491.483 822.157 493.041 823.29 494.741C824.423 496.535 826.17 498.046 828.531 499.274C830.892 500.596 834.198 501.257 838.448 501.257C842.886 501.257 846.617 500.644 849.639 499.416C852.661 498.283 854.927 496.205 856.438 493.183C858.044 490.255 858.847 486.194 858.847 481V471.367C856.58 474.295 853.605 476.75 849.922 478.733C846.239 480.622 841.611 481.567 836.039 481.567C830.751 481.567 826.218 480.669 822.44 478.875C818.662 476.986 815.546 474.484 813.09 471.367C810.729 468.156 808.935 464.52 807.707 460.459C806.574 456.398 805.913 452.149 805.724 447.71C805.63 445.066 805.63 442.468 805.724 439.919C805.913 435.48 806.574 431.23 807.707 427.169C808.935 423.108 810.729 419.472 813.09 416.261C815.546 413.05 818.662 410.548 822.44 408.753C826.218 406.865 830.751 405.92 836.039 405.92C841.706 405.92 846.381 407.006 850.064 409.178C853.841 411.256 856.911 413.806 859.272 416.828V410.737C859.272 409.792 859.555 408.989 860.122 408.328C860.783 407.667 861.585 407.337 862.53 407.337H869.046C869.991 407.337 870.793 407.667 871.454 408.328C872.115 408.989 872.446 409.792 872.446 410.737V479.442C872.446 485.769 871.36 491.388 869.188 496.299C867.11 501.21 863.616 505.082 858.705 507.915C853.889 510.749 847.372 512.165 839.156 512.165ZM838.873 470.234C843.595 470.234 847.372 469.148 850.205 466.976C853.133 464.804 855.258 462.065 856.58 458.759C857.997 455.454 858.752 452.101 858.847 448.702C858.941 447.379 858.988 445.774 858.988 443.885C858.988 441.902 858.941 440.249 858.847 438.927C858.752 435.527 857.997 432.175 856.58 428.869C855.258 425.564 853.133 422.825 850.205 420.653C847.372 418.481 843.595 417.395 838.873 417.395C834.151 417.395 830.373 418.481 827.54 420.653C824.707 422.731 822.676 425.516 821.448 429.011C820.221 432.411 819.512 436.094 819.324 440.06C819.229 442.516 819.229 445.018 819.324 447.568C819.512 451.535 820.221 455.265 821.448 458.759C822.676 462.159 824.707 464.945 827.54 467.117C830.373 469.195 834.151 470.234 838.873 470.234ZM895.491 481C894.547 481 893.744 480.717 893.083 480.15C892.516 479.489 892.233 478.686 892.233 477.742V383.68C892.233 382.735 892.516 381.98 893.083 381.413C893.744 380.752 894.547 380.421 895.491 380.421H902.574C903.613 380.421 904.416 380.752 904.982 381.413C905.549 381.98 905.832 382.735 905.832 383.68V416.686C908.382 413.475 911.499 410.878 915.182 408.895C918.865 406.912 923.54 405.92 929.206 405.92C935.345 405.92 940.539 407.29 944.789 410.028C949.133 412.673 952.391 416.403 954.563 421.219C956.83 425.941 957.963 431.466 957.963 437.794V477.742C957.963 478.686 957.68 479.489 957.113 480.15C956.547 480.717 955.744 481 954.705 481H947.622C946.678 481 945.875 480.717 945.214 480.15C944.647 479.489 944.364 478.686 944.364 477.742V438.502C944.364 431.891 942.758 426.744 939.547 423.061C936.337 419.283 931.615 417.395 925.381 417.395C919.526 417.395 914.804 419.283 911.215 423.061C907.627 426.744 905.832 431.891 905.832 438.502V477.742C905.832 478.686 905.549 479.489 904.982 480.15C904.416 480.717 903.613 481 902.574 481H895.491ZM1004.79 481C999.499 481 995.202 480.008 991.896 478.025C988.591 475.947 986.183 473.067 984.672 469.384C983.161 465.606 982.405 461.168 982.405 456.068V418.67H971.356C970.411 418.67 969.609 418.386 968.947 417.82C968.381 417.159 968.097 416.356 968.097 415.411V410.595C968.097 409.651 968.381 408.895 968.947 408.328C969.609 407.667 970.411 407.337 971.356 407.337H982.405V383.68C982.405 382.735 982.688 381.98 983.255 381.413C983.916 380.752 984.719 380.421 985.663 380.421H992.321C993.266 380.421 994.021 380.752 994.588 381.413C995.249 381.98 995.58 382.735 995.58 383.68V407.337H1013.15C1014.09 407.337 1014.85 407.667 1015.41 408.328C1016.07 408.895 1016.4 409.651 1016.4 410.595V415.411C1016.4 416.356 1016.07 417.159 1015.41 417.82C1014.85 418.386 1014.09 418.67 1013.15 418.67H995.58V455.076C995.58 459.515 996.335 463.009 997.846 465.559C999.357 468.109 1002.05 469.384 1005.92 469.384H1014.56C1015.51 469.384 1016.26 469.714 1016.83 470.375C1017.49 470.942 1017.82 471.698 1017.82 472.642V477.742C1017.82 478.686 1017.49 479.489 1016.83 480.15C1016.26 480.717 1015.51 481 1014.56 481H1004.79ZM1055.45 482.417C1050.16 482.417 1045.63 481.756 1041.85 480.433C1038.07 479.111 1035 477.506 1032.64 475.617C1030.28 473.728 1028.49 471.839 1027.26 469.951C1026.12 468.062 1025.51 466.551 1025.42 465.417C1025.32 464.379 1025.65 463.576 1026.41 463.009C1027.16 462.443 1027.92 462.159 1028.67 462.159H1034.91C1035.47 462.159 1035.9 462.254 1036.18 462.443C1036.56 462.537 1037.03 462.915 1037.6 463.576C1038.83 464.898 1040.2 466.22 1041.71 467.542C1043.22 468.864 1045.06 469.951 1047.23 470.8C1049.5 471.65 1052.28 472.075 1055.59 472.075C1060.41 472.075 1064.37 471.178 1067.49 469.384C1070.61 467.495 1072.16 464.756 1072.16 461.168C1072.16 458.807 1071.5 456.918 1070.18 455.501C1068.95 454.085 1066.69 452.81 1063.38 451.676C1060.17 450.543 1055.73 449.363 1050.07 448.135C1044.4 446.813 1039.91 445.207 1036.61 443.318C1033.3 441.335 1030.94 439.021 1029.52 436.377C1028.11 433.638 1027.4 430.569 1027.4 427.169C1027.4 423.675 1028.44 420.322 1030.52 417.111C1032.59 413.806 1035.62 411.114 1039.58 409.037C1043.64 406.959 1048.7 405.92 1054.74 405.92C1059.65 405.92 1063.85 406.534 1067.35 407.762C1070.84 408.989 1073.72 410.548 1075.99 412.437C1078.26 414.231 1079.96 416.025 1081.09 417.82C1082.22 419.614 1082.84 421.125 1082.93 422.353C1083.03 423.297 1082.74 424.1 1082.08 424.761C1081.42 425.328 1080.66 425.611 1079.81 425.611H1073.86C1073.2 425.611 1072.64 425.469 1072.16 425.186C1071.79 424.903 1071.41 424.572 1071.03 424.194C1070.09 422.967 1068.95 421.739 1067.63 420.511C1066.4 419.283 1064.75 418.292 1062.67 417.536C1060.69 416.686 1058.05 416.261 1054.74 416.261C1050.02 416.261 1046.48 417.253 1044.12 419.236C1041.75 421.219 1040.57 423.722 1040.57 426.744C1040.57 428.539 1041.09 430.144 1042.13 431.561C1043.17 432.977 1045.15 434.252 1048.08 435.385C1051.01 436.519 1055.35 437.746 1061.11 439.069C1067.35 440.296 1072.26 441.949 1075.85 444.027C1079.44 446.104 1081.99 448.513 1083.5 451.251C1085.01 453.99 1085.76 457.154 1085.76 460.743C1085.76 464.709 1084.58 468.345 1082.22 471.65C1079.96 474.956 1076.56 477.6 1072.02 479.583C1067.58 481.472 1062.06 482.417 1055.45 482.417Z" fill="#1D1D1B"/>
<path d="M107 257H439C474.346 257 503 285.654 503 321V559C503 594.346 474.346 623 439 623H171C135.654 623 107 594.346 107 559V257Z" fill="#4074E2"/>
<path d="M283.217 464.144L202.331 408.48C199.62 406.615 198 403.534 198 400.243V380.938C198 375.276 204.372 371.957 209.012 375.202L280.599 425.271C282.784 426.799 285.783 426.344 287.416 424.237L344.305 350.832C345.724 349.001 347.735 347.719 349.993 347.206L402.727 335.221C407.733 334.083 412.5 337.888 412.5 343.022V357.416C412.5 362.131 409.206 366.206 404.595 367.194L367.07 375.235C364.764 375.729 362.708 377.022 361.263 378.885L296.789 462.034C293.54 466.224 287.585 467.15 283.217 464.144Z" fill="white"/>
<path fill-rule="evenodd" clip-rule="evenodd" d="M402.7 387.342C407.143 386.16 411.5 389.509 411.5 394.107V537C411.5 542.523 407.023 547 401.5 547H390.5C384.977 547 380.5 542.523 380.5 537V400.937C380.5 396.404 383.548 392.439 387.928 391.273L402.7 387.342ZM353.5 431.812C353.5 428.948 349.871 427.712 348.123 429.981L324.577 460.553C323.23 462.302 322.5 464.447 322.5 466.655V537C322.5 542.523 326.977 547 332.5 547H343.5C349.023 547 353.5 542.523 353.5 537V431.812ZM207.972 436.722C203.999 433.903 198.5 436.744 198.5 441.616V537C198.5 542.523 202.977 547 208.5 547H219.5C225.023 547 229.5 542.523 229.5 537V457.166C229.5 453.925 227.93 450.886 225.287 449.011L207.972 436.722ZM269.93 477.57C265.952 474.799 260.5 477.645 260.5 482.493V537C260.5 542.523 264.977 547 270.5 547H281.5C287.023 547 291.5 542.523 291.5 537V497.819C291.5 494.548 289.9 491.484 287.217 489.614L269.93 477.57Z" fill="#B3C7F3"/>
</svg>
