<svg width="1200" height="800" viewBox="0 0 1200 800" fill="none" xmlns="http://www.w3.org/2000/svg">
<path d="M644.147 162.915L710 162.897C709.991 136.431 709.982 109.965 709.58 83L673.446 91.4468C645.597 98.7524 617.705 105.897 589.826 113.088C563.054 119.994 536.256 126.795 509.508 133.79C478.176 141.984 446.893 150.364 415.57 158.596C410.669 159.884 405.673 160.812 400.288 162.165C399.878 162.625 399.901 162.826 400.387 163C422.404 162.97 443.957 162.97 465.51 162.964C525.055 162.948 584.601 162.932 644.147 162.915Z" fill="#B3C7F3"/>
<path d="M353.742 720C352.704 720 351.901 719.717 351.334 719.15C350.768 718.489 350.484 717.686 350.484 716.742V624.096C350.484 623.152 350.768 622.396 351.334 621.83C351.901 621.169 352.704 620.838 353.742 620.838H361.25C362.195 620.838 362.95 621.169 363.517 621.83C364.178 622.396 364.509 623.152 364.509 624.096V716.742C364.509 717.686 364.178 718.489 363.517 719.15C362.95 719.717 362.195 720 361.25 720H353.742ZM389.219 720C388.275 720 387.472 719.717 386.811 719.15C386.245 718.489 385.961 717.686 385.961 716.742V649.595C385.961 648.651 386.245 647.895 386.811 647.328C387.472 646.667 388.275 646.337 389.219 646.337H395.877C396.822 646.337 397.577 646.667 398.144 647.328C398.805 647.895 399.136 648.651 399.136 649.595V655.828C401.591 652.617 404.66 650.02 408.344 648.037C412.121 645.959 416.938 644.92 422.793 644.92C428.931 644.92 434.126 646.29 438.375 649.028C442.72 651.673 445.978 655.403 448.15 660.219C450.322 664.941 451.408 670.466 451.408 676.794V716.742C451.408 717.686 451.125 718.489 450.558 719.15C449.992 719.717 449.236 720 448.292 720H441.209C440.264 720 439.461 719.717 438.8 719.15C438.234 718.489 437.95 717.686 437.95 716.742V677.502C437.95 670.891 436.345 665.744 433.134 662.061C429.923 658.283 425.201 656.395 418.968 656.395C413.113 656.395 408.391 658.283 404.802 662.061C401.308 665.744 399.561 670.891 399.561 677.502V716.742C399.561 717.686 399.23 718.489 398.569 719.15C398.002 719.717 397.247 720 396.302 720H389.219ZM495.952 721.417C490.664 721.417 486.131 720.756 482.353 719.433C478.575 718.111 475.506 716.506 473.145 714.617C470.784 712.728 468.99 710.839 467.762 708.951C466.629 707.062 466.015 705.551 465.921 704.417C465.826 703.379 466.157 702.576 466.912 702.009C467.668 701.443 468.423 701.159 469.179 701.159H475.412C475.978 701.159 476.403 701.254 476.687 701.443C477.064 701.537 477.537 701.915 478.103 702.576C479.331 703.898 480.7 705.22 482.211 706.542C483.722 707.864 485.564 708.951 487.736 709.8C490.003 710.65 492.789 711.075 496.094 711.075C500.911 711.075 504.877 710.178 507.994 708.384C511.11 706.495 512.668 703.756 512.668 700.168C512.668 697.807 512.007 695.918 510.685 694.501C509.457 693.085 507.191 691.81 503.885 690.676C500.674 689.543 496.236 688.363 490.569 687.135C484.903 685.813 480.417 684.207 477.112 682.318C473.806 680.335 471.445 678.021 470.029 675.377C468.612 672.638 467.904 669.569 467.904 666.169C467.904 662.675 468.943 659.322 471.02 656.111C473.098 652.806 476.12 650.114 480.087 648.037C484.147 645.959 489.2 644.92 495.244 644.92C500.155 644.92 504.358 645.534 507.852 646.762C511.346 647.989 514.227 649.548 516.493 651.437C518.76 653.231 520.46 655.025 521.593 656.82C522.726 658.614 523.34 660.125 523.435 661.353C523.529 662.297 523.246 663.1 522.585 663.761C521.923 664.328 521.168 664.611 520.318 664.611H514.368C513.707 664.611 513.141 664.469 512.668 664.186C512.291 663.903 511.913 663.572 511.535 663.194C510.591 661.967 509.457 660.739 508.135 659.511C506.908 658.283 505.255 657.292 503.177 656.536C501.194 655.686 498.55 655.261 495.244 655.261C490.522 655.261 486.981 656.253 484.62 658.236C482.259 660.219 481.078 662.722 481.078 665.744C481.078 667.539 481.598 669.144 482.636 670.561C483.675 671.977 485.658 673.252 488.586 674.385C491.514 675.519 495.858 676.746 501.619 678.069C507.852 679.296 512.763 680.949 516.352 683.027C519.94 685.104 522.49 687.513 524.001 690.251C525.512 692.99 526.268 696.154 526.268 699.743C526.268 703.709 525.087 707.345 522.726 710.65C520.46 713.956 517.06 716.6 512.527 718.583C508.088 720.472 502.563 721.417 495.952 721.417ZM544.509 720C543.564 720 542.762 719.717 542.1 719.15C541.534 718.489 541.25 717.686 541.25 716.742V649.595C541.25 648.651 541.534 647.895 542.1 647.328C542.762 646.667 543.564 646.337 544.509 646.337H551.308C552.253 646.337 553.008 646.667 553.575 647.328C554.142 647.895 554.425 648.651 554.425 649.595V716.742C554.425 717.686 554.142 718.489 553.575 719.15C553.008 719.717 552.253 720 551.308 720H544.509ZM543.375 632.596C542.431 632.596 541.628 632.312 540.967 631.746C540.401 631.085 540.117 630.282 540.117 629.338V621.688C540.117 620.744 540.401 619.988 540.967 619.421C541.628 618.76 542.431 618.43 543.375 618.43H552.3C553.244 618.43 554 618.76 554.567 619.421C555.228 619.988 555.558 620.744 555.558 621.688V629.338C555.558 630.282 555.228 631.085 554.567 631.746C554 632.312 553.244 632.596 552.3 632.596H543.375ZM604.316 751.165C597.894 751.165 592.605 750.315 588.45 748.615C584.389 746.915 581.178 744.838 578.817 742.382C576.55 740.021 574.898 737.613 573.859 735.158C572.914 732.797 572.395 730.908 572.301 729.491C572.206 728.547 572.489 727.744 573.151 727.083C573.906 726.422 574.709 726.091 575.559 726.091H582.358C583.208 726.091 583.917 726.28 584.483 726.658C585.05 727.036 585.522 727.839 585.9 729.066C586.467 730.483 587.317 732.041 588.45 733.741C589.583 735.535 591.33 737.046 593.691 738.274C596.052 739.596 599.358 740.257 603.607 740.257C608.046 740.257 611.776 739.644 614.799 738.416C617.821 737.283 620.087 735.205 621.598 732.183C623.204 729.255 624.006 725.194 624.006 720V710.367C621.74 713.295 618.765 715.75 615.082 717.733C611.399 719.622 606.771 720.567 601.199 720.567C595.911 720.567 591.377 719.669 587.6 717.875C583.822 715.986 580.706 713.484 578.25 710.367C575.889 707.156 574.095 703.52 572.867 699.459C571.734 695.398 571.073 691.149 570.884 686.71C570.79 684.066 570.79 681.468 570.884 678.919C571.073 674.48 571.734 670.23 572.867 666.169C574.095 662.108 575.889 658.472 578.25 655.261C580.706 652.05 583.822 649.548 587.6 647.753C591.377 645.865 595.911 644.92 601.199 644.92C606.866 644.92 611.54 646.006 615.224 648.178C619.001 650.256 622.07 652.806 624.431 655.828V649.737C624.431 648.792 624.715 647.989 625.281 647.328C625.942 646.667 626.745 646.337 627.69 646.337H634.206C635.15 646.337 635.953 646.667 636.614 647.328C637.275 647.989 637.606 648.792 637.606 649.737V718.442C637.606 724.769 636.52 730.388 634.348 735.299C632.27 740.21 628.776 744.082 623.865 746.915C619.048 749.749 612.532 751.165 604.316 751.165ZM604.032 709.234C608.754 709.234 612.532 708.148 615.365 705.976C618.293 703.804 620.418 701.065 621.74 697.759C623.157 694.454 623.912 691.101 624.006 687.702C624.101 686.379 624.148 684.774 624.148 682.885C624.148 680.902 624.101 679.249 624.006 677.927C623.912 674.527 623.157 671.175 621.74 667.869C620.418 664.564 618.293 661.825 615.365 659.653C612.532 657.481 608.754 656.395 604.032 656.395C599.31 656.395 595.533 657.481 592.7 659.653C589.866 661.731 587.836 664.516 586.608 668.011C585.381 671.411 584.672 675.094 584.483 679.06C584.389 681.516 584.389 684.018 584.483 686.568C584.672 690.535 585.381 694.265 586.608 697.759C587.836 701.159 589.866 703.945 592.7 706.117C595.533 708.195 599.31 709.234 604.032 709.234ZM660.651 720C659.707 720 658.904 719.717 658.243 719.15C657.676 718.489 657.393 717.686 657.393 716.742V622.68C657.393 621.735 657.676 620.98 658.243 620.413C658.904 619.752 659.707 619.421 660.651 619.421H667.734C668.773 619.421 669.576 619.752 670.142 620.413C670.709 620.98 670.992 621.735 670.992 622.68V655.686C673.542 652.475 676.659 649.878 680.342 647.895C684.025 645.912 688.7 644.92 694.366 644.92C700.505 644.92 705.699 646.29 709.949 649.028C714.293 651.673 717.551 655.403 719.723 660.219C721.99 664.941 723.123 670.466 723.123 676.794V716.742C723.123 717.686 722.84 718.489 722.273 719.15C721.706 719.717 720.904 720 719.865 720H712.782C711.838 720 711.035 719.717 710.374 719.15C709.807 718.489 709.524 717.686 709.524 716.742V677.502C709.524 670.891 707.918 665.744 704.707 662.061C701.496 658.283 696.774 656.395 690.541 656.395C684.686 656.395 679.964 658.283 676.375 662.061C672.787 665.744 670.992 670.891 670.992 677.502V716.742C670.992 717.686 670.709 718.489 670.142 719.15C669.576 719.717 668.773 720 667.734 720H660.651ZM769.947 720C764.659 720 760.362 719.008 757.056 717.025C753.751 714.947 751.343 712.067 749.832 708.384C748.32 704.606 747.565 700.168 747.565 695.068V657.67H736.515C735.571 657.67 734.768 657.386 734.107 656.82C733.541 656.159 733.257 655.356 733.257 654.411V649.595C733.257 648.651 733.541 647.895 734.107 647.328C734.768 646.667 735.571 646.337 736.515 646.337H747.565V622.68C747.565 621.735 747.848 620.98 748.415 620.413C749.076 619.752 749.879 619.421 750.823 619.421H757.481C758.426 619.421 759.181 619.752 759.748 620.413C760.409 620.98 760.739 621.735 760.739 622.68V646.337H778.305C779.25 646.337 780.005 646.667 780.572 647.328C781.233 647.895 781.563 648.651 781.563 649.595V654.411C781.563 655.356 781.233 656.159 780.572 656.82C780.005 657.386 779.25 657.67 778.305 657.67H760.739V694.076C760.739 698.515 761.495 702.009 763.006 704.559C764.517 707.109 767.208 708.384 771.081 708.384H779.722C780.666 708.384 781.422 708.714 781.988 709.375C782.649 709.942 782.98 710.698 782.98 711.642V716.742C782.98 717.686 782.649 718.489 781.988 719.15C781.422 719.717 780.666 720 779.722 720H769.947ZM820.608 721.417C815.32 721.417 810.787 720.756 807.009 719.433C803.231 718.111 800.162 716.506 797.801 714.617C795.44 712.728 793.646 710.839 792.418 708.951C791.285 707.062 790.671 705.551 790.576 704.417C790.482 703.379 790.813 702.576 791.568 702.009C792.324 701.443 793.079 701.159 793.835 701.159H800.068C800.634 701.159 801.059 701.254 801.343 701.443C801.72 701.537 802.193 701.915 802.759 702.576C803.987 703.898 805.356 705.22 806.867 706.542C808.378 707.864 810.22 708.951 812.392 709.8C814.659 710.65 817.445 711.075 820.75 711.075C825.567 711.075 829.533 710.178 832.65 708.384C835.766 706.495 837.324 703.756 837.324 700.168C837.324 697.807 836.663 695.918 835.341 694.501C834.113 693.085 831.847 691.81 828.541 690.676C825.33 689.543 820.892 688.363 815.225 687.135C809.559 685.813 805.073 684.207 801.768 682.318C798.462 680.335 796.101 678.021 794.685 675.377C793.268 672.638 792.56 669.569 792.56 666.169C792.56 662.675 793.599 659.322 795.676 656.111C797.754 652.806 800.776 650.114 804.742 648.037C808.803 645.959 813.856 644.92 819.9 644.92C824.811 644.92 829.014 645.534 832.508 646.762C836.002 647.989 838.883 649.548 841.149 651.437C843.416 653.231 845.116 655.025 846.249 656.82C847.382 658.614 847.996 660.125 848.09 661.353C848.185 662.297 847.902 663.1 847.24 663.761C846.579 664.328 845.824 664.611 844.974 664.611H839.024C838.363 664.611 837.796 664.469 837.324 664.186C836.947 663.903 836.569 663.572 836.191 663.194C835.247 661.967 834.113 660.739 832.791 659.511C831.563 658.283 829.911 657.292 827.833 656.536C825.85 655.686 823.206 655.261 819.9 655.261C815.178 655.261 811.637 656.253 809.276 658.236C806.915 660.219 805.734 662.722 805.734 665.744C805.734 667.539 806.254 669.144 807.292 670.561C808.331 671.977 810.314 673.252 813.242 674.385C816.17 675.519 820.514 676.746 826.275 678.069C832.508 679.296 837.419 680.949 841.007 683.027C844.596 685.104 847.146 687.513 848.657 690.251C850.168 692.99 850.924 696.154 850.924 699.743C850.924 703.709 849.743 707.345 847.382 710.65C845.116 713.956 841.716 716.6 837.183 718.583C832.744 720.472 827.219 721.417 820.608 721.417Z" fill="#1D1D1B"/>
<path d="M400 163H732C767.346 163 796 191.654 796 227V465C796 500.346 767.346 529 732 529H464C428.654 529 400 500.346 400 465V163Z" fill="#4074E2"/>
<path d="M578.217 370.144L497.331 314.48C494.62 312.615 493 309.534 493 306.243V286.938C493 281.276 499.372 277.957 504.012 281.202L575.599 331.271C577.784 332.799 580.783 332.344 582.416 330.237L639.305 256.832C640.724 255.001 642.735 253.719 644.993 253.206L697.727 241.221C702.733 240.083 707.5 243.888 707.5 249.022V263.416C707.5 268.131 704.206 272.206 699.595 273.194L662.07 281.235C659.764 281.729 657.708 283.022 656.263 284.885L591.789 368.034C588.54 372.224 582.585 373.15 578.217 370.144Z" fill="white"/>
<path fill-rule="evenodd" clip-rule="evenodd" d="M697.7 293.342C702.143 292.16 706.5 295.509 706.5 300.107V443C706.5 448.523 702.023 453 696.5 453H685.5C679.977 453 675.5 448.523 675.5 443V306.937C675.5 302.404 678.548 298.439 682.928 297.273L697.7 293.342ZM648.5 337.812C648.5 334.948 644.871 333.712 643.123 335.981L619.577 366.553C618.23 368.302 617.5 370.447 617.5 372.655V443C617.5 448.523 621.977 453 627.5 453H638.5C644.023 453 648.5 448.523 648.5 443V337.812ZM502.972 342.722C498.999 339.903 493.5 342.744 493.5 347.616V443C493.5 448.523 497.977 453 503.5 453H514.5C520.023 453 524.5 448.523 524.5 443V363.166C524.5 359.925 522.93 356.886 520.287 355.011L502.972 342.722ZM564.93 383.57C560.952 380.799 555.5 383.645 555.5 388.493V443C555.5 448.523 559.977 453 565.5 453H576.5C582.023 453 586.5 448.523 586.5 443V403.819C586.5 400.548 584.9 397.484 582.217 395.614L564.93 383.57Z" fill="#B3C7F3"/>
</svg>
