<svg width="1082" height="1082" viewBox="0 0 1082 1082" fill="none" xmlns="http://www.w3.org/2000/svg">
<g clip-path="url(#clip0_214_356)">
<path d="M1081.67 242.756C1081.67 109.232 972.43 0 838.915 0H242.756C109.241 0 0 109.232 0 242.756V838.951C0 972.457 109.241 1081.68 242.756 1081.68H838.915C972.439 1081.68 1081.68 972.457 1081.68 838.942L1081.67 242.756Z" fill="#8AA31B"/>
<path d="M706.715 341.288V149.127L238.906 273.683L706.715 341.288Z" fill="#D0DAA3"/>
<path d="M590.504 462.789C616.573 462.789 637.611 483.899 637.611 509.932C637.611 512.465 636.638 514.953 634.826 516.746C633.032 518.54 630.535 519.55 627.993 519.55C590.883 519.55 491.657 519.55 454.528 519.55C451.995 519.55 449.507 518.54 447.713 516.746C445.91 514.944 444.883 512.465 444.883 509.932C444.883 483.899 465.949 462.789 491.99 462.789H590.504ZM728.95 624.139C732.123 624.139 735.062 625.572 736.973 628.033C738.865 630.512 739.541 633.676 738.784 636.741C724.858 689.662 676.678 728.729 619.421 728.729H463.082C394.972 728.729 339.816 673.518 339.816 605.426V509.941C339.816 441.813 395.008 386.62 463.082 386.62H619.421C687.486 386.62 742.714 441.813 742.714 509.941V576.014C742.714 586.902 733.854 595.772 722.956 595.772H454.528C451.995 595.772 449.507 596.782 447.713 598.576C445.91 600.378 444.883 602.839 444.883 605.39C444.883 631.423 465.949 652.497 491.99 652.497H590.558C607.513 652.497 622.405 643.555 630.725 630.007C632.915 626.402 636.827 624.229 641.064 624.229C659.146 624.139 706.388 624.139 728.95 624.139ZM742.345 273.378H238.643V741.222C238.643 796.866 283.74 841.999 339.365 841.999H742.291C797.934 841.999 843.04 796.866 843.04 741.222V374.082C843.049 318.438 797.943 273.378 742.345 273.378Z" fill="white"/>
</g>
<defs>
<clipPath id="clip0_214_356">
<rect width="1081.68" height="1081.68" fill="white"/>
</clipPath>
</defs>
</svg>
