<svg width="947" height="1082" viewBox="0 0 947 1082" fill="none" xmlns="http://www.w3.org/2000/svg">
<g clip-path="url(#clip0_214_456)">
<path d="M731.617 0L-1.67188 194.477L731.617 465.843V0Z" fill="#D0DAA3"/>
<path d="M944.781 351.647C944.781 264.833 874.156 194.479 787.045 194.479H-1.68945V924.522C-1.68945 1011.31 68.9262 1081.69 156.038 1081.69H787.045C874.174 1081.69 944.781 1011.31 944.781 924.522V351.647Z" fill="#8AA31B"/>
<path d="M594.287 370.56H348.863C241.966 370.56 155.314 456.914 155.314 563.45V712.812C155.314 819.304 241.957 905.676 348.863 905.676H594.287C684.202 905.676 759.811 844.561 781.643 761.758C782.851 757.035 781.796 752.041 778.759 748.21C775.784 744.343 771.133 742.09 766.247 742.09C730.813 742.09 656.637 742.09 628.216 742.261C621.564 742.261 615.416 745.686 612 751.356C598.965 772.476 575.583 786.484 548.92 786.484H394.185C353.316 786.484 320.235 753.511 320.235 712.812C320.235 712.812 320.235 712.812 320.235 712.785C320.235 708.792 321.812 704.979 324.66 702.131C327.5 699.3 331.394 697.714 335.369 697.714H756.819C773.936 697.714 787.827 683.886 787.827 666.805V563.45C787.845 456.914 701.139 370.56 594.287 370.56ZM618.427 574.096C615.587 576.917 611.765 578.531 607.718 578.531C549.434 578.531 393.681 578.531 335.369 578.531C331.394 578.531 327.5 576.917 324.66 574.096C321.83 571.284 320.235 567.426 320.235 563.423C320.235 522.716 353.307 489.734 394.185 489.734H548.902C589.771 489.734 622.88 522.716 622.88 563.423C622.88 567.426 621.275 571.284 618.427 574.096Z" fill="white"/>
</g>
<defs>
<clipPath id="clip0_214_456">
<rect width="946.47" height="1081.68" fill="white"/>
</clipPath>
</defs>
</svg>
