<svg width="947" height="1082" viewBox="0 0 947 1082" fill="none" xmlns="http://www.w3.org/2000/svg">
<g clip-path="url(#clip0_214_453)">
<path opacity="0.5" d="M732.963 299.995V0L0.386719 194.441L732.963 299.995Z" fill="white"/>
<path d="M550.999 489.663C591.841 489.663 624.787 522.628 624.787 563.254C624.787 567.202 623.255 571.096 620.425 573.899C617.621 576.694 613.7 578.28 609.716 578.28C551.603 578.28 396.21 578.28 338.07 578.28C334.104 578.28 330.21 576.685 327.397 573.899C324.576 571.078 322.963 567.211 322.963 563.254C322.963 522.628 355.945 489.663 396.733 489.663H550.999ZM767.813 741.56C772.779 741.56 777.394 743.804 780.387 747.644C783.344 751.52 784.398 756.451 783.217 761.237C761.404 843.851 685.965 904.848 596.285 904.848H351.465C244.802 904.848 158.43 818.647 158.43 712.354V563.281C158.43 456.916 244.856 370.769 351.465 370.769H596.276C702.876 370.769 789.374 456.925 789.374 563.281V666.428C789.374 683.41 775.483 697.265 758.42 697.265H338.07C334.104 697.265 330.21 698.842 327.397 701.646C324.576 704.467 322.963 708.298 322.963 712.282C322.963 752.926 355.945 785.818 396.733 785.818H551.089C577.635 785.818 600.963 771.856 614.007 750.718C617.423 745.084 623.534 741.686 630.187 741.686C658.5 741.56 732.478 741.56 767.813 741.56ZM788.797 193.968H0V924.346C0 1011.2 70.6157 1081.68 157.727 1081.68H788.707C875.836 1081.68 946.47 1011.2 946.47 924.346V351.181C946.488 264.314 875.854 193.968 788.797 193.968Z" fill="white"/>
</g>
<defs>
<clipPath id="clip0_214_453">
<rect width="946.47" height="1081.68" fill="white"/>
</clipPath>
</defs>
</svg>
