<svg width="1024" height="1024" viewBox="0 0 1024 1024" fill="none" xmlns="http://www.w3.org/2000/svg">
<path d="M130.5 747.865C123.505 747.865 118.936 743.389 118.936 735.648V657.028C118.936 649.474 123.505 645.184 130.034 645.184C136.562 645.184 141.225 649.474 141.225 657.028V664.303H141.691C145.981 652.832 156.427 645.277 169.856 645.277C183.846 645.277 193.825 652.458 197.462 665.142H198.021C202.778 652.925 214.529 645.277 228.798 645.277C248.29 645.277 261.066 658.427 261.066 678.199V735.648C261.066 743.389 256.403 747.865 249.502 747.865C242.507 747.865 237.844 743.389 237.844 735.648V683.888C237.844 671.764 231.502 664.862 220.125 664.862C208.933 664.862 201.286 673.069 201.286 684.914V735.648C201.286 743.389 196.902 747.865 190.001 747.865C183.006 747.865 178.716 743.389 178.716 735.648V682.675C178.716 671.67 172.001 664.862 161.183 664.862C149.992 664.862 142.158 673.536 142.158 685.473V735.648C142.158 743.389 137.401 747.865 130.5 747.865ZM308.723 747.585C289.604 747.585 275.708 735.555 275.708 717.742C275.708 700.208 289.231 689.67 313.293 688.178L339.5 686.686V679.598C339.5 669.246 332.505 663.277 321.034 663.277C311.987 663.277 306.112 666.354 300.33 674.841C297.905 678.012 294.827 679.504 290.91 679.504C285.221 679.504 281.118 675.774 281.118 670.178C281.118 668.033 281.677 665.981 282.703 663.836C287.739 652.365 303.034 645.091 321.966 645.091C346.494 645.091 362.442 658.054 362.442 677.919V736.208C362.442 743.668 357.686 747.865 351.157 747.865C344.815 747.865 340.432 744.042 340.059 737.14V730.239H339.593C333.904 740.964 321.5 747.585 308.723 747.585ZM315.811 730.052C328.868 730.052 339.5 721.286 339.5 709.348V701.794L316.557 703.193C305.366 703.939 298.931 708.975 298.931 716.809C298.931 724.923 305.739 730.052 315.811 730.052ZM387.623 721.565V665.049H381.374C375.592 665.049 372.048 661.598 372.048 656.002C372.048 650.5 375.592 647.143 381.374 647.143H387.623V633.993C387.623 626.532 392.099 621.869 399.28 621.869C406.368 621.869 410.845 626.532 410.845 633.993V647.143H421.57C427.352 647.143 430.896 650.5 430.896 656.002C430.896 661.598 427.352 665.049 421.57 665.049H410.845V716.529C410.845 723.99 413.456 727.254 420.171 727.814L421.85 728C428.005 728.56 431.176 731.171 431.176 736.581C431.176 743.389 425.207 747.026 414.575 747.026H413.643C396.389 747.026 387.623 738.446 387.623 721.565ZM451.787 721.565V665.049H445.538C439.756 665.049 436.212 661.598 436.212 656.002C436.212 650.5 439.756 647.143 445.538 647.143H451.787V633.993C451.787 626.532 456.263 621.869 463.444 621.869C470.532 621.869 475.009 626.532 475.009 633.993V647.143H485.734C491.516 647.143 495.06 650.5 495.06 656.002C495.06 661.598 491.516 665.049 485.734 665.049H475.009V716.529C475.009 723.99 477.62 727.254 484.335 727.814L486.014 728C492.169 728.56 495.34 731.171 495.34 736.581C495.34 743.389 489.371 747.026 478.739 747.026H477.807C460.553 747.026 451.787 738.446 451.787 721.565ZM521.64 633.247C514.458 633.247 508.77 627.651 508.77 620.656C508.77 613.568 514.458 608.066 521.64 608.066C528.914 608.066 534.603 613.568 534.603 620.656C534.603 627.651 528.914 633.247 521.64 633.247ZM521.64 747.865C514.552 747.865 510.075 743.202 510.075 735.648V657.401C510.075 649.94 514.552 645.184 521.64 645.184C528.728 645.184 533.297 649.94 533.297 657.495V735.648C533.297 743.202 528.728 747.865 521.64 747.865ZM565.1 747.865C558.292 747.865 553.442 743.482 553.442 735.648V621.775C553.442 613.941 558.292 609.558 565.1 609.558C571.908 609.558 576.664 613.941 576.664 621.775V735.648C576.664 743.482 571.908 747.865 565.1 747.865ZM608.373 747.865C601.658 747.865 597.088 743.762 597.088 736.208V621.775C597.088 613.941 601.938 609.558 608.746 609.558C615.554 609.558 620.311 613.941 620.311 621.775V664.116H620.87C626.559 652.552 637.75 645.464 651.833 645.464C676.734 645.464 692.588 664.956 692.588 696.571C692.588 728.187 676.827 747.585 651.74 747.585C637.284 747.585 626.186 740.591 620.311 729.12H619.844V736.208C619.844 743.668 615.088 747.865 608.373 747.865ZM644.652 728.56C659.48 728.56 668.807 716.25 668.807 696.571C668.807 676.986 659.48 664.583 644.652 664.583C630.29 664.583 620.217 677.359 620.217 696.571C620.217 715.97 630.29 728.56 644.652 728.56ZM742.204 747.772C720.753 747.772 707.137 733.876 707.137 711.027V657.401C707.137 649.661 711.894 645.184 718.702 645.184C725.51 645.184 730.359 649.661 730.359 657.495V706.364C730.359 720.54 737.261 728.187 750.317 728.187C763.747 728.187 772.047 718.674 772.047 704.312V657.401C772.047 649.661 776.897 645.184 783.705 645.184C790.42 645.184 795.27 649.661 795.27 657.495V736.114C795.27 743.575 790.793 747.865 784.171 747.865C777.457 747.865 772.887 743.575 772.887 736.114V728.84H772.42C767.198 740.871 757.219 747.772 742.204 747.772ZM851.227 747.585C826.326 747.585 810.191 727.907 810.191 696.478C810.191 665.235 826.326 645.464 851.227 645.464C865.402 645.464 876.594 652.832 881.816 663.743H882.376V621.775C882.376 613.941 887.132 609.558 893.94 609.558C900.749 609.558 905.598 613.941 905.598 621.775V736.208C905.598 743.668 900.842 747.865 894.127 747.865C887.412 747.865 882.376 743.762 882.376 736.208V728.467H881.91C877.153 739.845 866.521 747.585 851.227 747.585ZM858.221 728.56C872.863 728.56 882.469 716.156 882.469 696.571C882.469 677.173 872.863 664.583 858.221 664.583C843.299 664.583 833.973 676.986 833.973 696.571C833.973 716.25 843.206 728.56 858.221 728.56Z" fill="white"/>
<path d="M130.5 747.865C123.505 747.865 118.936 743.389 118.936 735.648V657.028C118.936 649.474 123.505 645.184 130.034 645.184C136.562 645.184 141.225 649.474 141.225 657.028V664.303H141.691C145.981 652.832 156.427 645.277 169.856 645.277C183.846 645.277 193.825 652.458 197.462 665.142H198.021C202.778 652.925 214.529 645.277 228.798 645.277C248.29 645.277 261.066 658.427 261.066 678.199V735.648C261.066 743.389 256.403 747.865 249.502 747.865C242.507 747.865 237.844 743.389 237.844 735.648V683.888C237.844 671.764 231.502 664.862 220.125 664.862C208.933 664.862 201.286 673.069 201.286 684.914V735.648C201.286 743.389 196.902 747.865 190.001 747.865C183.006 747.865 178.716 743.389 178.716 735.648V682.675C178.716 671.67 172.001 664.862 161.183 664.862C149.992 664.862 142.158 673.536 142.158 685.473V735.648C142.158 743.389 137.401 747.865 130.5 747.865ZM308.723 747.585C289.604 747.585 275.708 735.555 275.708 717.742C275.708 700.208 289.231 689.67 313.293 688.178L339.5 686.686V679.598C339.5 669.246 332.505 663.277 321.034 663.277C311.987 663.277 306.112 666.354 300.33 674.841C297.905 678.012 294.827 679.504 290.91 679.504C285.221 679.504 281.118 675.774 281.118 670.178C281.118 668.033 281.677 665.981 282.703 663.836C287.739 652.365 303.034 645.091 321.966 645.091C346.494 645.091 362.442 658.054 362.442 677.919V736.208C362.442 743.668 357.686 747.865 351.157 747.865C344.815 747.865 340.432 744.042 340.059 737.14V730.239H339.593C333.904 740.964 321.5 747.585 308.723 747.585ZM315.811 730.052C328.868 730.052 339.5 721.286 339.5 709.348V701.794L316.557 703.193C305.366 703.939 298.931 708.975 298.931 716.809C298.931 724.923 305.739 730.052 315.811 730.052ZM387.623 721.565V665.049H381.374C375.592 665.049 372.048 661.598 372.048 656.002C372.048 650.5 375.592 647.143 381.374 647.143H387.623V633.993C387.623 626.532 392.099 621.869 399.28 621.869C406.368 621.869 410.845 626.532 410.845 633.993V647.143H421.57C427.352 647.143 430.896 650.5 430.896 656.002C430.896 661.598 427.352 665.049 421.57 665.049H410.845V716.529C410.845 723.99 413.456 727.254 420.171 727.814L421.85 728C428.005 728.56 431.176 731.171 431.176 736.581C431.176 743.389 425.207 747.026 414.575 747.026H413.643C396.389 747.026 387.623 738.446 387.623 721.565ZM451.787 721.565V665.049H445.538C439.756 665.049 436.212 661.598 436.212 656.002C436.212 650.5 439.756 647.143 445.538 647.143H451.787V633.993C451.787 626.532 456.263 621.869 463.444 621.869C470.532 621.869 475.009 626.532 475.009 633.993V647.143H485.734C491.516 647.143 495.06 650.5 495.06 656.002C495.06 661.598 491.516 665.049 485.734 665.049H475.009V716.529C475.009 723.99 477.62 727.254 484.335 727.814L486.014 728C492.169 728.56 495.34 731.171 495.34 736.581C495.34 743.389 489.371 747.026 478.739 747.026H477.807C460.553 747.026 451.787 738.446 451.787 721.565ZM521.64 633.247C514.458 633.247 508.77 627.651 508.77 620.656C508.77 613.568 514.458 608.066 521.64 608.066C528.914 608.066 534.603 613.568 534.603 620.656C534.603 627.651 528.914 633.247 521.64 633.247ZM521.64 747.865C514.552 747.865 510.075 743.202 510.075 735.648V657.401C510.075 649.94 514.552 645.184 521.64 645.184C528.728 645.184 533.297 649.94 533.297 657.495V735.648C533.297 743.202 528.728 747.865 521.64 747.865ZM565.1 747.865C558.292 747.865 553.442 743.482 553.442 735.648V621.775C553.442 613.941 558.292 609.558 565.1 609.558C571.908 609.558 576.664 613.941 576.664 621.775V735.648C576.664 743.482 571.908 747.865 565.1 747.865ZM608.373 747.865C601.658 747.865 597.088 743.762 597.088 736.208V621.775C597.088 613.941 601.938 609.558 608.746 609.558C615.554 609.558 620.311 613.941 620.311 621.775V664.116H620.87C626.559 652.552 637.75 645.464 651.833 645.464C676.734 645.464 692.588 664.956 692.588 696.571C692.588 728.187 676.827 747.585 651.74 747.585C637.284 747.585 626.186 740.591 620.311 729.12H619.844V736.208C619.844 743.668 615.088 747.865 608.373 747.865ZM644.652 728.56C659.48 728.56 668.807 716.25 668.807 696.571C668.807 676.986 659.48 664.583 644.652 664.583C630.29 664.583 620.217 677.359 620.217 696.571C620.217 715.97 630.29 728.56 644.652 728.56ZM742.204 747.772C720.753 747.772 707.137 733.876 707.137 711.027V657.401C707.137 649.661 711.894 645.184 718.702 645.184C725.51 645.184 730.359 649.661 730.359 657.495V706.364C730.359 720.54 737.261 728.187 750.317 728.187C763.747 728.187 772.047 718.674 772.047 704.312V657.401C772.047 649.661 776.897 645.184 783.705 645.184C790.42 645.184 795.27 649.661 795.27 657.495V736.114C795.27 743.575 790.793 747.865 784.171 747.865C777.457 747.865 772.887 743.575 772.887 736.114V728.84H772.42C767.198 740.871 757.219 747.772 742.204 747.772ZM851.227 747.585C826.326 747.585 810.191 727.907 810.191 696.478C810.191 665.235 826.326 645.464 851.227 645.464C865.402 645.464 876.594 652.832 881.816 663.743H882.376V621.775C882.376 613.941 887.132 609.558 893.94 609.558C900.749 609.558 905.598 613.941 905.598 621.775V736.208C905.598 743.668 900.842 747.865 894.127 747.865C887.412 747.865 882.376 743.762 882.376 736.208V728.467H881.91C877.153 739.845 866.521 747.585 851.227 747.585ZM858.221 728.56C872.863 728.56 882.469 716.156 882.469 696.571C882.469 677.173 872.863 664.583 858.221 664.583C843.299 664.583 833.973 676.986 833.973 696.571C833.973 716.25 843.206 728.56 858.221 728.56Z" fill="#1D1D1B"/>
<rect x="112" y="231" width="60" height="354" rx="24" fill="#1D1D1B"/>
<rect x="652" y="231" width="40" height="354" rx="20" fill="#1D1D1B"/>
<rect x="492" y="231" width="40" height="354" rx="20" fill="#1D1D1B"/>
<rect x="832" y="231" width="20" height="354" rx="10" fill="#1D1D1B"/>
<rect x="452" y="231" width="20" height="354" rx="10" fill="#1D1D1B"/>
<rect x="872" y="231" width="40" height="354" rx="20" fill="#1D1D1B"/>
<rect x="232" y="231" width="20" height="354" rx="10" fill="#1D1D1B"/>
<rect x="352" y="231" width="80" height="354" rx="24" fill="#1D1D1B"/>
<rect x="552" y="231" width="80" height="354" rx="24" fill="#1D1D1B"/>
<rect x="732" y="231" width="80" height="354" rx="24" fill="#1D1D1B"/>
<rect x="272" y="231" width="40" height="354" rx="20" fill="#1D1D1B"/>
</svg>
