<svg width="842" height="596" viewBox="0 0 842 596" fill="none" xmlns="http://www.w3.org/2000/svg">
<path d="M822.438 151.202C811.778 146.903 800.488 149.705 795.972 151.202C792.761 152.273 787.145 155.564 781.326 158.973C774.031 163.25 754.341 173.356 749.733 175.405C744.939 177.537 731.734 183.374 729.901 184.07L726.862 185.22L727.108 181.982C727.911 171.326 729.016 156.736 734.755 137.394C736.094 132.874 737.883 127.385 739.952 121.034C744.671 106.567 750.542 88.577 754.098 72.574C754.155 72.367 758.279 55.258 758.763 44.721C759.028 38.884 757.617 30.25 753.107 25.484C751.125 23.391 748.583 21.902 745.628 22.043C736.854 22.471 733.209 17.282 729.404 12.383C726.747 8.969 723.246 4.753 718.32 3.313C713.602 1.934 710.026 1.59 704.748 1.59C700.237 1.59 695.533 2.11 690.767 3.14C682.438 4.942 674.213 13.99 671.759 21.32C669.606 27.752 662.83 53.146 660.095 84.414C658.799 99.246 657.517 108.452 656.28 117.351C655.509 122.866 654.717 128.571 653.924 135.571C653.149 142.416 652.4 147.918 651.677 153.239C650.444 162.265 648.911 178.498 647.677 188.123C646.194 199.673 641.245 227.721 641.245 227.721C641.245 227.721 638.567 229.271 637.868 229.681C635.876 230.853 634.678 231.566 630.766 233.477C622.529 237.512 620.903 253.538 622.119 267.194C623.264 280.012 624.604 288.704 632.484 292.554L633.793 293.193L633.635 294.642C633.431 296.413 633.15 298.624 632.828 301.179C632.145 306.545 631.304 313.227 630.595 320.487C629.502 331.738 628.781 339.174 623.679 358.251C620.63 370.833 623.141 380.305 625.348 383.291C628.225 387.185 631.775 389.669 637.608 391.858C641.51 393.325 647.705 394.378 655.338 393.764C671.544 392.46 680.931 386.907 684.108 376.788C686.213 365.708 688.143 354.771 689.843 344.277C691.552 333.643 693.323 322.772 695.138 311.65L695.75 307.931L698.556 310.442C727.427 336.234 746.907 351.418 767.09 357.735C773.468 359.153 779.178 359.872 784.049 359.872C789.208 359.872 793.548 359.065 796.947 357.48C803.59 354.356 807.842 350.216 809.933 344.811C811.981 339.511 813.176 329.9 811.537 323.604C809.833 317.045 806.313 307.702 795.529 302.28C786.974 297.975 777.865 295.104 771.213 293.003C767.681 291.888 764.888 291.007 762.892 290.166C755.109 286.88 744.519 275.52 744.008 269.907L743.91 268.903L744.65 268.207C744.852 268.023 764.931 249.257 771.089 243.825C776.211 239.301 784.744 232.967 791.591 227.879C795.264 225.152 798.432 222.799 800.476 221.179C803.718 218.492 806.805 215.985 809.7 213.633C829.669 197.401 839.685 189.251 839.685 174.115C839.685 163.039 829.98 154.247 822.438 151.202Z" fill="white"/>
<path d="M529.505 169.276C498.564 169.766 480.736 178.76 462.711 189.711C447.143 199.142 432.399 211.82 421.18 229.691C408.163 250.307 400.225 270.575 395.287 287.635C384.287 324.232 384.266 355.261 395.225 379.886C405.427 402.511 426.527 411.923 435.121 414.924C442.561 417.519 454.759 420.607 470.617 420.607C479.585 420.607 491.039 419.611 500.06 417.637C509.778 415.535 521.747 412.193 533.604 407.427C543.762 403.343 550.309 400.448 556.335 396.589C558.035 395.506 569.28 389.167 574.849 377.899C577.272 373.001 577.572 367.895 577.021 362.826C576.471 357.756 574.144 355.394 572.179 353.685C566.88 349.064 561.599 351.05 555.158 348.293C550.918 346.481 548.776 340.147 538.82 343.272C533.918 344.809 529.143 347.866 523.882 350.231C517.464 353.122 510.83 356.103 502.954 358.328C498.923 359.469 493.796 359.702 490.201 359.702C486.641 359.702 483.575 359.473 482.109 359.244C469.325 357.218 462.14 347.359 460.63 344.069L459.136 340.804L462.709 341.153C464.66 341.341 466.723 341.439 468.836 341.439C479.584 341.439 491.796 339.039 505.125 334.302C511.513 332.021 516.966 329.708 522.771 327.139C528.327 324.677 536.79 319.831 541.776 316.568C555.633 306.903 561.907 296.19 567.972 285.833L568.082 285.644C574.09 275.041 577.816 257.425 579.147 233.32C579.226 215.084 576.442 201.154 570.882 191.922C561.226 176.667 546.944 169.003 529.505 169.276ZM508.185 263.501C506.397 268.945 503.436 275.09 500.331 280.504C488.953 300.317 472.103 304.758 464.936 299.371C459.32 295.15 462.54 284.481 465.553 278.059C472.75 262.738 487.234 245.576 499.401 245.576C501.357 245.576 503.207 245.929 504.877 246.621C511.264 249.264 509.99 257.98 508.185 263.501Z" fill="white"/>
<path d="M183.052 525.333C181.576 522.906 176.957 516.994 169.642 512.699C165.883 510.493 159.414 509.052 154.321 509.144C149.013 509.242 137.796 511.699 129.428 521.267C117.428 534.993 117.627 555.96 129.89 570.043C141.617 583.911 159.523 591.752 183.132 593.364C186.883 593.58 190.306 593.685 193.572 593.685C214.118 593.685 229.357 589.193 246.171 578.188C267.285 563.824 289.173 528.068 306.204 480.113C323.19 432.27 337.683 355.639 349.286 252.346C350.59 242.196 347.678 239.398 346.115 237.897C344.687 236.531 341.75 234.998 337.392 233.346C331.084 230.95 329.036 227.152 326.864 223.131C326.058 221.633 325.225 220.083 324.107 218.496C322.407 216.064 318.235 214.73 312.363 214.73C309.015 214.73 305.182 215.156 300.975 216.003C294.072 217.351 285.98 222.289 279.32 229.21C269.929 238.962 265.889 254.711 262.708 275.362C261.317 284.427 258.894 302.88 256.094 324.254C252.779 349.54 249.02 378.198 245.559 402.171C238.681 449.78 223.223 492.034 216.622 510.073C215.608 512.844 214.809 515.028 214.298 516.531C209.532 530.56 204.366 537.38 198.508 537.38C194.2 537.38 190.821 534.526 188.357 532.381C185.673 530.047 184.583 527.845 183.052 525.333Z" fill="white"/>
<path d="M198.213 205.675C198.753 205.499 201.233 204.592 201.233 204.592C205.768 202.931 213.358 200.153 218.824 198.796C225.247 197.202 230.96 194.777 235.548 192.831L236.617 192.383C240.235 190.853 246.728 187.485 249.525 182.092C252.342 176.643 254.309 170.713 255.373 164.463C256.435 158.221 257.431 151.987 258.338 145.936C259.276 139.602 261.668 134.755 265.447 131.531C272.002 126.474 274.923 121.408 274.205 116.408C273.455 111.201 269.932 105.382 265.011 101.223C260.161 97.131 255.1 95.035 247.437 93.043C244.138 92.193 240.834 91.933 237.733 91.933C234.226 91.933 230.7 92.418 225.788 93.242C216.729 94.771 161.349 110.902 126.646 125.897C94.584 139.807 69.164 153.745 53.418 163.229C42.11 170.035 26.737 181.986 18.913 189.69C10.37 198.104 4.27304 209.442 2.40304 217.266C-0.138963 227.904 0.00903702 247.89 13.347 251.89C15.583 252.564 19.765 253.3 24.494 253.3C37.233 253.3 74.566 241.829 85.497 238.393L100.372 233.86L98.025 245.71C95.238 259.745 93.477 270.467 91.609 281.814C90.269 289.959 88.884 298.387 87.007 308.778C83.941 325.751 82.979 332.896 81.649 342.785C81.001 347.604 80.266 353.071 79.158 360.666C75.805 383.644 72.502 426.575 71.687 440.608C71.103 450.864 73.174 457.383 74.582 464.81C77 477.584 85.42 484.765 99.527 486.995C127.717 491.443 138.777 462.951 140.539 455.34C144.788 440.345 149.869 410.254 154.781 381.153C158.518 359.009 162.05 338.094 165.183 323.738C167.388 313.624 169.694 301.761 172.135 289.197C177.65 260.816 183.9 228.65 190.444 210.378C190.484 210.232 190.684 209.642 190.85 209.289C191.643 207.618 194.171 206.984 198.213 205.675Z" fill="white"/>
<path d="M293.614 160.916C294.491 169.84 302.654 177.061 316.573 179.787C318.441 180.175 320.485 180.369 322.687 180.369C334.493 180.369 348.483 174.937 357.637 169.855C369.724 163.146 376.953 151.441 376.984 138.543C377.133 126.068 372.737 110.875 359.954 105.566C356.835 104.267 353.166 103.602 349.024 103.602C337.316 103.606 324.651 108.738 316.696 113.535C304.01 120.851 291.632 141.635 293.614 160.916Z" fill="white"/>
</svg>
