<?xml version="1.0" encoding="utf-8"?>
<!-- Generator: Adobe Illustrator 16.0.3, SVG Export Plug-In . SVG Version: 6.00 Build 0)  -->
<!DOCTYPE svg PUBLIC "-//W3C//DTD SVG 1.1//EN" "http://www.w3.org/Graphics/SVG/1.1/DTD/svg11.dtd">
<svg version="1.1" id="Lag_3" xmlns="http://www.w3.org/2000/svg" xmlns:xlink="http://www.w3.org/1999/xlink" x="0px" y="0px"
	 width="674.445px" height="349.138px" viewBox="0 0 674.445 349.138" enable-background="new 0 0 674.445 349.138"
	 xml:space="preserve">
<g>
	<path d="M4.747,33.784h20.236v10.571h0.303c5.587-8.004,13.742-12.686,23.86-12.686c9.815,0,18.575,3.625,22.804,12.988
		c4.53-6.796,12.686-12.988,23.559-12.988c16.611,0,28.541,7.702,28.541,27.938v52.252h-21.443V67.611
		c0-10.42-0.906-19.028-13.139-19.028c-12.082,0-14.347,9.968-14.347,19.784v43.493H53.677V68.065
		c0-9.061,0.604-19.481-12.987-19.481c-4.229,0-14.497,2.719-14.497,17.971v45.305H4.747V33.784z"/>
	<path d="M139.369,57.795c1.207-20.085,19.179-26.126,36.696-26.126c15.555,0,34.28,3.474,34.28,22.2v40.623
		c0,7.098,0.756,14.196,2.719,17.367h-21.746c-0.755-2.417-1.359-4.983-1.51-7.551c-6.797,7.097-16.764,9.665-26.277,9.665
		c-14.8,0-26.579-7.4-26.579-23.408c0-17.669,13.29-21.897,26.579-23.709c13.139-1.963,25.371-1.51,25.371-10.27
		c0-9.212-6.343-10.571-13.895-10.571c-8.154,0-13.439,3.322-14.195,11.779L139.369,57.795L139.369,57.795z M188.901,73.652
		c-3.625,3.171-11.176,3.322-17.82,4.53c-6.645,1.359-12.686,3.625-12.686,11.477c0,8.004,6.191,9.967,13.139,9.967
		c16.763,0,17.367-13.29,17.367-17.971V73.652z"/>
	<path d="M253.447,33.784h15.706v14.347h-15.706v38.66c0,7.249,1.813,9.061,9.063,9.061c2.265,0,4.379-0.151,6.645-0.604v16.763
		c-3.625,0.604-8.307,0.755-12.535,0.755c-13.138,0-24.614-3.021-24.614-18.575v-46.06h-12.987V33.784h12.987V10.376h21.443
		L253.447,33.784L253.447,33.784z"/>
	<path d="M309.399,33.784h15.705v14.347h-15.705v38.66c0,7.249,1.813,9.061,9.062,9.061c2.266,0,4.381-0.151,6.645-0.604v16.763
		c-3.623,0.604-8.305,0.755-12.533,0.755c-13.139,0-24.615-3.021-24.615-18.575v-46.06H274.97V33.784h12.987V10.376H309.4
		L309.399,33.784L309.399,33.784z"/>
	<path d="M358.572,21.703h-21.445V4.034h21.445V21.703z M337.126,33.784h21.444v78.076h-21.444V33.784z"/>
	<path d="M375.183,4.034h21.445V111.86h-21.445V4.034z"/>
	<path d="M413,4.034h21.443v39.264h0.303c5.285-8.004,14.949-11.628,24.615-11.628c15.557,0,32.316,12.535,32.316,41.076
		c0,28.693-16.762,41.228-32.316,41.228c-11.479,0-20.992-3.474-25.674-12.082h-0.301v9.967H413V4.034z M451.962,47.828
		c-12.688,0-18.273,11.93-18.273,25.069c0,12.988,5.588,24.918,18.273,24.918c12.684,0,18.271-11.93,18.271-24.918
		C470.234,59.758,464.648,47.828,451.962,47.828z"/>
	<path d="M577.927,111.859h-20.387v-10.874h-0.455c-5.436,8.759-14.799,12.988-23.859,12.988c-22.803,0-28.543-12.836-28.543-32.167
		V33.783h21.445V77.88c0,12.836,3.773,19.179,13.74,19.179c11.631,0,16.613-6.494,16.613-22.35V33.783h21.443v78.076H577.927z"/>
	<path d="M649.873,101.892h-0.303c-4.982,8.457-13.742,12.082-23.709,12.082c-23.559,0-35.037-20.236-35.037-41.832
		c0-20.991,11.631-40.473,34.584-40.473c9.211,0,18.273,3.926,23.105,11.628h0.301V4.033h21.445v107.826h-20.389v-9.967H649.873z
		 M631.148,47.828c-14.047,0-18.879,12.082-18.879,24.917c0,12.233,5.588,25.069,18.879,25.069c14.193,0,18.424-12.384,18.424-25.22
		C649.572,59.91,645.041,47.828,631.148,47.828z"/>
</g>
<rect x="4.747" y="133.419" width="5.434" height="209.823"/>
<rect x="32.047" y="133.419" width="12.736" height="209.823"/>
<rect x="56.704" y="133.419" width="7.78" height="209.823"/>
<rect x="75.228" y="133.419" width="3.963" height="209.823"/>
<rect x="95.238" y="133.419" width="3.965" height="209.823"/>
<rect x="110.105" y="133.419" width="9.267" height="209.823"/>
<rect x="129.514" y="133.419" width="4.404" height="209.823"/>
<rect x="144.583" y="133.419" width="13.686" height="209.823"/>
<rect x="165.599" y="133.419" width="7.496" height="209.823"/>
<rect x="180.306" y="133.419" width="8.139" height="209.823"/>
<rect x="195.035" y="133.419" width="7.916" height="209.823"/>
<rect x="219.224" y="133.419" width="8.68" height="209.823"/>
<rect x="244.297" y="133.419" width="3.015" height="209.823"/>
<rect x="254.062" y="133.419" width="3.695" height="209.823"/>
<rect x="274.595" y="133.419" width="8.035" height="209.823"/>
<rect x="298.942" y="133.419" width="4.302" height="209.823"/>
<rect x="309.108" y="133.419" width="14.267" height="209.823"/>
<rect x="329.321" y="133.419" width="13.661" height="209.823"/>
<rect x="349.615" y="133.419" width="18.119" height="209.823"/>
<rect x="374.367" y="133.419" width="3.896" height="209.823"/>
<rect x="383.89" y="133.419" width="3.895" height="209.823"/>
<rect x="394.779" y="133.419" width="7.961" height="209.823"/>
<rect x="423.765" y="133.419" width="4.369" height="209.823"/>
<rect x="439.476" y="133.419" width="3.818" height="209.823"/>
<rect x="450.367" y="133.419" width="3.264" height="209.823"/>
<rect x="465.355" y="133.419" width="18.131" height="209.823"/>
<rect x="495.009" y="133.419" width="8.701" height="209.823"/>
<rect x="510.48" y="133.419" width="18.947" height="209.823"/>
<rect x="535.595" y="133.419" width="8.867" height="209.823"/>
<rect x="551.146" y="133.419" width="4.086" height="209.823"/>
<rect x="566.496" y="133.419" width="7.953" height="209.823"/>
<rect x="581.613" y="133.419" width="2.607" height="209.823"/>
<rect x="651.935" y="133.419" width="3.293" height="209.823"/>
<rect x="661.958" y="133.419" width="8.301" height="209.823"/>
<rect x="631.722" y="133.419" width="12.545" height="209.823"/>
<rect x="606.498" y="133.419" width="7.873" height="209.823"/>
<rect x="16.747" y="133.419" width="3.227" height="209.823"/>
</svg>
