<?xml version="1.0" encoding="utf-8"?>
<!-- Generator: Adobe Illustrator 16.0.3, SVG Export Plug-In . SVG Version: 6.00 Build 0)  -->
<!DOCTYPE svg PUBLIC "-//W3C//DTD SVG 1.1//EN" "http://www.w3.org/Graphics/SVG/1.1/DTD/svg11.dtd">
<svg version="1.1" id="Lag_1" xmlns="http://www.w3.org/2000/svg" xmlns:xlink="http://www.w3.org/1999/xlink" x="0px" y="0px"
	 width="300px" height="150px" viewBox="0 0 300 150" enable-background="new 0 0 300 150" xml:space="preserve">
<g>
	<path fill="#8AA31B" d="M116.054,59.18c0-7.795-6.378-14.173-14.173-14.173H67.075c-7.795,0-14.172,6.378-14.172,14.173v34.806
		c0,7.796,6.377,14.173,14.172,14.173h34.807c7.795,0,14.173-6.377,14.173-14.173L116.054,59.18L116.054,59.18z"/>
</g>
<polygon fill="#D0DAA3" points="94.164,64.932 94.164,53.713 66.85,60.984 "/>
<g>
	<path fill="#1A1A18" d="M132.267,78.625h6.396v-0.07c0-0.701-0.129-1.324-0.385-1.869c-0.258-0.545-0.627-0.977-1.11-1.294
		c-0.481-0.318-1.058-0.479-1.727-0.479s-1.242,0.16-1.716,0.479c-0.476,0.318-0.838,0.75-1.086,1.294
		c-0.25,0.545-0.373,1.168-0.373,1.869L132.267,78.625L132.267,78.625z M135.464,85.816c-1.619,0-2.902-0.494-3.853-1.484
		c-0.949-0.988-1.47-2.338-1.563-4.051c-0.017-0.201-0.022-0.463-0.022-0.781s0.006-0.58,0.022-0.781
		c0.062-1.104,0.319-2.074,0.771-2.908c0.452-0.832,1.069-1.475,1.856-1.926c0.785-0.451,1.707-0.678,2.767-0.678
		c1.182,0,2.175,0.248,2.977,0.748c0.802,0.498,1.412,1.205,1.833,2.125c0.42,0.918,0.631,1.99,0.631,3.223v0.396
		c0,0.172-0.052,0.305-0.152,0.397c-0.1,0.094-0.229,0.139-0.385,0.139h-8.078v0.095v0.116c0.031,0.64,0.17,1.234,0.418,1.787
		c0.25,0.554,0.613,1,1.088,1.343c0.474,0.342,1.031,0.514,1.669,0.514c0.56,0,1.026-0.086,1.401-0.258
		c0.373-0.17,0.676-0.358,0.909-0.57c0.234-0.211,0.39-0.379,0.468-0.502c0.141-0.188,0.248-0.301,0.328-0.34
		c0.076-0.037,0.2-0.06,0.371-0.06h1.145c0.141,0,0.261,0.046,0.363,0.13c0.101,0.086,0.143,0.206,0.127,0.362
		c-0.016,0.232-0.14,0.517-0.373,0.851c-0.232,0.336-0.564,0.666-0.992,0.993c-0.428,0.326-0.957,0.595-1.588,0.806
		S136.259,85.816,135.464,85.816"/>
	<path fill="#1A1A18" d="M145.644,85.582c-0.154,0-0.283-0.051-0.385-0.152c-0.102-0.1-0.152-0.229-0.152-0.385V71.316h-4.482
		c-0.156,0-0.284-0.051-0.385-0.15c-0.103-0.104-0.152-0.232-0.152-0.387v-0.98c0-0.172,0.05-0.309,0.152-0.408
		c0.101-0.102,0.229-0.152,0.385-0.152h11.254c0.171,0,0.309,0.051,0.408,0.152c0.102,0.1,0.152,0.236,0.152,0.408v0.98
		c0,0.154-0.051,0.283-0.152,0.387c-0.102,0.1-0.237,0.15-0.408,0.15h-4.459v13.729c0,0.156-0.051,0.285-0.152,0.385
		c-0.102,0.103-0.238,0.152-0.408,0.152H145.644z"/>
	<path fill="#1A1A18" d="M155.025,85.582c-0.156,0-0.285-0.051-0.385-0.152c-0.103-0.1-0.152-0.229-0.152-0.385V73.977
		c0-0.154,0.051-0.283,0.152-0.383c0.1-0.104,0.229-0.154,0.385-0.154h1.121c0.153,0,0.283,0.051,0.385,0.154
		c0.1,0.1,0.152,0.229,0.152,0.383v11.068c0,0.156-0.054,0.285-0.152,0.385c-0.102,0.103-0.23,0.152-0.385,0.152H155.025z
		 M154.838,71.176c-0.156,0-0.285-0.049-0.385-0.152c-0.102-0.1-0.152-0.229-0.152-0.385v-1.26c0-0.156,0.051-0.289,0.152-0.398
		c0.1-0.107,0.229-0.164,0.385-0.164h1.471c0.156,0,0.287,0.057,0.396,0.164c0.109,0.109,0.162,0.242,0.162,0.398v1.26
		c0,0.156-0.053,0.285-0.162,0.385c-0.109,0.104-0.24,0.152-0.396,0.152H154.838z"/>
	<path fill="#1A1A18" d="M160.096,85.582c-0.156,0-0.285-0.051-0.385-0.152c-0.104-0.1-0.152-0.229-0.152-0.385V69.541
		c0-0.154,0.049-0.283,0.152-0.385c0.1-0.102,0.229-0.152,0.385-0.152h1.098c0.17,0,0.304,0.051,0.396,0.152
		c0.094,0.101,0.141,0.229,0.141,0.385v15.504c0,0.156-0.047,0.285-0.141,0.385c-0.094,0.103-0.227,0.152-0.396,0.152H160.096z"/>
	<path fill="#1A1A18" d="M170.117,83.926c0.809,0,1.441-0.178,1.902-0.527c0.457-0.35,0.789-0.809,0.989-1.377
		c0.203-0.567,0.32-1.178,0.354-1.832c0.014-0.453,0.014-0.903,0-1.354c-0.033-0.651-0.15-1.265-0.354-1.832
		c-0.2-0.567-0.532-1.026-0.989-1.379c-0.461-0.35-1.095-0.525-1.902-0.525c-0.732,0-1.34,0.172-1.822,0.514
		c-0.482,0.344-0.844,0.779-1.086,1.309c-0.242,0.53-0.369,1.066-0.385,1.611c-0.018,0.25-0.023,0.547-0.023,0.898
		c0,0.35,0.006,0.649,0.023,0.897c0.029,0.576,0.158,1.141,0.385,1.692c0.225,0.554,0.576,1.009,1.051,1.367
		C168.734,83.746,169.354,83.926,170.117,83.926 M170.605,85.816c-0.935,0-1.711-0.168-2.334-0.504
		c-0.623-0.334-1.119-0.75-1.494-1.248v0.979c0,0.156-0.051,0.283-0.152,0.388c-0.102,0.1-0.23,0.149-0.385,0.149h-1.074
		c-0.156,0-0.283-0.051-0.385-0.149c-0.102-0.104-0.152-0.23-0.152-0.388V69.541c0-0.154,0.051-0.283,0.152-0.385
		c0.102-0.1,0.229-0.152,0.385-0.152h1.145c0.154,0,0.279,0.053,0.373,0.152c0.094,0.102,0.142,0.229,0.142,0.385v5.371
		c0.389-0.482,0.891-0.889,1.506-1.215c0.614-0.326,1.373-0.49,2.274-0.49c0.871,0,1.615,0.152,2.23,0.455
		c0.615,0.305,1.121,0.721,1.518,1.25c0.397,0.529,0.697,1.129,0.898,1.797c0.203,0.672,0.32,1.371,0.352,2.102
		c0.017,0.25,0.023,0.482,0.023,0.701s-0.008,0.451-0.023,0.701c-0.03,0.746-0.147,1.453-0.352,2.123
		c-0.201,0.67-0.502,1.266-0.898,1.787c-0.396,0.521-0.901,0.934-1.518,1.236C172.221,85.664,171.477,85.816,170.605,85.816"/>
	<path fill="#1A1A18" d="M182.477,85.816c-0.996,0-1.84-0.224-2.533-0.666c-0.692-0.443-1.219-1.063-1.575-1.857
		c-0.356-0.793-0.537-1.703-0.537-2.73v-6.585c0-0.154,0.051-0.283,0.151-0.383c0.101-0.102,0.229-0.154,0.386-0.154h1.168
		c0.153,0,0.282,0.053,0.385,0.154c0.103,0.1,0.149,0.229,0.149,0.383v6.468c0,2.32,1.015,3.48,3.037,3.48
		c0.965,0,1.738-0.309,2.322-0.924c0.584-0.613,0.875-1.467,0.875-2.557v-6.469c0-0.154,0.053-0.283,0.152-0.383
		c0.102-0.102,0.23-0.154,0.385-0.154h1.168c0.156,0,0.279,0.053,0.375,0.154c0.092,0.1,0.139,0.229,0.139,0.383v11.068
		c0,0.156-0.047,0.283-0.139,0.388c-0.096,0.1-0.219,0.149-0.375,0.149h-1.098c-0.154,0-0.283-0.051-0.385-0.149
		c-0.103-0.104-0.152-0.23-0.152-0.388v-1.026c-0.42,0.545-0.93,0.979-1.529,1.309C184.248,85.652,183.457,85.816,182.477,85.816"/>
	<path fill="#1A1A18" d="M196.367,83.926c0.777,0,1.4-0.18,1.867-0.537c0.469-0.358,0.817-0.813,1.053-1.367
		c0.232-0.553,0.357-1.116,0.373-1.692c0.014-0.248,0.023-0.549,0.023-0.897c0-0.353-0.011-0.648-0.023-0.898
		c-0.016-0.545-0.145-1.082-0.385-1.611c-0.242-0.529-0.601-0.965-1.076-1.309c-0.475-0.342-1.084-0.514-1.832-0.514
		c-0.793,0-1.424,0.176-1.891,0.525c-0.47,0.353-0.804,0.812-1.006,1.379c-0.201,0.567-0.318,1.181-0.351,1.832
		c-0.015,0.451-0.015,0.901,0,1.354c0.03,0.654,0.147,1.265,0.351,1.832c0.202,0.568,0.536,1.027,1.006,1.377
		C194.943,83.748,195.574,83.926,196.367,83.926 M195.877,85.816c-0.855,0-1.596-0.152-2.219-0.457
		c-0.621-0.303-1.131-0.715-1.527-1.236s-0.695-1.117-0.889-1.787c-0.194-0.67-0.307-1.377-0.338-2.123
		c-0.016-0.25-0.023-0.482-0.023-0.701s0.008-0.451,0.023-0.701c0.031-0.729,0.145-1.43,0.338-2.102
		c0.193-0.668,0.492-1.268,0.889-1.797c0.396-0.529,0.906-0.945,1.527-1.25c0.623-0.303,1.363-0.455,2.219-0.455
		c0.918,0,1.68,0.164,2.289,0.49c0.607,0.326,1.104,0.732,1.494,1.215v-5.371c0-0.154,0.051-0.283,0.15-0.385
		c0.102-0.1,0.229-0.152,0.387-0.152h1.121c0.154,0,0.283,0.053,0.385,0.152c0.1,0.102,0.15,0.229,0.15,0.385v15.504
		c0,0.156-0.052,0.283-0.15,0.387c-0.102,0.101-0.23,0.15-0.385,0.15h-1.053c-0.17,0-0.304-0.051-0.396-0.15
		c-0.092-0.104-0.141-0.229-0.141-0.387v-0.98c-0.39,0.498-0.896,0.914-1.517,1.248C197.588,85.648,196.811,85.816,195.877,85.816"
		/>
	<path fill="#1A1A18" d="M208.939,85.816c-0.871,0-1.617-0.109-2.24-0.328c-0.623-0.217-1.129-0.48-1.518-0.793
		c-0.392-0.312-0.683-0.623-0.875-0.935c-0.195-0.313-0.302-0.561-0.316-0.747c-0.016-0.171,0.039-0.306,0.164-0.396
		c0.125-0.094,0.248-0.141,0.373-0.141h1.051c0.078,0,0.145,0.012,0.199,0.034c0.054,0.023,0.129,0.091,0.221,0.197
		c0.203,0.219,0.428,0.438,0.678,0.653c0.248,0.22,0.555,0.398,0.922,0.537c0.365,0.142,0.82,0.211,1.365,0.211
		c0.795,0,1.449-0.151,1.963-0.454c0.512-0.306,0.771-0.753,0.771-1.343c0-0.389-0.107-0.701-0.316-0.934
		c-0.211-0.234-0.584-0.445-1.121-0.631c-0.537-0.188-1.271-0.383-2.207-0.584c-0.934-0.219-1.674-0.486-2.219-0.807
		c-0.545-0.318-0.932-0.699-1.166-1.144s-0.35-0.946-0.35-1.508c0-0.574,0.17-1.133,0.512-1.67c0.344-0.537,0.846-0.975,1.506-1.318
		c0.664-0.342,1.492-0.514,2.488-0.514c0.809,0,1.502,0.102,2.078,0.305c0.574,0.201,1.051,0.455,1.424,0.758
		c0.373,0.305,0.652,0.604,0.84,0.898c0.188,0.297,0.289,0.547,0.303,0.748c0.016,0.155-0.029,0.285-0.139,0.385
		c-0.109,0.103-0.234,0.152-0.375,0.152h-0.98c-0.106,0-0.197-0.023-0.268-0.07c-0.071-0.047-0.137-0.103-0.197-0.162
		c-0.158-0.202-0.34-0.405-0.551-0.608c-0.209-0.201-0.482-0.369-0.816-0.5c-0.334-0.133-0.772-0.199-1.317-0.199
		c-0.779,0-1.363,0.162-1.75,0.49c-0.392,0.327-0.584,0.739-0.584,1.239c0,0.295,0.084,0.559,0.256,0.793
		c0.17,0.231,0.498,0.442,0.979,0.629c0.482,0.188,1.197,0.391,2.148,0.606c1.027,0.203,1.836,0.478,2.428,0.817
		c0.592,0.342,1.01,0.738,1.26,1.191c0.248,0.451,0.375,0.973,0.375,1.563c0,0.653-0.188,1.254-0.561,1.799
		c-0.375,0.545-0.934,0.978-1.68,1.295C210.949,85.656,210.029,85.816,208.939,85.816"/>
	<path fill="#1A1A18" d="M220.303,84.064c0.635,0,1.219-0.138,1.75-0.408c0.529-0.271,0.945-0.697,1.248-1.273
		c0.305-0.576,0.457-1.299,0.457-2.17v-0.654l-2.709,0.396c-1.107,0.156-1.938,0.416-2.498,0.781c-0.561,0.367-0.84,0.83-0.84,1.391
		c0,0.436,0.127,0.799,0.385,1.084c0.256,0.289,0.584,0.504,0.98,0.643C219.473,83.994,219.881,84.064,220.303,84.064
		 M219.813,85.816c-0.778,0-1.487-0.156-2.127-0.467c-0.639-0.313-1.149-0.732-1.541-1.263c-0.389-0.528-0.582-1.129-0.582-1.799
		c0-1.072,0.437-1.929,1.308-2.565c0.871-0.639,2.008-1.062,3.407-1.263l3.48-0.49v-0.678c0-0.748-0.215-1.332-0.641-1.75
		c-0.43-0.422-1.127-0.631-2.092-0.631c-0.685,0-1.244,0.141-1.68,0.42c-0.438,0.278-0.74,0.639-0.914,1.073
		c-0.093,0.234-0.254,0.353-0.488,0.353h-1.051c-0.172,0-0.302-0.053-0.386-0.153c-0.086-0.101-0.129-0.222-0.129-0.361
		c0-0.232,0.09-0.52,0.269-0.863c0.18-0.344,0.455-0.678,0.83-1.004c0.373-0.326,0.854-0.604,1.436-0.828
		c0.584-0.227,1.297-0.34,2.137-0.34c0.934,0,1.721,0.121,2.359,0.361c0.637,0.242,1.141,0.566,1.506,0.971
		c0.363,0.404,0.629,0.863,0.793,1.377c0.164,0.514,0.246,1.035,0.246,1.564v7.563c0,0.156-0.053,0.283-0.152,0.388
		c-0.102,0.1-0.232,0.149-0.387,0.149h-1.074c-0.17,0-0.303-0.051-0.396-0.149c-0.094-0.104-0.139-0.23-0.139-0.388V84.04
		c-0.203,0.278-0.477,0.56-0.818,0.828c-0.342,0.272-0.771,0.498-1.282,0.678C221.189,85.727,220.559,85.816,219.813,85.816"/>
	<path fill="#1A1A18" d="M232.691,85.582c-0.234,0-0.418-0.055-0.549-0.162c-0.136-0.109-0.238-0.25-0.316-0.422l-4.318-10.834
		c-0.033-0.076-0.049-0.154-0.049-0.234c0-0.139,0.049-0.256,0.143-0.35c0.094-0.094,0.209-0.141,0.349-0.141h1.123
		c0.17,0,0.303,0.047,0.396,0.141c0.092,0.094,0.154,0.18,0.188,0.258l3.547,9.199l3.551-9.199c0.031-0.078,0.088-0.164,0.177-0.258
		c0.084-0.094,0.213-0.141,0.385-0.141h1.143c0.125,0,0.238,0.047,0.34,0.141c0.102,0.094,0.152,0.211,0.152,0.35
		c0,0.08-0.016,0.158-0.047,0.234l-4.346,10.834c-0.062,0.172-0.158,0.313-0.291,0.422c-0.134,0.107-0.32,0.162-0.57,0.162H232.691z
		"/>
	<path fill="#1A1A18" d="M241.41,85.582c-0.154,0-0.283-0.051-0.385-0.152c-0.103-0.1-0.152-0.229-0.152-0.385V73.977
		c0-0.154,0.051-0.283,0.152-0.383c0.102-0.104,0.229-0.154,0.385-0.154h1.121c0.156,0,0.283,0.051,0.385,0.154
		c0.102,0.1,0.152,0.229,0.152,0.383v11.068c0,0.156-0.051,0.285-0.152,0.385c-0.102,0.103-0.229,0.152-0.385,0.152H241.41z
		 M241.223,71.176c-0.154,0-0.283-0.049-0.385-0.152c-0.102-0.1-0.15-0.229-0.15-0.385v-1.26c0-0.156,0.049-0.289,0.15-0.398
		c0.102-0.107,0.23-0.164,0.385-0.164h1.471c0.158,0,0.289,0.057,0.4,0.164c0.105,0.109,0.162,0.242,0.162,0.398v1.26
		c0,0.156-0.057,0.285-0.162,0.385c-0.111,0.104-0.242,0.152-0.4,0.152H241.223z"/>
	<path fill="#1A1A18" d="M250.102,85.816c-0.871,0-1.619-0.109-2.242-0.328c-0.621-0.217-1.127-0.48-1.518-0.793
		c-0.389-0.312-0.68-0.623-0.875-0.935c-0.193-0.313-0.299-0.561-0.314-0.747c-0.018-0.171,0.039-0.306,0.164-0.396
		c0.123-0.094,0.248-0.141,0.373-0.141h1.049c0.078,0,0.144,0.012,0.199,0.034c0.056,0.023,0.129,0.091,0.224,0.197
		c0.2,0.219,0.426,0.438,0.678,0.653c0.248,0.22,0.558,0.398,0.92,0.537c0.365,0.142,0.822,0.211,1.367,0.211
		c0.793,0,1.447-0.151,1.961-0.454c0.517-0.306,0.771-0.753,0.771-1.343c0-0.389-0.104-0.701-0.314-0.934
		c-0.209-0.234-0.584-0.445-1.119-0.631c-0.539-0.188-1.273-0.383-2.207-0.584c-0.936-0.219-1.674-0.486-2.219-0.807
		c-0.545-0.318-0.936-0.699-1.168-1.144s-0.35-0.946-0.35-1.508c0-0.574,0.17-1.133,0.514-1.67c0.342-0.537,0.844-0.975,1.506-1.318
		c0.66-0.342,1.49-0.514,2.488-0.514c0.809,0,1.5,0.102,2.076,0.305c0.578,0.201,1.051,0.455,1.426,0.758
		c0.373,0.305,0.652,0.604,0.838,0.898c0.188,0.297,0.291,0.547,0.307,0.748c0.014,0.155-0.031,0.285-0.143,0.385
		c-0.109,0.103-0.232,0.152-0.373,0.152h-0.98c-0.108,0-0.197-0.023-0.27-0.07c-0.068-0.047-0.135-0.103-0.199-0.162
		c-0.154-0.202-0.336-0.405-0.547-0.608c-0.209-0.201-0.482-0.369-0.818-0.5c-0.336-0.133-0.771-0.199-1.315-0.199
		c-0.781,0-1.365,0.162-1.753,0.49c-0.391,0.327-0.584,0.739-0.584,1.239c0,0.295,0.084,0.559,0.257,0.793
		c0.17,0.231,0.498,0.442,0.979,0.629c0.482,0.188,1.199,0.391,2.15,0.606c1.025,0.203,1.834,0.478,2.428,0.817
		c0.592,0.343,1.01,0.738,1.26,1.191c0.25,0.451,0.373,0.973,0.373,1.563c0,0.653-0.188,1.254-0.559,1.799
		c-0.375,0.545-0.936,0.978-1.684,1.295C252.111,85.656,251.191,85.816,250.102,85.816"/>
</g>
<path fill-rule="evenodd" clip-rule="evenodd" fill="#FFFFFF" d="M87.379,72.025c1.52,0,2.75,1.232,2.75,2.752l0,0
	c0,0.148-0.059,0.293-0.164,0.398s-0.248,0.164-0.398,0.164c-2.168,0-7.959,0-10.127,0c-0.148,0-0.293-0.059-0.398-0.164
	s-0.164-0.25-0.164-0.398l0,0c0-1.52,1.23-2.752,2.75-2.752H87.379z M95.461,81.445c0.184,0,0.355,0.084,0.467,0.227
	c0.111,0.145,0.152,0.33,0.107,0.508c-0.813,3.09-3.625,5.371-6.969,5.371H79.94c-3.975,0-7.197-3.223-7.197-7.199v-5.575
	c0-3.977,3.223-7.199,7.197-7.199h9.127c3.975,0,7.199,3.223,7.199,7.199v3.858c0,0.637-0.518,1.154-1.154,1.154H79.44
	c-0.148,0-0.293,0.059-0.398,0.164s-0.164,0.248-0.164,0.398l0,0c0,1.52,1.23,2.75,2.75,2.75h5.752c0.992,0,1.861-0.523,2.346-1.313
	c0.127-0.211,0.355-0.338,0.604-0.338C91.385,81.445,94.145,81.445,95.461,81.445z M96.241,60.965H66.836v27.316
	c0,3.248,2.633,5.883,5.881,5.883h23.523c3.248,0,5.881-2.635,5.881-5.883V66.845C102.122,63.598,99.489,60.965,96.241,60.965z"/>
</svg>
