<?xml version="1.0" encoding="utf-8"?>
<!-- Generator: Adobe Illustrator 16.0.3, SVG Export Plug-In . SVG Version: 6.00 Build 0)  -->
<!DOCTYPE svg PUBLIC "-//W3C//DTD SVG 1.1//EN" "http://www.w3.org/Graphics/SVG/1.1/DTD/svg11.dtd">
<svg version="1.1" id="Lag_1" xmlns="http://www.w3.org/2000/svg" xmlns:xlink="http://www.w3.org/1999/xlink" x="0px" y="0px"
	 width="150px" height="150px" viewBox="0 0 150 150" enable-background="new 0 0 150 150" xml:space="preserve">
<g>
	<path fill="#8AA31B" d="M106.576,55.895c0-7.795-6.379-14.173-14.174-14.173H57.597c-7.795,0-14.173,6.378-14.173,14.173v34.808
		c0,7.795,6.378,14.172,14.173,14.172h34.805c7.796,0,14.175-6.377,14.175-14.172L106.576,55.895L106.576,55.895z"/>
</g>
<polygon fill="#D0DAA3" points="84.686,61.647 84.686,50.429 57.372,57.7 "/>
<path fill-rule="evenodd" clip-rule="evenodd" fill="#FFFFFF" d="M77.898,68.742c1.52,0,2.75,1.232,2.75,2.752l0,0
	c0,0.148-0.059,0.293-0.164,0.398s-0.248,0.164-0.398,0.164c-2.168,0-7.959,0-10.127,0c-0.148,0-0.293-0.059-0.398-0.164
	s-0.164-0.25-0.164-0.398l0,0c0-1.52,1.23-2.752,2.75-2.752H77.898z M85.98,78.162c0.184,0,0.355,0.084,0.467,0.227
	c0.111,0.145,0.152,0.33,0.107,0.508c-0.813,3.09-3.625,5.371-6.969,5.371h-9.127c-3.975,0-7.197-3.223-7.197-7.199v-5.574
	c0-3.977,3.223-7.199,7.197-7.199h9.127c3.975,0,7.199,3.223,7.199,7.199v3.857c0,0.637-0.518,1.154-1.154,1.154H69.958
	c-0.148,0-0.293,0.059-0.398,0.164s-0.164,0.248-0.164,0.398l0,0c0,1.52,1.23,2.75,2.75,2.75h5.752c0.992,0,1.861-0.523,2.346-1.313
	c0.127-0.211,0.355-0.338,0.604-0.338C81.904,78.162,84.664,78.162,85.98,78.162z M86.76,57.683H57.355v27.315
	c0,3.248,2.633,5.883,5.881,5.883H86.76c3.248,0,5.881-2.635,5.881-5.883V63.563C92.641,60.315,90.008,57.683,86.76,57.683z"/>
</svg>
