<?xml version="1.0" encoding="utf-8"?>
<!-- Generator: Adobe Illustrator 16.0.3, SVG Export Plug-In . SVG Version: 6.00 Build 0)  -->
<!DOCTYPE svg PUBLIC "-//W3C//DTD SVG 1.1//EN" "http://www.w3.org/Graphics/SVG/1.1/DTD/svg11.dtd">
<svg version="1.1" id="Lag_1" xmlns="http://www.w3.org/2000/svg" xmlns:xlink="http://www.w3.org/1999/xlink" x="0px" y="0px"
	 width="105px" height="120px" viewBox="0 0 105 120" enable-background="new 0 0 105 120" xml:space="preserve">
<polygon opacity="0.5" fill="#FFFFFF" points="81.314,33.281 81.314,0 0.043,21.571 "/>
<path fill="#FFFFFF" d="M61.127,54.323c4.531,0,8.186,3.657,8.186,8.164l0,0c0,0.438-0.17,0.87-0.484,1.181
	c-0.311,0.31-0.746,0.486-1.188,0.486c-6.447,0-23.686,0-30.136,0c-0.44,0-0.872-0.177-1.184-0.486
	c-0.313-0.313-0.492-0.742-0.492-1.181l0,0c0-4.507,3.659-8.164,8.184-8.164H61.127z M85.18,82.268c0.551,0,1.063,0.249,1.395,0.675
	c0.328,0.43,0.445,0.977,0.314,1.508c-2.42,9.165-10.789,15.932-20.738,15.932H38.991c-11.833,0-21.415-9.563-21.415-21.355V62.49
	c0-11.8,9.588-21.357,21.415-21.357H66.15c11.826,0,21.422,9.558,21.422,21.357v11.443c0,1.884-1.541,3.421-3.434,3.421H37.505
	c-0.44,0-0.872,0.175-1.184,0.486c-0.313,0.313-0.492,0.738-0.492,1.18l0,0c0,4.509,3.659,8.158,8.184,8.158h17.124
	c2.945,0,5.533-1.549,6.98-3.894c0.379-0.625,1.057-1.002,1.795-1.002C73.053,82.268,81.26,82.268,85.18,82.268z M87.508,21.519H0
	v81.027C0,112.182,7.834,120,17.498,120h70c9.666,0,17.502-7.818,17.502-17.454V38.96C105.002,29.323,97.166,21.519,87.508,21.519z"
	/>
</svg>
