<?xml version="1.0" encoding="utf-8"?>
<!-- Generator: Adobe Illustrator 16.0.3, SVG Export Plug-In . SVG Version: 6.00 Build 0)  -->
<!DOCTYPE svg PUBLIC "-//W3C//DTD SVG 1.1//EN" "http://www.w3.org/Graphics/SVG/1.1/DTD/svg11.dtd">
<svg version="1.1" id="Lag_1" xmlns="http://www.w3.org/2000/svg" xmlns:xlink="http://www.w3.org/1999/xlink" x="0px" y="0px"
	 width="105px" height="120px" viewBox="0 0 105 120" enable-background="new 0 0 105 120" xml:space="preserve">
<polygon fill="#D0DAA3" points="81.165,0 -0.185,21.575 81.165,51.68 "/>
<g>
	<path fill="#8AA31B" d="M104.813,39.011c0-9.631-7.835-17.436-17.499-17.436H-0.187v80.99c0,9.628,7.834,17.436,17.498,17.436
		h70.003c9.666,0,17.499-7.808,17.499-17.436V39.011z"/>
</g>
<g>
	<path fill="#FFFFFF" d="M65.93,41.109H38.703c-11.859,0-21.472,9.58-21.472,21.399v16.57c0,11.814,9.612,21.396,21.472,21.396
		H65.93c9.975,0,18.363-6.78,20.785-15.966c0.134-0.524,0.017-1.078-0.32-1.503c-0.33-0.429-0.846-0.679-1.388-0.679
		c-3.931,0-12.16,0-15.313,0.019c-0.738,0-1.42,0.38-1.799,1.009c-1.446,2.343-4.04,3.897-6.998,3.897H43.731
		c-4.534,0-8.204-3.658-8.204-8.173c0,0,0,0,0-0.003c0-0.443,0.175-0.866,0.491-1.182c0.315-0.314,0.747-0.49,1.188-0.49h46.755
		c1.899,0,3.44-1.534,3.44-3.429V62.508C87.403,50.689,77.784,41.109,65.93,41.109z M68.608,63.689
		c-0.315,0.313-0.739,0.492-1.188,0.492c-6.466,0-23.745,0-30.214,0c-0.441,0-0.873-0.179-1.188-0.492
		c-0.314-0.312-0.491-0.74-0.491-1.184c0-4.516,3.669-8.175,8.204-8.175h17.164c4.534,0,8.207,3.659,8.207,8.175
		C69.102,62.949,68.924,63.377,68.608,63.689z"/>
</g>
</svg>
