<?xml version="1.0" encoding="utf-8"?>
<!-- Generator: Adobe Illustrator 16.0.3, SVG Export Plug-In . SVG Version: 6.00 Build 0)  -->
<!DOCTYPE svg PUBLIC "-//W3C//DTD SVG 1.1//EN" "http://www.w3.org/Graphics/SVG/1.1/DTD/svg11.dtd">
<svg version="1.1" id="Lag_1" xmlns="http://www.w3.org/2000/svg" xmlns:xlink="http://www.w3.org/1999/xlink" x="0px" y="0px"
	 width="150px" height="150px" viewBox="0 0 150 150" enable-background="new 0 0 150 150" xml:space="preserve">
<g>
	<path fill="#8AA31B" d="M106.576,41.894c0-7.795-6.379-14.173-14.174-14.173H57.597c-7.795,0-14.173,6.378-14.173,14.173v34.807
		c0,7.795,6.378,14.172,14.173,14.172h34.805c7.796,0,14.175-6.377,14.175-14.172L106.576,41.894L106.576,41.894z"/>
</g>
<polygon fill="#D0DAA3" points="84.686,47.646 84.686,36.428 57.372,43.699 "/>
<g>
	<path fill="#FFFFFF" d="M14.705,114.652h6.397v-0.07c0-0.701-0.129-1.324-0.385-1.869c-0.257-0.545-0.627-0.977-1.11-1.295
		c-0.482-0.318-1.058-0.479-1.727-0.479s-1.242,0.16-1.716,0.479c-0.475,0.318-0.837,0.75-1.086,1.295s-0.373,1.168-0.373,1.869
		V114.652z M17.903,121.844c-1.619,0-2.903-0.494-3.853-1.484c-0.949-0.987-1.47-2.338-1.564-4.051
		c-0.016-0.201-0.022-0.463-0.022-0.781c0-0.317,0.006-0.579,0.022-0.78c0.062-1.104,0.32-2.074,0.771-2.908
		c0.452-0.832,1.069-1.473,1.856-1.926c0.786-0.451,1.708-0.679,2.767-0.679c1.182,0,2.175,0.248,2.977,0.748
		c0.801,0.498,1.412,1.205,1.833,2.125c0.42,0.918,0.631,1.99,0.631,3.224v0.396c0,0.172-0.052,0.305-0.152,0.397
		c-0.101,0.094-0.23,0.14-0.385,0.14h-8.079v0.094v0.117c0.031,0.639,0.171,1.233,0.419,1.786c0.249,0.554,0.612,1,1.087,1.343
		c0.474,0.342,1.031,0.514,1.669,0.514c0.56,0,1.027-0.086,1.401-0.258c0.373-0.17,0.677-0.359,0.91-0.57
		c0.234-0.211,0.39-0.379,0.467-0.502c0.141-0.188,0.249-0.301,0.328-0.34c0.077-0.037,0.201-0.059,0.372-0.059h1.145
		c0.14,0,0.26,0.045,0.362,0.129c0.101,0.086,0.143,0.207,0.128,0.362c-0.016,0.231-0.14,0.517-0.374,0.851
		c-0.232,0.336-0.564,0.666-0.991,0.994c-0.429,0.325-0.958,0.594-1.589,0.805C19.409,121.738,18.698,121.844,17.903,121.844"/>
	<path fill="#FFFFFF" d="M28.083,121.609c-0.155,0-0.284-0.051-0.385-0.152c-0.102-0.1-0.152-0.229-0.152-0.385v-13.729h-4.483
		c-0.156,0-0.284-0.051-0.385-0.149c-0.102-0.104-0.152-0.232-0.152-0.387v-0.98c0-0.172,0.05-0.307,0.152-0.408
		c0.101-0.102,0.229-0.152,0.385-0.152h11.254c0.171,0,0.308,0.051,0.409,0.152s0.152,0.236,0.152,0.408v0.98
		c0,0.153-0.051,0.282-0.152,0.387c-0.101,0.1-0.238,0.149-0.409,0.149h-4.459v13.729c0,0.156-0.051,0.285-0.152,0.385
		c-0.101,0.102-0.238,0.152-0.409,0.152H28.083z"/>
	<path fill="#FFFFFF" d="M37.463,121.609c-0.156,0-0.285-0.051-0.385-0.152c-0.102-0.1-0.152-0.229-0.152-0.385v-11.068
		c0-0.154,0.05-0.283,0.152-0.383c0.1-0.102,0.229-0.154,0.385-0.154h1.121c0.155,0,0.284,0.053,0.385,0.154
		c0.1,0.1,0.152,0.229,0.152,0.383v11.068c0,0.156-0.052,0.285-0.152,0.385c-0.101,0.102-0.23,0.152-0.385,0.152H37.463z
		 M37.276,107.203c-0.156,0-0.285-0.049-0.385-0.152c-0.102-0.1-0.152-0.229-0.152-0.385v-1.26c0-0.156,0.05-0.289,0.152-0.398
		c0.1-0.107,0.229-0.164,0.385-0.164h1.471c0.155,0,0.287,0.057,0.396,0.164c0.109,0.109,0.163,0.242,0.163,0.398v1.26
		c0,0.156-0.054,0.285-0.163,0.385c-0.109,0.104-0.241,0.152-0.396,0.152H37.276z"/>
	<path fill="#FFFFFF" d="M42.533,121.609c-0.156,0-0.284-0.051-0.385-0.152c-0.102-0.1-0.152-0.229-0.152-0.385v-15.504
		c0-0.154,0.05-0.283,0.152-0.385c0.101-0.103,0.229-0.152,0.385-0.152h1.098c0.171,0,0.303,0.051,0.397,0.152
		c0.093,0.102,0.14,0.229,0.14,0.385v15.504c0,0.156-0.047,0.285-0.14,0.385c-0.094,0.102-0.226,0.152-0.397,0.152H42.533z"/>
	<path fill="#FFFFFF" d="M52.554,119.953c0.809,0,1.443-0.178,1.903-0.527c0.458-0.35,0.79-0.809,0.991-1.377
		c0.203-0.568,0.32-1.178,0.352-1.832c0.015-0.453,0.015-0.904,0-1.355c-0.032-0.651-0.149-1.264-0.352-1.831
		c-0.201-0.568-0.533-1.027-0.991-1.38c-0.46-0.35-1.094-0.524-1.903-0.524c-0.732,0-1.34,0.172-1.822,0.515
		c-0.482,0.344-0.844,0.778-1.085,1.309c-0.242,0.529-0.37,1.066-0.386,1.611c-0.016,0.25-0.023,0.547-0.023,0.897
		s0.007,0.649,0.023,0.897c0.031,0.576,0.16,1.142,0.386,1.693c0.225,0.553,0.575,1.008,1.051,1.367
		C51.172,119.773,51.791,119.953,52.554,119.953 M53.044,121.844c-0.934,0-1.712-0.168-2.335-0.504
		c-0.622-0.334-1.12-0.75-1.494-1.248v0.98c0,0.156-0.051,0.283-0.152,0.387c-0.102,0.1-0.23,0.15-0.385,0.15h-1.074
		c-0.156,0-0.284-0.051-0.386-0.15c-0.101-0.104-0.151-0.23-0.151-0.387v-15.504c0-0.154,0.05-0.283,0.151-0.385
		c0.102-0.101,0.23-0.152,0.386-0.152h1.144c0.155,0,0.28,0.053,0.373,0.152c0.094,0.102,0.14,0.229,0.14,0.385v5.371
		c0.389-0.482,0.892-0.89,1.506-1.215c0.615-0.326,1.374-0.49,2.277-0.49c0.871,0,1.614,0.151,2.23,0.455
		c0.615,0.305,1.121,0.721,1.517,1.25c0.397,0.528,0.697,1.129,0.899,1.797c0.203,0.672,0.319,1.371,0.351,2.102
		c0.015,0.25,0.023,0.482,0.023,0.701s-0.008,0.451-0.023,0.701c-0.032,0.746-0.148,1.453-0.351,2.123
		c-0.202,0.67-0.502,1.266-0.899,1.787c-0.396,0.521-0.902,0.934-1.517,1.235C54.658,121.691,53.915,121.844,53.044,121.844"/>
	<path fill="#FFFFFF" d="M64.915,121.844c-0.996,0-1.841-0.223-2.533-0.666c-0.693-0.443-1.219-1.063-1.577-1.857
		c-0.358-0.793-0.537-1.702-0.537-2.729v-6.586c0-0.153,0.05-0.282,0.152-0.383c0.101-0.103,0.23-0.154,0.385-0.154h1.168
		c0.155,0,0.283,0.054,0.385,0.154c0.101,0.101,0.151,0.229,0.151,0.383v6.47c0,2.319,1.013,3.479,3.036,3.479
		c0.965,0,1.739-0.31,2.323-0.924c0.584-0.613,0.875-1.468,0.875-2.558v-6.469c0-0.154,0.052-0.283,0.152-0.383
		c0.102-0.102,0.23-0.154,0.385-0.154h1.168c0.156,0,0.28,0.053,0.374,0.154c0.093,0.1,0.14,0.229,0.14,0.383v11.068
		c0,0.156-0.047,0.283-0.14,0.387c-0.094,0.1-0.218,0.15-0.374,0.15h-1.097c-0.156,0-0.284-0.051-0.385-0.15
		c-0.102-0.104-0.152-0.23-0.152-0.387v-1.027c-0.42,0.545-0.93,0.98-1.53,1.309C66.686,121.68,65.895,121.844,64.915,121.844"/>
	<path fill="#FFFFFF" d="M78.805,119.953c0.779,0,1.401-0.18,1.867-0.537c0.469-0.359,0.818-0.814,1.053-1.367
		c0.232-0.553,0.357-1.117,0.373-1.693c0.016-0.248,0.023-0.549,0.023-0.897c0-0.353-0.01-0.647-0.023-0.897
		c-0.016-0.545-0.145-1.082-0.385-1.611c-0.242-0.529-0.6-0.965-1.076-1.309c-0.474-0.343-1.084-0.515-1.832-0.515
		c-0.793,0-1.424,0.176-1.891,0.524c-0.469,0.353-0.803,0.812-1.005,1.38c-0.201,0.567-0.319,1.18-0.351,1.831
		c-0.015,0.451-0.015,0.902,0,1.355c0.031,0.654,0.149,1.264,0.351,1.832c0.202,0.568,0.536,1.027,1.005,1.377
		C77.381,119.775,78.012,119.953,78.805,119.953 M78.314,121.844c-0.855,0-1.597-0.152-2.219-0.457
		c-0.623-0.303-1.132-0.715-1.528-1.236c-0.397-0.521-0.694-1.116-0.889-1.786c-0.193-0.671-0.306-1.378-0.338-2.123
		c-0.015-0.25-0.023-0.482-0.023-0.701c0-0.22,0.008-0.451,0.023-0.701c0.032-0.729,0.145-1.43,0.338-2.103
		c0.195-0.668,0.492-1.268,0.889-1.797c0.396-0.528,0.906-0.944,1.528-1.25c0.622-0.303,1.362-0.455,2.219-0.455
		c0.918,0,1.681,0.164,2.289,0.49c0.606,0.326,1.104,0.732,1.494,1.215v-5.371c0-0.153,0.051-0.282,0.151-0.385
		c0.101-0.1,0.229-0.151,0.385-0.151h1.121c0.155,0,0.283,0.053,0.386,0.151c0.101,0.103,0.151,0.23,0.151,0.385v15.505
		c0,0.155-0.052,0.282-0.151,0.387c-0.103,0.101-0.229,0.149-0.386,0.149h-1.052c-0.171,0-0.303-0.051-0.396-0.149
		c-0.093-0.104-0.14-0.229-0.14-0.387v-0.98c-0.392,0.498-0.896,0.914-1.519,1.248C80.025,121.676,79.25,121.844,78.314,121.844"/>
	<path fill="#FFFFFF" d="M91.379,121.844c-0.873,0-1.619-0.109-2.242-0.328c-0.623-0.217-1.129-0.479-1.518-0.793
		c-0.391-0.311-0.682-0.623-0.875-0.934c-0.195-0.313-0.301-0.561-0.316-0.748c-0.016-0.17,0.039-0.305,0.164-0.396
		c0.125-0.094,0.248-0.141,0.373-0.141h1.051c0.078,0,0.146,0.012,0.199,0.035c0.055,0.023,0.129,0.09,0.221,0.197
		c0.203,0.219,0.43,0.438,0.678,0.654c0.25,0.219,0.557,0.397,0.923,0.536c0.366,0.142,0.819,0.212,1.366,0.212
		c0.793,0,1.447-0.152,1.961-0.455c0.514-0.306,0.771-0.752,0.771-1.343c0-0.389-0.105-0.7-0.316-0.934
		c-0.209-0.234-0.584-0.445-1.12-0.632c-0.537-0.188-1.271-0.383-2.206-0.584c-0.936-0.219-1.674-0.485-2.221-0.807
		c-0.545-0.318-0.932-0.699-1.166-1.143c-0.233-0.445-0.35-0.947-0.35-1.508c0-0.574,0.17-1.133,0.512-1.67
		c0.344-0.537,0.846-0.976,1.508-1.318c0.662-0.342,1.49-0.514,2.486-0.514c0.809,0,1.502,0.102,2.078,0.305
		c0.575,0.201,1.051,0.455,1.424,0.758c0.373,0.305,0.653,0.604,0.84,0.898c0.188,0.297,0.289,0.547,0.305,0.748
		c0.015,0.156-0.03,0.285-0.141,0.385c-0.108,0.102-0.232,0.152-0.375,0.152h-0.979c-0.107,0-0.198-0.023-0.27-0.07
		c-0.07-0.047-0.137-0.102-0.196-0.162c-0.157-0.203-0.339-0.406-0.552-0.609c-0.209-0.201-0.48-0.369-0.814-0.5
		c-0.335-0.133-0.773-0.199-1.318-0.199c-0.779,0-1.363,0.162-1.75,0.49c-0.392,0.326-0.584,0.738-0.584,1.238
		c0,0.295,0.084,0.559,0.256,0.793c0.17,0.232,0.498,0.443,0.979,0.629c0.481,0.188,1.198,0.391,2.147,0.609
		c1.027,0.201,1.836,0.475,2.429,0.816c0.592,0.34,1.011,0.737,1.261,1.19c0.248,0.451,0.374,0.973,0.374,1.563
		c0,0.653-0.188,1.254-0.562,1.799c-0.375,0.545-0.934,0.977-1.68,1.297C93.387,121.684,92.467,121.844,91.379,121.844"/>
	<path fill="#FFFFFF" d="M102.74,120.092c0.637,0,1.221-0.137,1.752-0.408c0.527-0.271,0.943-0.697,1.248-1.272
		c0.305-0.576,0.455-1.3,0.455-2.17v-0.654l-2.709,0.396c-1.105,0.156-1.937,0.416-2.496,0.781c-0.563,0.367-0.842,0.83-0.842,1.392
		c0,0.436,0.127,0.799,0.385,1.086c0.258,0.286,0.584,0.502,0.98,0.641C101.91,120.021,102.318,120.092,102.74,120.092
		 M102.25,121.844c-0.779,0-1.488-0.156-2.125-0.467c-0.641-0.313-1.152-0.732-1.541-1.262c-0.391-0.529-0.584-1.129-0.584-1.799
		c0-1.072,0.436-1.928,1.307-2.566s2.008-1.061,3.408-1.262l3.48-0.49v-0.678c0-0.746-0.215-1.33-0.641-1.75
		c-0.431-0.422-1.128-0.631-2.093-0.631c-0.685,0-1.244,0.141-1.68,0.42c-0.438,0.279-0.738,0.639-0.912,1.074
		c-0.095,0.233-0.257,0.352-0.49,0.352h-1.05c-0.17,0-0.299-0.053-0.385-0.154c-0.086-0.1-0.129-0.221-0.129-0.361
		c0-0.231,0.09-0.52,0.27-0.862c0.178-0.345,0.455-0.679,0.828-1.005c0.375-0.325,0.854-0.604,1.436-0.827
		c0.584-0.228,1.297-0.341,2.137-0.341c0.937,0,1.722,0.121,2.359,0.361c0.637,0.242,1.141,0.566,1.506,0.971
		c0.363,0.404,0.629,0.863,0.793,1.377c0.164,0.515,0.246,1.035,0.246,1.564v7.564c0,0.156-0.053,0.283-0.152,0.387
		c-0.102,0.1-0.229,0.15-0.387,0.15h-1.074c-0.17,0-0.303-0.051-0.395-0.15c-0.094-0.104-0.141-0.23-0.141-0.387v-1.004
		c-0.201,0.279-0.477,0.559-0.818,0.828c-0.342,0.272-0.771,0.498-1.283,0.678C103.627,121.754,102.996,121.844,102.25,121.844"/>
	<path fill="#FFFFFF" d="M115.129,121.609c-0.232,0-0.418-0.055-0.547-0.162c-0.135-0.109-0.24-0.25-0.318-0.422l-4.318-10.834
		c-0.03-0.076-0.047-0.154-0.047-0.234c0-0.139,0.047-0.256,0.142-0.35c0.094-0.094,0.209-0.142,0.349-0.142h1.123
		c0.17,0,0.305,0.048,0.396,0.142c0.094,0.094,0.153,0.18,0.188,0.258l3.547,9.199l3.551-9.199c0.031-0.078,0.09-0.164,0.176-0.258
		c0.084-0.094,0.215-0.142,0.385-0.142h1.143c0.127,0,0.238,0.048,0.34,0.142c0.103,0.094,0.152,0.211,0.152,0.35
		c0,0.08-0.016,0.158-0.047,0.234l-4.344,10.834c-0.063,0.172-0.16,0.313-0.291,0.422c-0.133,0.107-0.322,0.162-0.572,0.162H115.129
		z"/>
	<path fill="#FFFFFF" d="M123.848,121.609c-0.154,0-0.283-0.051-0.385-0.152c-0.102-0.1-0.15-0.229-0.15-0.385v-11.068
		c0-0.154,0.049-0.283,0.15-0.383c0.102-0.102,0.23-0.154,0.385-0.154h1.123c0.154,0,0.281,0.053,0.385,0.154
		c0.101,0.1,0.15,0.229,0.15,0.383v11.068c0,0.156-0.051,0.285-0.15,0.385c-0.104,0.102-0.229,0.152-0.385,0.152H123.848z
		 M123.66,107.203c-0.154,0-0.283-0.049-0.385-0.152c-0.101-0.1-0.15-0.229-0.15-0.385v-1.26c0-0.156,0.051-0.289,0.15-0.398
		c0.102-0.107,0.229-0.164,0.385-0.164h1.473c0.156,0,0.289,0.057,0.398,0.164c0.107,0.109,0.162,0.242,0.162,0.398v1.26
		c0,0.156-0.055,0.285-0.162,0.385c-0.109,0.104-0.242,0.152-0.398,0.152H123.66z"/>
	<path fill="#FFFFFF" d="M132.539,121.844c-0.871,0-1.619-0.109-2.242-0.328c-0.621-0.217-1.127-0.479-1.518-0.793
		c-0.387-0.311-0.68-0.623-0.875-0.934c-0.193-0.313-0.299-0.561-0.314-0.748c-0.016-0.17,0.039-0.305,0.164-0.396
		c0.123-0.094,0.248-0.141,0.373-0.141h1.049c0.078,0,0.145,0.012,0.199,0.035s0.129,0.09,0.223,0.197
		c0.201,0.219,0.428,0.438,0.678,0.654c0.248,0.219,0.558,0.397,0.922,0.536c0.365,0.142,0.82,0.212,1.365,0.212
		c0.793,0,1.447-0.152,1.961-0.455c0.517-0.306,0.771-0.752,0.771-1.343c0-0.389-0.104-0.7-0.313-0.934
		c-0.211-0.234-0.584-0.445-1.121-0.632c-0.537-0.188-1.272-0.383-2.207-0.584c-0.936-0.219-1.674-0.485-2.219-0.807
		c-0.545-0.318-0.936-0.699-1.166-1.143c-0.233-0.445-0.352-0.947-0.352-1.508c0-0.574,0.17-1.133,0.516-1.67
		c0.342-0.537,0.844-0.976,1.504-1.318c0.662-0.342,1.49-0.514,2.488-0.514c0.809,0,1.5,0.102,2.076,0.305
		c0.578,0.201,1.051,0.455,1.426,0.758c0.373,0.305,0.652,0.604,0.84,0.898c0.187,0.297,0.289,0.547,0.305,0.748
		c0.015,0.156-0.03,0.285-0.141,0.385c-0.109,0.102-0.232,0.152-0.375,0.152h-0.979c-0.109,0-0.197-0.023-0.269-0.07
		c-0.07-0.047-0.137-0.102-0.199-0.162c-0.155-0.203-0.338-0.406-0.547-0.609c-0.211-0.201-0.483-0.369-0.817-0.5
		c-0.336-0.133-0.772-0.199-1.318-0.199c-0.778,0-1.362,0.162-1.752,0.49c-0.389,0.326-0.584,0.738-0.584,1.238
		c0,0.295,0.084,0.559,0.257,0.793c0.172,0.232,0.497,0.443,0.979,0.629c0.483,0.188,1.198,0.391,2.149,0.609
		c1.025,0.201,1.836,0.475,2.428,0.816c0.593,0.34,1.011,0.737,1.261,1.19c0.25,0.451,0.373,0.973,0.373,1.563
		c0,0.653-0.187,1.254-0.56,1.799s-0.936,0.977-1.684,1.297C134.549,121.684,133.629,121.844,132.539,121.844"/>
</g>
<path fill-rule="evenodd" clip-rule="evenodd" fill="#FFFFFF" d="M77.901,54.74c1.52,0,2.75,1.232,2.75,2.752l0,0
	c0,0.148-0.059,0.293-0.164,0.398s-0.248,0.164-0.398,0.164c-2.168,0-7.96,0-10.128,0c-0.148,0-0.293-0.059-0.398-0.164
	s-0.164-0.25-0.164-0.398l0,0c0-1.52,1.23-2.752,2.75-2.752H77.901z M85.983,64.16c0.184,0,0.355,0.084,0.467,0.227
	c0.111,0.145,0.152,0.33,0.107,0.508c-0.813,3.09-3.625,5.371-6.969,5.371h-9.128c-3.975,0-7.197-3.223-7.197-7.199v-5.574
	c0-3.977,3.223-7.199,7.197-7.199h9.128c3.975,0,7.199,3.222,7.199,7.199v3.857c0,0.637-0.518,1.154-1.154,1.154H69.961
	c-0.148,0-0.293,0.059-0.398,0.164s-0.164,0.248-0.164,0.398l0,0c0,1.52,1.23,2.75,2.75,2.75h5.753c0.992,0,1.861-0.523,2.346-1.313
	c0.127-0.211,0.355-0.338,0.604-0.338C81.907,64.16,84.667,64.16,85.983,64.16z M86.763,43.681H57.357v27.315
	c0,3.248,2.633,5.883,5.881,5.883h23.524c3.248,0,5.881-2.635,5.881-5.883V49.561C92.644,46.313,90.011,43.681,86.763,43.681z"/>
</svg>
