<?xml version="1.0" encoding="utf-8"?>
<!-- Generator: Adobe Illustrator 16.0.3, SVG Export Plug-In . SVG Version: 6.00 Build 0)  -->
<!DOCTYPE svg PUBLIC "-//W3C//DTD SVG 1.1//EN" "http://www.w3.org/Graphics/SVG/1.1/DTD/svg11.dtd">
<svg version="1.1" id="Lag_1" xmlns="http://www.w3.org/2000/svg" xmlns:xlink="http://www.w3.org/1999/xlink" x="0px" y="0px"
	 width="300px" height="150px" viewBox="0 0 300 150" enable-background="new 0 0 300 150" xml:space="preserve">
<g>
	<path fill="#FFFFFF" d="M132.568,78.704h6.396v-0.07c0-0.7-0.129-1.323-0.385-1.868c-0.257-0.546-0.627-0.978-1.109-1.296
		c-0.482-0.318-1.059-0.479-1.728-0.479s-1.242,0.16-1.716,0.479c-0.475,0.318-0.838,0.75-1.086,1.296
		c-0.25,0.545-0.373,1.168-0.373,1.868L132.568,78.704L132.568,78.704z M135.766,85.896c-1.619,0-2.902-0.494-3.853-1.484
		c-0.949-0.988-1.47-2.338-1.563-4.051c-0.017-0.201-0.022-0.463-0.022-0.781s0.006-0.58,0.022-0.781
		c0.062-1.105,0.319-2.074,0.771-2.908c0.452-0.832,1.069-1.475,1.856-1.926c0.785-0.451,1.707-0.678,2.767-0.678
		c1.182,0,2.175,0.248,2.978,0.748c0.801,0.498,1.411,1.205,1.832,2.125c0.42,0.918,0.631,1.99,0.631,3.223v0.395
		c0,0.173-0.052,0.306-0.151,0.398c-0.101,0.094-0.229,0.139-0.386,0.139h-8.078v0.095v0.116c0.031,0.64,0.171,1.234,0.418,1.787
		c0.25,0.554,0.613,1,1.088,1.343c0.474,0.342,1.031,0.514,1.669,0.514c0.56,0,1.026-0.086,1.401-0.258
		c0.373-0.17,0.676-0.359,0.91-0.57c0.233-0.211,0.389-0.379,0.467-0.502c0.141-0.188,0.248-0.301,0.328-0.34
		c0.076-0.037,0.2-0.06,0.371-0.06h1.146c0.14,0,0.26,0.045,0.362,0.129c0.101,0.087,0.143,0.207,0.127,0.363
		c-0.016,0.232-0.14,0.517-0.373,0.851c-0.232,0.336-0.564,0.666-0.991,0.993c-0.429,0.326-0.958,0.595-1.589,0.806
		C137.273,85.792,136.561,85.896,135.766,85.896"/>
	<path fill="#FFFFFF" d="M145.945,85.661c-0.154,0-0.283-0.052-0.385-0.152c-0.102-0.1-0.152-0.229-0.152-0.385V71.395h-4.482
		c-0.156,0-0.284-0.05-0.385-0.15c-0.103-0.103-0.152-0.231-0.152-0.387v-0.979c0-0.172,0.05-0.309,0.152-0.409
		c0.101-0.102,0.229-0.152,0.385-0.152h11.254c0.172,0,0.31,0.051,0.409,0.152c0.101,0.101,0.151,0.237,0.151,0.409v0.979
		c0,0.155-0.051,0.284-0.151,0.387c-0.101,0.101-0.237,0.15-0.409,0.15h-4.458v13.729c0,0.155-0.051,0.285-0.152,0.385
		c-0.101,0.103-0.238,0.152-0.408,0.152H145.945z"/>
	<path fill="#FFFFFF" d="M155.326,85.661c-0.156,0-0.285-0.052-0.385-0.152c-0.103-0.1-0.152-0.229-0.152-0.385V74.056
		c0-0.154,0.051-0.283,0.152-0.383c0.1-0.104,0.229-0.154,0.385-0.154h1.121c0.154,0,0.283,0.051,0.385,0.154
		c0.1,0.1,0.152,0.229,0.152,0.383v11.068c0,0.156-0.053,0.285-0.152,0.385c-0.102,0.103-0.23,0.152-0.385,0.152H155.326z
		 M155.139,71.255c-0.156,0-0.285-0.05-0.385-0.152c-0.102-0.101-0.152-0.229-0.152-0.385v-1.261c0-0.155,0.051-0.288,0.152-0.397
		c0.1-0.108,0.229-0.164,0.385-0.164h1.473c0.154,0,0.285,0.056,0.396,0.164c0.109,0.109,0.163,0.242,0.163,0.397v1.261
		c0,0.155-0.054,0.284-0.163,0.385c-0.108,0.103-0.239,0.152-0.396,0.152H155.139z"/>
	<path fill="#FFFFFF" d="M160.396,85.661c-0.156,0-0.285-0.052-0.385-0.152c-0.104-0.1-0.152-0.229-0.152-0.385V69.621
		c0-0.155,0.05-0.284,0.152-0.386c0.1-0.101,0.229-0.151,0.385-0.151h1.098c0.171,0,0.303,0.051,0.396,0.151
		c0.094,0.102,0.141,0.23,0.141,0.386v15.503c0,0.156-0.047,0.285-0.141,0.385c-0.095,0.103-0.227,0.152-0.396,0.152H160.396z"/>
	<path fill="#FFFFFF" d="M170.418,84.005c0.809,0,1.441-0.178,1.902-0.526c0.457-0.351,0.789-0.81,0.99-1.377
		c0.203-0.568,0.319-1.179,0.354-1.832c0.016-0.453,0.016-0.904,0-1.355c-0.033-0.652-0.148-1.264-0.354-1.832
		c-0.201-0.568-0.533-1.027-0.99-1.379c-0.461-0.35-1.094-0.525-1.902-0.525c-0.732,0-1.34,0.172-1.822,0.514
		c-0.482,0.345-0.844,0.779-1.085,1.31c-0.241,0.528-0.37,1.065-0.386,1.61c-0.018,0.25-0.023,0.548-0.023,0.898
		c0,0.35,0.008,0.65,0.023,0.898c0.029,0.576,0.16,1.141,0.386,1.693s0.575,1.008,1.052,1.366
		C169.035,83.825,169.654,84.005,170.418,84.005 M170.908,85.896c-0.936,0-1.713-0.168-2.336-0.504
		c-0.621-0.334-1.119-0.75-1.494-1.248v0.979c0,0.156-0.051,0.283-0.151,0.387c-0.103,0.101-0.229,0.15-0.386,0.15h-1.074
		c-0.154,0-0.283-0.052-0.385-0.15c-0.102-0.104-0.15-0.229-0.15-0.387V69.62c0-0.154,0.049-0.283,0.15-0.385
		c0.102-0.1,0.229-0.152,0.385-0.152h1.145c0.156,0,0.281,0.053,0.373,0.152c0.095,0.102,0.142,0.23,0.142,0.385v5.372
		c0.39-0.482,0.892-0.889,1.506-1.215c0.615-0.326,1.373-0.49,2.277-0.49c0.87,0,1.612,0.152,2.229,0.455
		c0.613,0.305,1.119,0.721,1.516,1.25c0.397,0.529,0.697,1.129,0.9,1.797c0.201,0.672,0.318,1.371,0.35,2.102
		c0.017,0.25,0.023,0.482,0.023,0.701s-0.008,0.451-0.023,0.701c-0.03,0.746-0.147,1.453-0.35,2.123
		c-0.203,0.67-0.503,1.266-0.9,1.787c-0.396,0.521-0.901,0.934-1.516,1.236C172.521,85.743,171.777,85.896,170.908,85.896"/>
	<path fill="#FFFFFF" d="M182.777,85.896c-0.995,0-1.84-0.224-2.532-0.666c-0.692-0.443-1.22-1.063-1.577-1.857
		c-0.357-0.793-0.537-1.703-0.537-2.73v-6.585c0-0.154,0.051-0.283,0.152-0.383c0.101-0.102,0.23-0.154,0.385-0.154h1.168
		c0.155,0,0.283,0.053,0.385,0.154c0.102,0.1,0.151,0.229,0.151,0.383v6.468c0,2.32,1.013,3.48,3.036,3.48
		c0.965,0,1.738-0.309,2.322-0.924c0.584-0.613,0.875-1.467,0.875-2.557v-6.469c0-0.154,0.053-0.283,0.151-0.383
		c0.103-0.102,0.229-0.154,0.386-0.154h1.168c0.155,0,0.279,0.053,0.375,0.154c0.092,0.1,0.14,0.229,0.14,0.383v11.068
		c0,0.156-0.048,0.283-0.14,0.387c-0.096,0.101-0.22,0.15-0.375,0.15h-1.098c-0.154,0-0.283-0.052-0.385-0.15
		c-0.104-0.104-0.151-0.229-0.151-0.387v-1.026c-0.421,0.545-0.931,0.979-1.53,1.309C184.549,85.73,183.758,85.896,182.777,85.896"
		/>
	<path fill="#FFFFFF" d="M196.668,84.005c0.777,0,1.4-0.18,1.867-0.537c0.469-0.358,0.818-0.813,1.053-1.366
		c0.232-0.554,0.357-1.117,0.373-1.693c0.016-0.248,0.023-0.549,0.023-0.898c0-0.352-0.01-0.648-0.023-0.898
		c-0.016-0.545-0.145-1.082-0.385-1.61c-0.242-0.528-0.6-0.965-1.076-1.31c-0.475-0.341-1.084-0.514-1.832-0.514
		c-0.793,0-1.424,0.176-1.891,0.525c-0.469,0.352-0.803,0.811-1.006,1.379c-0.201,0.568-0.318,1.18-0.351,1.832
		c-0.014,0.451-0.014,0.902,0,1.355c0.031,0.653,0.149,1.264,0.351,1.832c0.203,0.567,0.537,1.026,1.006,1.377
		C195.244,83.827,195.875,84.005,196.668,84.005 M196.18,85.896c-0.856,0-1.598-0.152-2.221-0.457
		c-0.621-0.304-1.131-0.715-1.527-1.236c-0.396-0.521-0.693-1.117-0.889-1.787c-0.193-0.67-0.307-1.377-0.338-2.123
		c-0.016-0.25-0.023-0.482-0.023-0.701s0.008-0.451,0.023-0.701c0.031-0.729,0.145-1.43,0.338-2.102
		c0.193-0.668,0.492-1.268,0.889-1.797c0.397-0.529,0.906-0.945,1.527-1.25c0.623-0.303,1.363-0.455,2.221-0.455
		c0.918,0,1.68,0.164,2.287,0.49c0.607,0.326,1.104,0.732,1.494,1.215V69.62c0-0.154,0.051-0.283,0.15-0.385
		c0.102-0.1,0.229-0.152,0.387-0.152h1.121c0.154,0,0.283,0.053,0.385,0.152c0.102,0.102,0.15,0.23,0.15,0.385v15.504
		c0,0.156-0.051,0.283-0.15,0.387c-0.102,0.101-0.229,0.15-0.385,0.15h-1.053c-0.17,0-0.303-0.052-0.396-0.15
		c-0.092-0.104-0.141-0.229-0.141-0.387v-0.979c-0.389,0.498-0.895,0.914-1.516,1.248C197.891,85.729,197.111,85.896,196.18,85.896"
		/>
	<path fill="#FFFFFF" d="M209.242,85.896c-0.873,0-1.619-0.109-2.242-0.328c-0.623-0.217-1.129-0.48-1.518-0.793
		c-0.391-0.312-0.683-0.623-0.875-0.935c-0.195-0.313-0.301-0.561-0.316-0.748c-0.016-0.17,0.039-0.305,0.164-0.396
		c0.125-0.094,0.248-0.141,0.373-0.141h1.051c0.078,0,0.145,0.012,0.199,0.034c0.054,0.023,0.129,0.091,0.221,0.197
		c0.203,0.219,0.43,0.438,0.678,0.653c0.25,0.22,0.558,0.398,0.922,0.537c0.367,0.142,0.822,0.211,1.367,0.211
		c0.793,0,1.447-0.151,1.961-0.455c0.515-0.305,0.771-0.752,0.771-1.342c0-0.389-0.105-0.701-0.316-0.934
		c-0.209-0.234-0.584-0.445-1.121-0.631c-0.537-0.188-1.271-0.383-2.205-0.584c-0.936-0.219-1.674-0.486-2.219-0.807
		c-0.547-0.318-0.934-0.699-1.168-1.144s-0.35-0.946-0.35-1.508c0-0.574,0.17-1.134,0.512-1.67c0.344-0.537,0.846-0.975,1.508-1.318
		c0.662-0.342,1.49-0.514,2.486-0.514c0.809,0,1.502,0.102,2.078,0.305c0.574,0.201,1.051,0.455,1.424,0.758
		c0.373,0.305,0.652,0.604,0.841,0.898c0.187,0.297,0.288,0.547,0.304,0.748c0.015,0.155-0.03,0.284-0.141,0.385
		c-0.109,0.103-0.232,0.152-0.375,0.152h-0.979c-0.108,0-0.198-0.023-0.27-0.07c-0.07-0.047-0.137-0.103-0.197-0.162
		c-0.156-0.202-0.338-0.405-0.55-0.608c-0.21-0.201-0.481-0.37-0.815-0.5c-0.336-0.133-0.774-0.199-1.319-0.199
		c-0.778,0-1.362,0.162-1.75,0.49c-0.392,0.327-0.584,0.738-0.584,1.238c0,0.296,0.084,0.56,0.256,0.793
		c0.171,0.232,0.498,0.443,0.979,0.63c0.482,0.188,1.199,0.391,2.148,0.606c1.027,0.203,1.836,0.478,2.428,0.817
		c0.592,0.342,1.012,0.738,1.262,1.191c0.248,0.451,0.373,0.973,0.373,1.563c0,0.654-0.187,1.255-0.561,1.8s-0.934,0.978-1.68,1.295
		C211.25,85.734,210.33,85.896,209.242,85.896"/>
	<path fill="#FFFFFF" d="M220.604,84.145c0.637,0,1.221-0.138,1.752-0.408c0.527-0.271,0.943-0.697,1.248-1.273
		s0.455-1.299,0.455-2.17v-0.654l-2.709,0.396c-1.105,0.156-1.937,0.416-2.496,0.781c-0.563,0.367-0.842,0.83-0.842,1.391
		c0,0.436,0.127,0.799,0.385,1.084c0.258,0.289,0.584,0.504,0.98,0.643C219.773,84.073,220.182,84.145,220.604,84.145
		 M220.113,85.896c-0.779,0-1.488-0.156-2.127-0.467c-0.639-0.313-1.15-0.732-1.541-1.263c-0.389-0.53-0.582-1.129-0.582-1.799
		c0-1.072,0.436-1.929,1.307-2.566s2.008-1.061,3.408-1.262l3.48-0.49v-0.678c0-0.748-0.216-1.332-0.642-1.75
		c-0.431-0.422-1.127-0.631-2.092-0.631c-0.685,0-1.244,0.141-1.681,0.42c-0.438,0.278-0.738,0.639-0.912,1.073
		c-0.094,0.234-0.256,0.353-0.489,0.353h-1.052c-0.17,0-0.299-0.053-0.385-0.153s-0.129-0.222-0.129-0.361
		c0-0.232,0.09-0.521,0.27-0.863c0.179-0.343,0.455-0.678,0.828-1.004c0.375-0.326,0.854-0.604,1.437-0.828
		c0.584-0.227,1.297-0.34,2.138-0.34c0.935,0,1.721,0.121,2.358,0.361c0.638,0.242,1.142,0.566,1.506,0.971
		c0.363,0.404,0.629,0.863,0.793,1.377c0.164,0.514,0.246,1.035,0.246,1.564v7.563c0,0.156-0.053,0.283-0.151,0.387
		c-0.103,0.101-0.231,0.15-0.388,0.15h-1.073c-0.17,0-0.304-0.052-0.396-0.15c-0.094-0.104-0.141-0.229-0.141-0.387V84.12
		c-0.201,0.278-0.477,0.56-0.817,0.828c-0.343,0.272-0.771,0.497-1.283,0.678S220.859,85.896,220.113,85.896"/>
	<path fill="#FFFFFF" d="M232.992,85.661c-0.233,0-0.418-0.056-0.547-0.162c-0.137-0.108-0.24-0.25-0.318-0.422l-4.318-10.834
		c-0.031-0.076-0.047-0.154-0.047-0.234c0-0.139,0.047-0.256,0.141-0.35c0.095-0.094,0.209-0.141,0.349-0.141h1.123
		c0.17,0,0.304,0.047,0.396,0.141c0.095,0.094,0.155,0.18,0.188,0.258l3.547,9.199l3.552-9.199c0.03-0.078,0.088-0.164,0.176-0.258
		c0.084-0.094,0.215-0.141,0.385-0.141h1.143c0.127,0,0.238,0.047,0.34,0.141c0.103,0.094,0.152,0.211,0.152,0.35
		c0,0.08-0.016,0.158-0.047,0.234l-4.346,10.834c-0.061,0.172-0.158,0.313-0.291,0.422c-0.133,0.106-0.32,0.162-0.57,0.162H232.992z
		"/>
	<path fill="#FFFFFF" d="M241.711,85.661c-0.154,0-0.283-0.052-0.385-0.152c-0.102-0.1-0.151-0.229-0.151-0.385V74.056
		c0-0.154,0.05-0.283,0.151-0.383c0.102-0.104,0.23-0.154,0.385-0.154h1.122c0.155,0,0.282,0.051,0.385,0.154
		c0.101,0.1,0.151,0.229,0.151,0.383v11.068c0,0.156-0.051,0.285-0.151,0.385c-0.103,0.103-0.229,0.152-0.385,0.152H241.711z
		 M241.523,71.255c-0.154,0-0.283-0.05-0.385-0.152c-0.102-0.101-0.15-0.229-0.15-0.385v-1.261c0-0.155,0.05-0.288,0.15-0.397
		c0.102-0.108,0.229-0.164,0.385-0.164h1.472c0.157,0,0.288,0.056,0.399,0.164c0.105,0.109,0.162,0.242,0.162,0.397v1.261
		c0,0.155-0.057,0.284-0.162,0.385c-0.111,0.103-0.242,0.152-0.399,0.152H241.523z"/>
	<path fill="#FFFFFF" d="M250.402,85.896c-0.871,0-1.619-0.109-2.242-0.328c-0.621-0.217-1.127-0.48-1.518-0.793
		c-0.389-0.312-0.681-0.623-0.875-0.935c-0.193-0.313-0.3-0.561-0.314-0.748c-0.016-0.17,0.039-0.305,0.164-0.396
		c0.123-0.094,0.248-0.141,0.373-0.141h1.05c0.077,0,0.144,0.012,0.198,0.034c0.055,0.023,0.129,0.091,0.223,0.197
		c0.201,0.219,0.428,0.438,0.678,0.653c0.248,0.22,0.557,0.398,0.922,0.537c0.364,0.142,0.82,0.211,1.365,0.211
		c0.793,0,1.448-0.151,1.961-0.455c0.516-0.305,0.771-0.752,0.771-1.342c0-0.389-0.104-0.701-0.313-0.934
		c-0.21-0.234-0.584-0.445-1.119-0.631c-0.537-0.188-1.273-0.383-2.207-0.584c-0.936-0.219-1.675-0.486-2.22-0.807
		c-0.545-0.318-0.937-0.699-1.167-1.144c-0.232-0.444-0.352-0.946-0.352-1.508c0-0.574,0.171-1.134,0.516-1.67
		c0.342-0.537,0.844-0.975,1.505-1.318c0.661-0.342,1.491-0.514,2.488-0.514c0.81,0,1.5,0.102,2.076,0.305
		c0.577,0.201,1.052,0.455,1.426,0.758c0.373,0.305,0.651,0.604,0.839,0.898c0.188,0.297,0.29,0.547,0.307,0.748
		c0.014,0.155-0.031,0.284-0.143,0.385c-0.109,0.103-0.23,0.152-0.374,0.152h-0.979c-0.109,0-0.197-0.023-0.27-0.07
		c-0.068-0.047-0.136-0.103-0.199-0.162c-0.154-0.202-0.337-0.405-0.547-0.608c-0.21-0.201-0.482-0.37-0.816-0.5
		c-0.336-0.133-0.773-0.199-1.318-0.199c-0.78,0-1.364,0.162-1.752,0.49c-0.389,0.327-0.584,0.738-0.584,1.238
		c0,0.296,0.084,0.56,0.256,0.793c0.171,0.232,0.499,0.443,0.98,0.63c0.482,0.188,1.199,0.391,2.149,0.606
		c1.025,0.203,1.835,0.478,2.429,0.817c0.592,0.343,1.01,0.738,1.26,1.191c0.25,0.451,0.373,0.973,0.373,1.563
		c0,0.654-0.188,1.255-0.56,1.8c-0.374,0.545-0.937,0.978-1.684,1.295C252.412,85.734,251.492,85.896,250.402,85.896"/>
</g>
<polygon fill="#D0DAA3" points="102.132,35.804 53.203,48.828 102.132,66.999 "/>
<g>
	<path fill="#8AA31B" d="M116.355,59.352c0-5.813-4.712-10.524-10.525-10.524H53.203v48.884c0,5.813,4.713,10.524,10.524,10.524
		h42.103c5.813,0,10.525-4.711,10.525-10.524V59.352z"/>
</g>
<g>
	<path fill="#FFFFFF" d="M92.965,60.618H76.592c-7.133,0-12.914,5.783-12.914,12.915v10.002c0,7.133,5.781,12.914,12.914,12.914
		h16.373c6.002,0,11.045-4.092,12.504-9.637c0.08-0.316,0.008-0.65-0.193-0.908c-0.199-0.258-0.508-0.408-0.836-0.408
		c-2.363,0-7.314,0-9.211,0.01c-0.443,0-0.852,0.23-1.082,0.609c-0.869,1.412-2.428,2.354-4.209,2.354h-10.32
		c-2.727,0-4.934-2.209-4.934-4.934c0,0,0,0,0-0.002c0-0.268,0.105-0.523,0.293-0.713c0.189-0.191,0.449-0.295,0.715-0.295h28.121
		c1.143,0,2.068-0.928,2.068-2.07v-6.922C105.881,66.401,100.098,60.618,92.965,60.618z M94.578,74.248
		c-0.189,0.189-0.445,0.297-0.715,0.297c-3.889,0-14.281,0-18.172,0c-0.266,0-0.525-0.107-0.715-0.297
		c-0.188-0.189-0.293-0.447-0.293-0.715c0-2.727,2.207-4.935,4.934-4.935h10.32c2.727,0,4.936,2.208,4.936,4.935
		C94.873,73.801,94.768,74.059,94.578,74.248z"/>
</g>
</svg>
