<?xml version="1.0" encoding="utf-8"?>
<!-- Generator: Adobe Illustrator 16.0.3, SVG Export Plug-In . SVG Version: 6.00 Build 0)  -->
<!DOCTYPE svg PUBLIC "-//W3C//DTD SVG 1.1//EN" "http://www.w3.org/Graphics/SVG/1.1/DTD/svg11.dtd">
<svg version="1.1" id="Lag_1" xmlns="http://www.w3.org/2000/svg" xmlns:xlink="http://www.w3.org/1999/xlink" x="0px" y="0px"
	 width="150px" height="150px" viewBox="0 0 150 150" enable-background="new 0 0 150 150" xml:space="preserve">
<g>
	<path fill="#1A1A18" d="M14.704,114.418h6.397v-0.07c0-0.701-0.129-1.324-0.385-1.869c-0.257-0.545-0.627-0.977-1.11-1.295
		c-0.482-0.317-1.058-0.479-1.727-0.479s-1.242,0.16-1.716,0.479c-0.475,0.318-0.837,0.75-1.086,1.295s-0.373,1.168-0.373,1.869
		V114.418z M17.902,121.609c-1.619,0-2.903-0.494-3.853-1.484c-0.949-0.988-1.47-2.338-1.564-4.051
		c-0.016-0.201-0.022-0.463-0.022-0.781s0.006-0.58,0.022-0.781c0.062-1.104,0.32-2.074,0.771-2.908
		c0.452-0.832,1.069-1.473,1.856-1.926c0.786-0.451,1.708-0.678,2.767-0.678c1.182,0,2.175,0.248,2.977,0.748
		c0.801,0.498,1.412,1.205,1.833,2.125c0.42,0.918,0.631,1.99,0.631,3.223v0.396c0,0.172-0.052,0.305-0.152,0.397
		c-0.101,0.094-0.23,0.139-0.385,0.139h-8.079v0.095v0.117c0.031,0.639,0.171,1.233,0.419,1.786c0.249,0.554,0.612,1,1.087,1.343
		c0.474,0.342,1.031,0.514,1.669,0.514c0.56,0,1.027-0.086,1.401-0.258c0.373-0.17,0.677-0.358,0.91-0.569
		c0.234-0.212,0.39-0.38,0.467-0.503c0.141-0.188,0.249-0.301,0.328-0.34c0.077-0.037,0.201-0.06,0.372-0.06h1.145
		c0.14,0,0.26,0.046,0.362,0.13c0.101,0.086,0.143,0.207,0.128,0.362c-0.016,0.232-0.14,0.517-0.374,0.851
		c-0.232,0.336-0.564,0.666-0.991,0.994c-0.429,0.325-0.958,0.594-1.589,0.805C19.408,121.504,18.697,121.609,17.902,121.609"/>
	<path fill="#1A1A18" d="M28.082,121.375c-0.155,0-0.284-0.051-0.385-0.152c-0.102-0.1-0.152-0.229-0.152-0.385v-13.729h-4.483
		c-0.156,0-0.284-0.051-0.385-0.15c-0.102-0.104-0.152-0.232-0.152-0.387v-0.98c0-0.172,0.05-0.307,0.152-0.408
		c0.101-0.102,0.229-0.151,0.385-0.151h11.254c0.171,0,0.308,0.051,0.409,0.151c0.101,0.103,0.152,0.236,0.152,0.408v0.98
		c0,0.154-0.051,0.283-0.152,0.387c-0.101,0.1-0.238,0.15-0.409,0.15h-4.459v13.729c0,0.156-0.051,0.285-0.152,0.385
		c-0.101,0.103-0.238,0.152-0.409,0.152H28.082z"/>
	<path fill="#1A1A18" d="M37.462,121.375c-0.156,0-0.285-0.051-0.385-0.152c-0.102-0.1-0.152-0.229-0.152-0.385V109.77
		c0-0.153,0.05-0.283,0.152-0.383c0.1-0.102,0.229-0.154,0.385-0.154h1.121c0.155,0,0.284,0.054,0.385,0.154
		c0.1,0.1,0.152,0.229,0.152,0.383v11.068c0,0.156-0.052,0.285-0.152,0.385c-0.101,0.103-0.23,0.152-0.385,0.152H37.462z
		 M37.275,106.969c-0.156,0-0.285-0.049-0.385-0.152c-0.102-0.1-0.152-0.229-0.152-0.385v-1.26c0-0.156,0.05-0.289,0.152-0.398
		c0.1-0.106,0.229-0.164,0.385-0.164h1.471c0.155,0,0.287,0.058,0.396,0.164c0.109,0.109,0.163,0.242,0.163,0.398v1.26
		c0,0.156-0.054,0.285-0.163,0.385c-0.109,0.104-0.241,0.152-0.396,0.152H37.275z"/>
	<path fill="#1A1A18" d="M42.532,121.375c-0.156,0-0.284-0.051-0.385-0.152c-0.102-0.1-0.152-0.229-0.152-0.385v-15.504
		c0-0.154,0.05-0.283,0.152-0.385c0.101-0.102,0.229-0.152,0.385-0.152h1.098c0.171,0,0.303,0.051,0.397,0.152
		c0.093,0.102,0.14,0.23,0.14,0.385v15.504c0,0.156-0.047,0.285-0.14,0.385c-0.094,0.103-0.226,0.152-0.397,0.152H42.532z"/>
	<path fill="#1A1A18" d="M52.553,119.719c0.809,0,1.443-0.178,1.903-0.527c0.458-0.35,0.79-0.809,0.991-1.377
		c0.203-0.567,0.32-1.178,0.352-1.832c0.015-0.452,0.015-0.903,0-1.354c-0.032-0.651-0.149-1.264-0.352-1.832
		c-0.201-0.567-0.533-1.026-0.991-1.379c-0.46-0.351-1.094-0.524-1.903-0.524c-0.732,0-1.34,0.172-1.822,0.514
		c-0.482,0.344-0.844,0.779-1.085,1.309c-0.242,0.529-0.37,1.066-0.386,1.611c-0.016,0.25-0.023,0.547-0.023,0.898
		c0,0.35,0.007,0.649,0.023,0.897c0.031,0.576,0.16,1.142,0.386,1.692c0.225,0.554,0.575,1.009,1.051,1.367
		C51.171,119.539,51.79,119.719,52.553,119.719 M53.043,121.609c-0.934,0-1.712-0.168-2.335-0.504
		c-0.622-0.334-1.12-0.75-1.494-1.248v0.979c0,0.156-0.051,0.283-0.152,0.388c-0.102,0.1-0.23,0.149-0.385,0.149h-1.074
		c-0.156,0-0.284-0.051-0.386-0.149c-0.101-0.104-0.151-0.23-0.151-0.388v-15.504c0-0.153,0.05-0.283,0.151-0.385
		c0.102-0.101,0.23-0.152,0.386-0.152h1.144c0.155,0,0.28,0.054,0.373,0.152c0.094,0.102,0.14,0.229,0.14,0.385v5.371
		c0.389-0.481,0.892-0.89,1.506-1.215c0.615-0.326,1.374-0.49,2.277-0.49c0.871,0,1.614,0.151,2.23,0.455
		c0.615,0.305,1.121,0.721,1.517,1.25c0.397,0.528,0.697,1.129,0.899,1.797c0.203,0.672,0.319,1.371,0.351,2.103
		c0.015,0.25,0.023,0.481,0.023,0.701c0,0.219-0.008,0.45-0.023,0.7c-0.032,0.746-0.148,1.453-0.351,2.123
		c-0.202,0.67-0.502,1.267-0.899,1.787c-0.396,0.521-0.902,0.935-1.517,1.235C54.657,121.457,53.914,121.609,53.043,121.609"/>
	<path fill="#1A1A18" d="M64.913,121.609c-0.996,0-1.84-0.224-2.532-0.666c-0.693-0.443-1.219-1.063-1.577-1.857
		c-0.358-0.793-0.537-1.703-0.537-2.73v-6.586c0-0.153,0.05-0.283,0.152-0.383c0.101-0.102,0.23-0.154,0.385-0.154h1.168
		c0.154,0,0.283,0.054,0.385,0.154c0.102,0.1,0.151,0.229,0.151,0.383v6.47c0,2.319,1.013,3.479,3.036,3.479
		c0.965,0,1.738-0.309,2.322-0.924c0.584-0.613,0.875-1.467,0.875-2.557v-6.469c0-0.154,0.053-0.283,0.152-0.384
		c0.102-0.102,0.23-0.153,0.385-0.153h1.168c0.156,0,0.28,0.053,0.375,0.153c0.092,0.101,0.14,0.229,0.14,0.384v11.067
		c0,0.156-0.048,0.283-0.14,0.388c-0.095,0.1-0.219,0.149-0.375,0.149H69.35c-0.155,0-0.284-0.051-0.385-0.149
		c-0.103-0.104-0.152-0.23-0.152-0.388v-1.026c-0.42,0.545-0.93,0.979-1.53,1.309C66.685,121.445,65.894,121.609,64.913,121.609"/>
	<path fill="#1A1A18" d="M78.805,119.719c0.778,0,1.4-0.18,1.866-0.537c0.47-0.358,0.817-0.813,1.054-1.367
		c0.231-0.553,0.356-1.116,0.373-1.692c0.014-0.248,0.022-0.549,0.022-0.897c0-0.353-0.009-0.648-0.022-0.898
		c-0.017-0.545-0.146-1.082-0.386-1.611c-0.241-0.529-0.601-0.965-1.075-1.309c-0.475-0.342-1.085-0.514-1.832-0.514
		c-0.793,0-1.425,0.176-1.892,0.524c-0.468,0.353-0.802,0.812-1.005,1.379c-0.2,0.568-0.319,1.181-0.352,1.832
		c-0.014,0.451-0.014,0.902,0,1.354c0.031,0.654,0.15,1.265,0.352,1.832c0.203,0.568,0.537,1.027,1.005,1.377
		C77.38,119.541,78.012,119.719,78.805,119.719 M78.314,121.609c-0.856,0-1.598-0.152-2.221-0.457
		c-0.621-0.303-1.131-0.715-1.527-1.236s-0.693-1.117-0.889-1.787c-0.193-0.67-0.307-1.377-0.338-2.123
		c-0.016-0.25-0.023-0.482-0.023-0.701s0.008-0.451,0.023-0.701c0.031-0.729,0.145-1.43,0.338-2.102
		c0.195-0.668,0.492-1.268,0.889-1.797s0.906-0.945,1.527-1.25c0.623-0.303,1.363-0.455,2.221-0.455c0.918,0,1.68,0.164,2.287,0.49
		s1.105,0.732,1.494,1.215v-5.371c0-0.154,0.051-0.283,0.152-0.385c0.1-0.1,0.229-0.152,0.385-0.152h1.121
		c0.154,0,0.283,0.053,0.385,0.152c0.101,0.102,0.152,0.23,0.152,0.385v15.504c0,0.156-0.053,0.283-0.152,0.387
		c-0.102,0.101-0.229,0.15-0.385,0.15h-1.053c-0.17,0-0.303-0.051-0.396-0.15c-0.092-0.104-0.139-0.229-0.139-0.387v-0.98
		c-0.391,0.498-0.896,0.914-1.518,1.248C80.025,121.441,79.249,121.609,78.314,121.609"/>
	<path fill="#1A1A18" d="M91.378,121.609c-0.873,0-1.619-0.109-2.241-0.328c-0.623-0.217-1.13-0.48-1.519-0.793
		c-0.392-0.312-0.683-0.623-0.875-0.934c-0.195-0.313-0.302-0.562-0.316-0.748c-0.016-0.171,0.039-0.306,0.164-0.396
		c0.125-0.094,0.248-0.141,0.373-0.141h1.052c0.077,0,0.145,0.012,0.198,0.035c0.054,0.022,0.129,0.09,0.222,0.196
		c0.203,0.219,0.428,0.438,0.678,0.654c0.248,0.219,0.555,0.397,0.922,0.536c0.365,0.142,0.82,0.211,1.365,0.211
		c0.795,0,1.449-0.151,1.963-0.454c0.512-0.306,0.771-0.753,0.771-1.343c0-0.389-0.106-0.7-0.315-0.934
		c-0.211-0.234-0.584-0.445-1.121-0.631c-0.537-0.188-1.271-0.383-2.207-0.584c-0.934-0.219-1.674-0.486-2.219-0.807
		c-0.545-0.318-0.933-0.699-1.166-1.144c-0.234-0.444-0.351-0.946-0.351-1.508c0-0.574,0.17-1.133,0.513-1.67
		c0.344-0.537,0.846-0.976,1.506-1.318c0.664-0.342,1.492-0.514,2.488-0.514c0.809,0,1.502,0.103,2.077,0.305
		c0.574,0.201,1.052,0.455,1.425,0.759c0.373,0.305,0.651,0.604,0.84,0.897c0.188,0.297,0.289,0.547,0.303,0.748
		c0.016,0.155-0.029,0.285-0.139,0.385c-0.109,0.103-0.234,0.152-0.375,0.152h-0.98c-0.107,0-0.197-0.022-0.268-0.07
		c-0.071-0.047-0.138-0.102-0.197-0.162c-0.158-0.202-0.34-0.405-0.551-0.608c-0.209-0.201-0.482-0.369-0.816-0.5
		c-0.334-0.133-0.773-0.199-1.318-0.199c-0.779,0-1.363,0.162-1.75,0.49c-0.391,0.326-0.584,0.738-0.584,1.238
		c0,0.295,0.084,0.559,0.256,0.793c0.17,0.231,0.498,0.442,0.98,0.629c0.482,0.188,1.197,0.391,2.148,0.608
		c1.026,0.201,1.836,0.476,2.428,0.815c0.592,0.342,1.01,0.738,1.26,1.191c0.248,0.451,0.375,0.973,0.375,1.563
		c0,0.653-0.188,1.254-0.561,1.799c-0.375,0.545-0.935,0.978-1.681,1.297C93.387,121.449,92.466,121.609,91.378,121.609"/>
	<path fill="#1A1A18" d="M102.738,119.857c0.636,0,1.22-0.138,1.75-0.408c0.529-0.271,0.945-0.697,1.248-1.273
		c0.306-0.576,0.457-1.299,0.457-2.17v-0.654l-2.709,0.396c-1.106,0.156-1.936,0.416-2.498,0.781c-0.561,0.367-0.84,0.83-0.84,1.391
		c0,0.436,0.127,0.799,0.386,1.086c0.256,0.287,0.584,0.502,0.979,0.641C101.909,119.787,102.316,119.857,102.738,119.857
		 M102.249,121.609c-0.778,0-1.487-0.156-2.127-0.467c-0.64-0.313-1.149-0.732-1.541-1.263c-0.39-0.528-0.582-1.129-0.582-1.799
		c0-1.072,0.437-1.929,1.308-2.565c0.87-0.639,2.008-1.062,3.407-1.263l3.479-0.489v-0.679c0-0.746-0.215-1.33-0.641-1.75
		c-0.43-0.422-1.127-0.631-2.092-0.631c-0.684,0-1.244,0.141-1.68,0.42c-0.438,0.278-0.74,0.64-0.914,1.074
		c-0.092,0.233-0.254,0.352-0.488,0.352h-1.051c-0.172,0-0.301-0.053-0.385-0.153c-0.086-0.101-0.129-0.222-0.129-0.361
		c0-0.232,0.09-0.52,0.268-0.863c0.18-0.344,0.455-0.678,0.83-1.004c0.373-0.326,0.854-0.604,1.436-0.828
		c0.584-0.227,1.297-0.34,2.137-0.34c0.935,0,1.722,0.121,2.359,0.361c0.637,0.242,1.141,0.565,1.506,0.971
		c0.363,0.404,0.629,0.863,0.793,1.377s0.246,1.035,0.246,1.564v7.563c0,0.156-0.053,0.283-0.152,0.388
		c-0.102,0.1-0.231,0.149-0.387,0.149h-1.074c-0.17,0-0.303-0.051-0.396-0.149c-0.094-0.104-0.139-0.23-0.139-0.388v-1.004
		c-0.203,0.278-0.478,0.56-0.818,0.828c-0.342,0.272-0.771,0.498-1.282,0.678C103.626,121.52,102.995,121.609,102.249,121.609"/>
	<path fill="#1A1A18" d="M115.128,121.375c-0.233,0-0.418-0.055-0.549-0.162c-0.136-0.109-0.238-0.25-0.315-0.422l-4.318-10.834
		c-0.033-0.076-0.049-0.154-0.049-0.234c0-0.139,0.049-0.256,0.143-0.35s0.209-0.141,0.348-0.141h1.123
		c0.17,0,0.303,0.047,0.396,0.141c0.093,0.094,0.154,0.18,0.188,0.258l3.547,9.199l3.551-9.199c0.031-0.078,0.088-0.164,0.177-0.258
		c0.084-0.094,0.213-0.141,0.385-0.141h1.144c0.125,0,0.237,0.047,0.34,0.141c0.102,0.094,0.152,0.211,0.152,0.35
		c0,0.08-0.017,0.158-0.048,0.234l-4.346,10.834c-0.062,0.172-0.158,0.313-0.291,0.422c-0.134,0.107-0.32,0.162-0.57,0.162H115.128z
		"/>
	<path fill="#1A1A18" d="M123.848,121.375c-0.154,0-0.283-0.051-0.386-0.152c-0.103-0.1-0.151-0.229-0.151-0.385V109.77
		c0-0.153,0.051-0.283,0.151-0.383c0.103-0.102,0.229-0.154,0.386-0.154h1.12c0.156,0,0.283,0.054,0.386,0.154
		c0.102,0.1,0.151,0.229,0.151,0.383v11.068c0,0.156-0.051,0.285-0.151,0.385c-0.103,0.103-0.229,0.152-0.386,0.152H123.848z
		 M123.659,106.969c-0.154,0-0.283-0.049-0.386-0.152c-0.102-0.1-0.149-0.229-0.149-0.385v-1.26c0-0.156,0.049-0.289,0.149-0.398
		c0.103-0.106,0.23-0.164,0.386-0.164h1.471c0.158,0,0.289,0.058,0.399,0.164c0.105,0.109,0.162,0.242,0.162,0.398v1.26
		c0,0.156-0.057,0.285-0.162,0.385c-0.11,0.104-0.241,0.152-0.399,0.152H123.659z"/>
	<path fill="#1A1A18" d="M132.538,121.609c-0.871,0-1.619-0.109-2.242-0.328c-0.621-0.217-1.127-0.48-1.519-0.793
		c-0.389-0.312-0.68-0.623-0.875-0.934c-0.192-0.313-0.299-0.562-0.313-0.748c-0.019-0.171,0.039-0.306,0.164-0.396
		c0.123-0.094,0.248-0.141,0.373-0.141h1.049c0.078,0,0.144,0.012,0.199,0.035c0.056,0.022,0.129,0.09,0.224,0.196
		c0.2,0.219,0.426,0.438,0.678,0.654c0.248,0.219,0.557,0.397,0.92,0.536c0.365,0.142,0.822,0.211,1.367,0.211
		c0.793,0,1.446-0.151,1.961-0.454c0.516-0.306,0.77-0.753,0.77-1.343c0-0.389-0.104-0.7-0.314-0.934
		c-0.209-0.234-0.584-0.445-1.119-0.631c-0.539-0.188-1.272-0.383-2.207-0.584c-0.936-0.219-1.674-0.486-2.219-0.807
		c-0.545-0.318-0.936-0.699-1.168-1.144c-0.231-0.444-0.35-0.946-0.35-1.508c0-0.574,0.17-1.133,0.514-1.67
		c0.342-0.537,0.844-0.976,1.506-1.318c0.66-0.342,1.49-0.514,2.488-0.514c0.809,0,1.5,0.103,2.076,0.305
		c0.578,0.201,1.051,0.455,1.426,0.759c0.373,0.305,0.652,0.604,0.838,0.897c0.188,0.297,0.291,0.547,0.307,0.748
		c0.015,0.155-0.03,0.285-0.143,0.385c-0.109,0.103-0.232,0.152-0.373,0.152h-0.979c-0.109,0-0.197-0.022-0.271-0.07
		c-0.068-0.047-0.135-0.102-0.199-0.162c-0.153-0.202-0.336-0.405-0.547-0.608c-0.209-0.201-0.481-0.369-0.815-0.5
		c-0.339-0.133-0.772-0.199-1.318-0.199c-0.78,0-1.364,0.162-1.752,0.49c-0.389,0.326-0.584,0.738-0.584,1.238
		c0,0.295,0.084,0.559,0.257,0.793c0.17,0.231,0.497,0.442,0.979,0.629c0.481,0.188,1.198,0.391,2.149,0.608
		c1.025,0.201,1.834,0.476,2.428,0.815c0.593,0.343,1.011,0.738,1.261,1.191c0.25,0.451,0.373,0.973,0.373,1.563
		c0,0.653-0.188,1.254-0.56,1.799c-0.375,0.545-0.936,0.978-1.684,1.297C134.548,121.449,133.628,121.609,132.538,121.609"/>
</g>
<polygon fill="#D0DAA3" points="92.352,18.206 43.423,31.229 92.352,49.4 "/>
<g>
	<path fill="#8AA31B" d="M106.575,41.753c0-5.813-4.714-10.524-10.525-10.524H43.422v48.884c0,5.813,4.712,10.525,10.524,10.525
		H96.05c5.813,0,10.525-4.712,10.525-10.525V41.753z"/>
</g>
<g>
	<path fill="#FFFFFF" d="M83.187,43.019H66.812c-7.133,0-12.914,5.783-12.914,12.916v10.002c0,7.132,5.781,12.914,12.914,12.914
		h16.375c6.001,0,11.045-4.092,12.503-9.636c0.08-0.317,0.009-0.651-0.193-0.909c-0.199-0.257-0.508-0.408-0.835-0.408
		c-2.364,0-7.314,0-9.211,0.011c-0.443,0-0.853,0.229-1.082,0.608c-0.869,1.414-2.429,2.354-4.209,2.354H69.837
		c-2.727,0-4.934-2.209-4.934-4.934c0,0,0,0,0-0.001c0-0.268,0.105-0.524,0.294-0.713c0.189-0.191,0.449-0.296,0.715-0.296h28.121
		c1.143,0,2.069-0.927,2.069-2.069v-6.922C96.103,48.802,90.319,43.019,83.187,43.019z M84.799,56.649
		c-0.189,0.189-0.445,0.296-0.715,0.296c-3.888,0-14.282,0-18.172,0c-0.266,0-0.525-0.107-0.715-0.296
		c-0.188-0.189-0.294-0.447-0.294-0.715c0-2.726,2.207-4.935,4.934-4.935h10.322c2.727,0,4.936,2.209,4.936,4.935
		C85.095,56.202,84.988,56.46,84.799,56.649z"/>
</g>
</svg>
