<?xml version="1.0" encoding="utf-8"?>
<!-- Generator: Adobe Illustrator 16.0.3, SVG Export Plug-In . SVG Version: 6.00 Build 0)  -->
<!DOCTYPE svg PUBLIC "-//W3C//DTD SVG 1.1//EN" "http://www.w3.org/Graphics/SVG/1.1/DTD/svg11.dtd">
<svg version="1.1" id="Lag_1" xmlns="http://www.w3.org/2000/svg" xmlns:xlink="http://www.w3.org/1999/xlink" x="0px" y="0px"
	 width="120px" height="120px" viewBox="0 0 120 120" enable-background="new 0 0 120 120" xml:space="preserve">
<g>
	<path fill="#8AA31B" d="M119.999,26.931C119.999,12.118,107.88,0,93.068,0H26.931C12.119,0,0,12.118,0,26.931v66.141
		C0,107.883,12.119,120,26.931,120h66.137C107.881,120,120,107.883,120,93.071L119.999,26.931L119.999,26.931z"/>
</g>
<polygon fill="#D0DAA3" points="78.401,37.862 78.401,16.544 26.503,30.362 "/>
<path fill="#FFFFFF" d="M65.51,51.341c2.892,0,5.226,2.342,5.226,5.23l0,0c0,0.281-0.108,0.557-0.309,0.756
	c-0.199,0.199-0.476,0.311-0.758,0.311c-4.117,0-15.125,0-19.244,0c-0.281,0-0.557-0.112-0.756-0.311
	c-0.2-0.2-0.314-0.475-0.314-0.756l0,0c0-2.888,2.337-5.23,5.226-5.23H65.51z M80.869,69.241c0.352,0,0.678,0.159,0.89,0.432
	c0.21,0.275,0.285,0.626,0.201,0.966c-1.545,5.871-6.89,10.205-13.242,10.205H51.374c-7.556,0-13.675-6.125-13.675-13.679V56.572
	c0-7.558,6.123-13.681,13.675-13.681h17.344c7.551,0,13.678,6.123,13.678,13.681v7.33c0,1.208-0.983,2.192-2.192,2.192H50.425
	c-0.281,0-0.557,0.112-0.756,0.311c-0.2,0.2-0.314,0.473-0.314,0.756l0,0c0,2.888,2.337,5.226,5.226,5.226h10.935
	c1.881,0,3.533-0.992,4.456-2.495c0.243-0.4,0.677-0.641,1.147-0.641C73.125,69.241,78.366,69.241,80.869,69.241z M82.355,30.328
	H26.475V82.23c0,6.173,5.003,11.18,11.174,11.18h44.7c6.173,0,11.177-5.007,11.177-11.18V41.5
	C93.527,35.327,88.523,30.328,82.355,30.328z"/>
</svg>
